<?xml version="1.0" standalone="no"?>
 <!DOCTYPE svg PUBLIC "-//W3C//DTD SVG 1.1//EN" 
 "http://www.w3.org/Graphics/SVG/1.1/DTD/svg11.dtd"> 
<svg xmlns="http://www.w3.org/2000/svg" version="1.1" 
    width="29.7002cm" height="21.0007cm" viewBox="0 0 116930 82680 ">
<title>SVG Picture created as T32_ref-F.Fab.svg date 2017/03/15 16:54:43 </title>
  <desc>Picture generated by PCBNEW </desc>
<g style="fill:#000000; fill-opacity:1;stroke:#000000; stroke-opacity:1;
stroke-linecap:round; stroke-linejoin:round; "
 transform="translate(0 0) scale(1 1)">
</g>
<g style="fill:#000000; fill-opacity:0.0; 
stroke:#000000; stroke-width:-0.000393701; stroke-opacity:1; 
stroke-linecap:round; stroke-linejoin:round;">
</g>
<g style="fill:#000000; fill-opacity:0.0; 
stroke:#000000; stroke-width:39.3701; stroke-opacity:1; 
stroke-linecap:round; stroke-linejoin:round;">
</g>
<g style="fill:#000000; fill-opacity:0.0; 
stroke:#000000; stroke-width:59.0551; stroke-opacity:1; 
stroke-linecap:round; stroke-linejoin:round;">
<rect x="69685.9" y="65357.2" width="42519.7" height="12598.4" rx="0" />
</g>
<g style="fill:#000000; fill-opacity:0.0; 
stroke:#000000; stroke-width:39.3701; stroke-opacity:1; 
stroke-linecap:round; stroke-linejoin:round;">
</g>
<g style="fill:#000000; fill-opacity:0.0; 
stroke:#000000; stroke-width:59.0551; stroke-opacity:1; 
stroke-linecap:round; stroke-linejoin:round;">
<rect x="3937.01" y="3937.01" width="109056" height="74806" rx="0" />
</g>
<g style="fill:#000000; fill-opacity:0.0; 
stroke:#000000; stroke-width:39.3701; stroke-opacity:1; 
stroke-linecap:round; stroke-linejoin:round;">
</g>
<g style="fill:#000000; fill-opacity:0.0; 
stroke:#000000; stroke-width:59.0551; stroke-opacity:1; 
stroke-linecap:round; stroke-linejoin:round;">
<rect x="4724.41" y="4724.41" width="107481" height="73231.2" rx="0" />
</g>
<g style="fill:#000000; fill-opacity:0.0; 
stroke:#000000; stroke-width:39.3701; stroke-opacity:1; 
stroke-linecap:round; stroke-linejoin:round;">
</g>
<g style="fill:#000000; fill-opacity:0.0; 
stroke:#000000; stroke-width:59.0551; stroke-opacity:1; 
stroke-linecap:round; stroke-linejoin:round;">
<path d="M23622 4724
L23622 3937
" />
</g>
<g style="fill:#000000; fill-opacity:0.0; 
stroke:#000000; stroke-width:39.3701; stroke-opacity:1; 
stroke-linecap:round; stroke-linejoin:round;">
</g>
<g style="fill:#000000; fill-opacity:0.0; 
stroke:#000000; stroke-width:59.0551; stroke-opacity:1; 
stroke-linecap:round; stroke-linejoin:round;">
<path d="M43307 4724
L43307 3937
" />
</g>
<g style="fill:#000000; fill-opacity:0.0; 
stroke:#000000; stroke-width:39.3701; stroke-opacity:1; 
stroke-linecap:round; stroke-linejoin:round;">
</g>
<g style="fill:#000000; fill-opacity:0.0; 
stroke:#000000; stroke-width:59.0551; stroke-opacity:1; 
stroke-linecap:round; stroke-linejoin:round;">
<path d="M62992 4724
L62992 3937
" />
</g>
<g style="fill:#000000; fill-opacity:0.0; 
stroke:#000000; stroke-width:39.3701; stroke-opacity:1; 
stroke-linecap:round; stroke-linejoin:round;">
</g>
<g style="fill:#000000; fill-opacity:0.0; 
stroke:#000000; stroke-width:59.0551; stroke-opacity:1; 
stroke-linecap:round; stroke-linejoin:round;">
<path d="M82677 4724
L82677 3937
" />
</g>
<g style="fill:#000000; fill-opacity:0.0; 
stroke:#000000; stroke-width:39.3701; stroke-opacity:1; 
stroke-linecap:round; stroke-linejoin:round;">
</g>
<g style="fill:#000000; fill-opacity:0.0; 
stroke:#000000; stroke-width:59.0551; stroke-opacity:1; 
stroke-linecap:round; stroke-linejoin:round;">
<path d="M102362 4724
L102362 3937
" />
</g>
<g style="fill:#000000; fill-opacity:0.0; 
stroke:#000000; stroke-width:39.3701; stroke-opacity:1; 
stroke-linecap:round; stroke-linejoin:round;">
</g>
<g style="fill:#000000; fill-opacity:0.0; 
stroke:#000000; stroke-width:59.0551; stroke-opacity:1; 
stroke-linecap:round; stroke-linejoin:round;">
<path d="M14169 4562
L13877 4562
" />
<path d="M14023 4562
L14023 4050
L13974 4123
L13925 4172
L13877 4196
" />
</g>
<g style="fill:#000000; fill-opacity:0.0; 
stroke:#000000; stroke-width:39.3701; stroke-opacity:1; 
stroke-linecap:round; stroke-linejoin:round;">
</g>
<g style="fill:#000000; fill-opacity:0.0; 
stroke:#000000; stroke-width:59.0551; stroke-opacity:1; 
stroke-linecap:round; stroke-linejoin:round;">
<path d="M33562 4099
L33586 4074
L33635 4050
L33757 4050
L33805 4074
L33830 4099
L33854 4147
L33854 4196
L33830 4269
L33537 4562
L33854 4562
" />
</g>
<g style="fill:#000000; fill-opacity:0.0; 
stroke:#000000; stroke-width:39.3701; stroke-opacity:1; 
stroke-linecap:round; stroke-linejoin:round;">
</g>
<g style="fill:#000000; fill-opacity:0.0; 
stroke:#000000; stroke-width:59.0551; stroke-opacity:1; 
stroke-linecap:round; stroke-linejoin:round;">
<path d="M53222 4050
L53539 4050
L53368 4245
L53442 4245
L53490 4269
L53515 4294
L53539 4342
L53539 4464
L53515 4513
L53490 4537
L53442 4562
L53295 4562
L53247 4537
L53222 4513
" />
</g>
<g style="fill:#000000; fill-opacity:0.0; 
stroke:#000000; stroke-width:39.3701; stroke-opacity:1; 
stroke-linecap:round; stroke-linejoin:round;">
</g>
<g style="fill:#000000; fill-opacity:0.0; 
stroke:#000000; stroke-width:59.0551; stroke-opacity:1; 
stroke-linecap:round; stroke-linejoin:round;">
<path d="M73175 4221
L73175 4562
" />
<path d="M73053 4026
L72932 4391
L73248 4391
" />
</g>
<g style="fill:#000000; fill-opacity:0.0; 
stroke:#000000; stroke-width:39.3701; stroke-opacity:1; 
stroke-linecap:round; stroke-linejoin:round;">
</g>
<g style="fill:#000000; fill-opacity:0.0; 
stroke:#000000; stroke-width:59.0551; stroke-opacity:1; 
stroke-linecap:round; stroke-linejoin:round;">
<path d="M92885 4050
L92641 4050
L92617 4294
L92641 4269
L92690 4245
L92812 4245
L92860 4269
L92885 4294
L92909 4342
L92909 4464
L92885 4513
L92860 4537
L92812 4562
L92690 4562
L92641 4537
L92617 4513
" />
</g>
<g style="fill:#000000; fill-opacity:0.0; 
stroke:#000000; stroke-width:39.3701; stroke-opacity:1; 
stroke-linecap:round; stroke-linejoin:round;">
</g>
<g style="fill:#000000; fill-opacity:0.0; 
stroke:#000000; stroke-width:59.0551; stroke-opacity:1; 
stroke-linecap:round; stroke-linejoin:round;">
<path d="M112545 4050
L112448 4050
L112399 4074
L112375 4099
L112326 4172
L112302 4269
L112302 4464
L112326 4513
L112350 4537
L112399 4562
L112497 4562
L112545 4537
L112570 4513
L112594 4464
L112594 4342
L112570 4294
L112545 4269
L112497 4245
L112399 4245
L112350 4269
L112326 4294
L112302 4342
" />
</g>
<g style="fill:#000000; fill-opacity:0.0; 
stroke:#000000; stroke-width:39.3701; stroke-opacity:1; 
stroke-linecap:round; stroke-linejoin:round;">
</g>
<g style="fill:#000000; fill-opacity:0.0; 
stroke:#000000; stroke-width:59.0551; stroke-opacity:1; 
stroke-linecap:round; stroke-linejoin:round;">
<path d="M23622 77955
L23622 78742
" />
</g>
<g style="fill:#000000; fill-opacity:0.0; 
stroke:#000000; stroke-width:39.3701; stroke-opacity:1; 
stroke-linecap:round; stroke-linejoin:round;">
</g>
<g style="fill:#000000; fill-opacity:0.0; 
stroke:#000000; stroke-width:59.0551; stroke-opacity:1; 
stroke-linecap:round; stroke-linejoin:round;">
<path d="M43307 77955
L43307 78742
" />
</g>
<g style="fill:#000000; fill-opacity:0.0; 
stroke:#000000; stroke-width:39.3701; stroke-opacity:1; 
stroke-linecap:round; stroke-linejoin:round;">
</g>
<g style="fill:#000000; fill-opacity:0.0; 
stroke:#000000; stroke-width:59.0551; stroke-opacity:1; 
stroke-linecap:round; stroke-linejoin:round;">
<path d="M62992 77955
L62992 78742
" />
</g>
<g style="fill:#000000; fill-opacity:0.0; 
stroke:#000000; stroke-width:39.3701; stroke-opacity:1; 
stroke-linecap:round; stroke-linejoin:round;">
</g>
<g style="fill:#000000; fill-opacity:0.0; 
stroke:#000000; stroke-width:59.0551; stroke-opacity:1; 
stroke-linecap:round; stroke-linejoin:round;">
<path d="M82677 77955
L82677 78742
" />
</g>
<g style="fill:#000000; fill-opacity:0.0; 
stroke:#000000; stroke-width:39.3701; stroke-opacity:1; 
stroke-linecap:round; stroke-linejoin:round;">
</g>
<g style="fill:#000000; fill-opacity:0.0; 
stroke:#000000; stroke-width:59.0551; stroke-opacity:1; 
stroke-linecap:round; stroke-linejoin:round;">
<path d="M102362 77955
L102362 78742
" />
</g>
<g style="fill:#000000; fill-opacity:0.0; 
stroke:#000000; stroke-width:39.3701; stroke-opacity:1; 
stroke-linecap:round; stroke-linejoin:round;">
</g>
<g style="fill:#000000; fill-opacity:0.0; 
stroke:#000000; stroke-width:59.0551; stroke-opacity:1; 
stroke-linecap:round; stroke-linejoin:round;">
<path d="M14169 78580
L13877 78580
" />
<path d="M14023 78580
L14023 78069
L13974 78142
L13925 78190
L13877 78215
" />
</g>
<g style="fill:#000000; fill-opacity:0.0; 
stroke:#000000; stroke-width:39.3701; stroke-opacity:1; 
stroke-linecap:round; stroke-linejoin:round;">
</g>
<g style="fill:#000000; fill-opacity:0.0; 
stroke:#000000; stroke-width:59.0551; stroke-opacity:1; 
stroke-linecap:round; stroke-linejoin:round;">
<path d="M33562 78117
L33586 78093
L33635 78069
L33757 78069
L33805 78093
L33830 78117
L33854 78166
L33854 78215
L33830 78288
L33537 78580
L33854 78580
" />
</g>
<g style="fill:#000000; fill-opacity:0.0; 
stroke:#000000; stroke-width:39.3701; stroke-opacity:1; 
stroke-linecap:round; stroke-linejoin:round;">
</g>
<g style="fill:#000000; fill-opacity:0.0; 
stroke:#000000; stroke-width:59.0551; stroke-opacity:1; 
stroke-linecap:round; stroke-linejoin:round;">
<path d="M53222 78069
L53539 78069
L53368 78263
L53442 78263
L53490 78288
L53515 78312
L53539 78361
L53539 78483
L53515 78532
L53490 78556
L53442 78580
L53295 78580
L53247 78556
L53222 78532
" />
</g>
<g style="fill:#000000; fill-opacity:0.0; 
stroke:#000000; stroke-width:39.3701; stroke-opacity:1; 
stroke-linecap:round; stroke-linejoin:round;">
</g>
<g style="fill:#000000; fill-opacity:0.0; 
stroke:#000000; stroke-width:59.0551; stroke-opacity:1; 
stroke-linecap:round; stroke-linejoin:round;">
<path d="M73175 78239
L73175 78580
" />
<path d="M73053 78044
L72932 78410
L73248 78410
" />
</g>
<g style="fill:#000000; fill-opacity:0.0; 
stroke:#000000; stroke-width:39.3701; stroke-opacity:1; 
stroke-linecap:round; stroke-linejoin:round;">
</g>
<g style="fill:#000000; fill-opacity:0.0; 
stroke:#000000; stroke-width:59.0551; stroke-opacity:1; 
stroke-linecap:round; stroke-linejoin:round;">
<path d="M92885 78069
L92641 78069
L92617 78312
L92641 78288
L92690 78263
L92812 78263
L92860 78288
L92885 78312
L92909 78361
L92909 78483
L92885 78532
L92860 78556
L92812 78580
L92690 78580
L92641 78556
L92617 78532
" />
</g>
<g style="fill:#000000; fill-opacity:0.0; 
stroke:#000000; stroke-width:39.3701; stroke-opacity:1; 
stroke-linecap:round; stroke-linejoin:round;">
</g>
<g style="fill:#000000; fill-opacity:0.0; 
stroke:#000000; stroke-width:59.0551; stroke-opacity:1; 
stroke-linecap:round; stroke-linejoin:round;">
<path d="M112545 78069
L112448 78069
L112399 78093
L112375 78117
L112326 78190
L112302 78288
L112302 78483
L112326 78532
L112350 78556
L112399 78580
L112497 78580
L112545 78556
L112570 78532
L112594 78483
L112594 78361
L112570 78312
L112545 78288
L112497 78263
L112399 78263
L112350 78288
L112326 78312
L112302 78361
" />
</g>
<g style="fill:#000000; fill-opacity:0.0; 
stroke:#000000; stroke-width:39.3701; stroke-opacity:1; 
stroke-linecap:round; stroke-linejoin:round;">
</g>
<g style="fill:#000000; fill-opacity:0.0; 
stroke:#000000; stroke-width:59.0551; stroke-opacity:1; 
stroke-linecap:round; stroke-linejoin:round;">
<path d="M3937 23622
L4724 23622
" />
</g>
<g style="fill:#000000; fill-opacity:0.0; 
stroke:#000000; stroke-width:39.3701; stroke-opacity:1; 
stroke-linecap:round; stroke-linejoin:round;">
</g>
<g style="fill:#000000; fill-opacity:0.0; 
stroke:#000000; stroke-width:59.0551; stroke-opacity:1; 
stroke-linecap:round; stroke-linejoin:round;">
<path d="M3937 43307
L4724 43307
" />
</g>
<g style="fill:#000000; fill-opacity:0.0; 
stroke:#000000; stroke-width:39.3701; stroke-opacity:1; 
stroke-linecap:round; stroke-linejoin:round;">
</g>
<g style="fill:#000000; fill-opacity:0.0; 
stroke:#000000; stroke-width:59.0551; stroke-opacity:1; 
stroke-linecap:round; stroke-linejoin:round;">
<path d="M3937 62992
L4724 62992
" />
</g>
<g style="fill:#000000; fill-opacity:0.0; 
stroke:#000000; stroke-width:39.3701; stroke-opacity:1; 
stroke-linecap:round; stroke-linejoin:round;">
</g>
<g style="fill:#000000; fill-opacity:0.0; 
stroke:#000000; stroke-width:59.0551; stroke-opacity:1; 
stroke-linecap:round; stroke-linejoin:round;">
<path d="M4208 13864
L4452 13864
" />
<path d="M4160 14011
L4330 13499
L4501 14011
" />
</g>
<g style="fill:#000000; fill-opacity:0.0; 
stroke:#000000; stroke-width:39.3701; stroke-opacity:1; 
stroke-linecap:round; stroke-linejoin:round;">
</g>
<g style="fill:#000000; fill-opacity:0.0; 
stroke:#000000; stroke-width:59.0551; stroke-opacity:1; 
stroke-linecap:round; stroke-linejoin:round;">
<path d="M4367 33428
L4440 33452
L4464 33476
L4489 33525
L4489 33598
L4464 33647
L4440 33671
L4391 33696
L4196 33696
L4196 33184
L4367 33184
L4416 33208
L4440 33233
L4464 33281
L4464 33330
L4440 33379
L4416 33403
L4367 33428
L4196 33428
" />
</g>
<g style="fill:#000000; fill-opacity:0.0; 
stroke:#000000; stroke-width:39.3701; stroke-opacity:1; 
stroke-linecap:round; stroke-linejoin:round;">
</g>
<g style="fill:#000000; fill-opacity:0.0; 
stroke:#000000; stroke-width:59.0551; stroke-opacity:1; 
stroke-linecap:round; stroke-linejoin:round;">
<path d="M4489 53332
L4464 53356
L4391 53381
L4342 53381
L4269 53356
L4221 53308
L4196 53259
L4172 53161
L4172 53088
L4196 52991
L4221 52942
L4269 52893
L4342 52869
L4391 52869
L4464 52893
L4489 52918
" />
</g>
<g style="fill:#000000; fill-opacity:0.0; 
stroke:#000000; stroke-width:39.3701; stroke-opacity:1; 
stroke-linecap:round; stroke-linejoin:round;">
</g>
<g style="fill:#000000; fill-opacity:0.0; 
stroke:#000000; stroke-width:59.0551; stroke-opacity:1; 
stroke-linecap:round; stroke-linejoin:round;">
<path d="M4196 73066
L4196 72554
L4318 72554
L4391 72578
L4440 72627
L4464 72676
L4489 72773
L4489 72846
L4464 72944
L4440 72993
L4391 73041
L4318 73066
L4196 73066
" />
</g>
<g style="fill:#000000; fill-opacity:0.0; 
stroke:#000000; stroke-width:39.3701; stroke-opacity:1; 
stroke-linecap:round; stroke-linejoin:round;">
</g>
<g style="fill:#000000; fill-opacity:0.0; 
stroke:#000000; stroke-width:59.0551; stroke-opacity:1; 
stroke-linecap:round; stroke-linejoin:round;">
<path d="M112992 23622
L112205 23622
" />
</g>
<g style="fill:#000000; fill-opacity:0.0; 
stroke:#000000; stroke-width:39.3701; stroke-opacity:1; 
stroke-linecap:round; stroke-linejoin:round;">
</g>
<g style="fill:#000000; fill-opacity:0.0; 
stroke:#000000; stroke-width:59.0551; stroke-opacity:1; 
stroke-linecap:round; stroke-linejoin:round;">
<path d="M112992 43307
L112205 43307
" />
</g>
<g style="fill:#000000; fill-opacity:0.0; 
stroke:#000000; stroke-width:39.3701; stroke-opacity:1; 
stroke-linecap:round; stroke-linejoin:round;">
</g>
<g style="fill:#000000; fill-opacity:0.0; 
stroke:#000000; stroke-width:59.0551; stroke-opacity:1; 
stroke-linecap:round; stroke-linejoin:round;">
<path d="M112992 62992
L112205 62992
" />
</g>
<g style="fill:#000000; fill-opacity:0.0; 
stroke:#000000; stroke-width:39.3701; stroke-opacity:1; 
stroke-linecap:round; stroke-linejoin:round;">
</g>
<g style="fill:#000000; fill-opacity:0.0; 
stroke:#000000; stroke-width:59.0551; stroke-opacity:1; 
stroke-linecap:round; stroke-linejoin:round;">
<path d="M112477 13864
L112721 13864
" />
<path d="M112428 14011
L112599 13499
L112769 14011
" />
</g>
<g style="fill:#000000; fill-opacity:0.0; 
stroke:#000000; stroke-width:39.3701; stroke-opacity:1; 
stroke-linecap:round; stroke-linejoin:round;">
</g>
<g style="fill:#000000; fill-opacity:0.0; 
stroke:#000000; stroke-width:59.0551; stroke-opacity:1; 
stroke-linecap:round; stroke-linejoin:round;">
<path d="M112635 33428
L112708 33452
L112733 33476
L112757 33525
L112757 33598
L112733 33647
L112708 33671
L112660 33696
L112465 33696
L112465 33184
L112635 33184
L112684 33208
L112708 33233
L112733 33281
L112733 33330
L112708 33379
L112684 33403
L112635 33428
L112465 33428
" />
</g>
<g style="fill:#000000; fill-opacity:0.0; 
stroke:#000000; stroke-width:39.3701; stroke-opacity:1; 
stroke-linecap:round; stroke-linejoin:round;">
</g>
<g style="fill:#000000; fill-opacity:0.0; 
stroke:#000000; stroke-width:59.0551; stroke-opacity:1; 
stroke-linecap:round; stroke-linejoin:round;">
<path d="M112757 53332
L112733 53356
L112660 53381
L112611 53381
L112538 53356
L112489 53308
L112465 53259
L112440 53161
L112440 53088
L112465 52991
L112489 52942
L112538 52893
L112611 52869
L112660 52869
L112733 52893
L112757 52918
" />
</g>
<g style="fill:#000000; fill-opacity:0.0; 
stroke:#000000; stroke-width:39.3701; stroke-opacity:1; 
stroke-linecap:round; stroke-linejoin:round;">
</g>
<g style="fill:#000000; fill-opacity:0.0; 
stroke:#000000; stroke-width:59.0551; stroke-opacity:1; 
stroke-linecap:round; stroke-linejoin:round;">
<path d="M112465 73066
L112465 72554
L112587 72554
L112660 72578
L112708 72627
L112733 72676
L112757 72773
L112757 72846
L112733 72944
L112708 72993
L112660 73041
L112587 73066
L112465 73066
" />
</g>
<g style="fill:#000000; fill-opacity:0.0; 
stroke:#000000; stroke-width:39.3701; stroke-opacity:1; 
stroke-linecap:round; stroke-linejoin:round;">
</g>
<g style="fill:#000000; fill-opacity:0.0; 
stroke:#000000; stroke-width:59.0551; stroke-opacity:1; 
stroke-linecap:round; stroke-linejoin:round;">
<path d="M78881 76293
L78881 75703
L79022 75703
L79106 75731
L79162 75787
L79190 75843
L79219 75956
L79219 76040
L79190 76153
L79162 76209
L79106 76265
L79022 76293
L78881 76293
" />
<path d="M79725 76293
L79725 75984
L79697 75928
L79640 75899
L79528 75899
L79472 75928
" />
<path d="M79725 76265
L79669 76293
L79528 76293
L79472 76265
L79444 76209
L79444 76153
L79472 76096
L79528 76068
L79669 76068
L79725 76040
" />
<path d="M79922 75899
L80147 75899
" />
<path d="M80006 75703
L80006 76209
L80034 76265
L80090 76293
L80147 76293
" />
<path d="M80568 76265
L80512 76293
L80400 76293
L80343 76265
L80315 76209
L80315 75984
L80343 75928
L80400 75899
L80512 75899
L80568 75928
L80597 75984
L80597 76040
L80315 76096
" />
<path d="M80850 76237
L80878 76265
L80850 76293
L80822 76265
L80850 76237
L80850 76293
" />
<path d="M80850 75928
L80878 75956
L80850 75984
L80822 75956
L80850 75928
L80850 75984
" />
</g>
<g style="fill:#000000; fill-opacity:0.0; 
stroke:#000000; stroke-width:39.3701; stroke-opacity:1; 
stroke-linecap:round; stroke-linejoin:round;">
</g>
<g style="fill:#000000; fill-opacity:0.0; 
stroke:#000000; stroke-width:59.0551; stroke-opacity:1; 
stroke-linecap:round; stroke-linejoin:round;">
<path d="M69685 76577
L112205 76577
" />
</g>
<g style="fill:#000000; fill-opacity:0.0; 
stroke:#000000; stroke-width:39.3701; stroke-opacity:1; 
stroke-linecap:round; stroke-linejoin:round;">
</g>
<g style="fill:#000000; fill-opacity:0.0; 
stroke:#000000; stroke-width:59.0551; stroke-opacity:1; 
stroke-linecap:round; stroke-linejoin:round;">
<path d="M70220 77395
L70220 76805
" />
<path d="M70557 77395
L70304 77058
" />
<path d="M70557 76805
L70220 77142
" />
<path d="M70810 77395
L70810 77002
" />
<path d="M70810 76805
L70782 76833
L70810 76861
L70838 76833
L70810 76805
L70810 76861
" />
<path d="M71429 77339
L71401 77367
L71316 77395
L71260 77395
L71176 77367
L71120 77311
L71091 77255
L71063 77142
L71063 77058
L71091 76946
L71120 76889
L71176 76833
L71260 76805
L71316 76805
L71401 76833
L71429 76861
" />
<path d="M71935 77395
L71935 77086
L71907 77030
L71851 77002
L71738 77002
L71682 77030
" />
<path d="M71935 77367
L71879 77395
L71738 77395
L71682 77367
L71654 77311
L71654 77255
L71682 77199
L71738 77171
L71879 77171
L71935 77142
" />
<path d="M72469 77395
L72469 76805
" />
<path d="M72469 77367
L72413 77395
L72301 77395
L72244 77367
L72216 77339
L72188 77283
L72188 77114
L72216 77058
L72244 77030
L72301 77002
L72413 77002
L72469 77030
" />
<path d="M73201 77086
L73397 77086
" />
<path d="M73482 77395
L73201 77395
L73201 76805
L73482 76805
" />
<path d="M73735 77339
L73763 77367
L73735 77395
L73707 77367
L73735 77339
L73735 77395
" />
<path d="M74016 77395
L74016 76805
L74157 76805
L74241 76833
L74297 76889
L74325 76946
L74354 77058
L74354 77142
L74325 77255
L74297 77311
L74241 77367
L74157 77395
L74016 77395
" />
<path d="M74607 77339
L74635 77367
L74607 77395
L74579 77367
L74607 77339
L74607 77395
" />
<path d="M74860 77227
L75141 77227
" />
<path d="M74804 77395
L75000 76805
L75197 77395
" />
<path d="M75394 77339
L75422 77367
L75394 77395
L75366 77367
L75394 77339
L75394 77395
" />
<path d="M76575 77395
L76575 76805
" />
<path d="M76631 77171
L76800 77395
" />
<path d="M76800 77002
L76575 77227
" />
<path d="M77053 77395
L77053 77002
" />
<path d="M77053 76805
L77025 76833
L77053 76861
L77081 76833
L77053 76805
L77053 76861
" />
<path d="M77588 77367
L77531 77395
L77419 77395
L77363 77367
L77334 77339
L77306 77283
L77306 77114
L77334 77058
L77363 77030
L77419 77002
L77531 77002
L77588 77030
" />
<path d="M78094 77395
L78094 77086
L78066 77030
L78009 77002
L77897 77002
L77841 77030
" />
<path d="M78094 77367
L78037 77395
L77897 77395
L77841 77367
L77813 77311
L77813 77255
L77841 77199
L77897 77171
L78037 77171
L78094 77142
" />
<path d="M78628 77395
L78628 76805
" />
<path d="M78628 77367
L78572 77395
L78459 77395
L78403 77367
L78375 77339
L78347 77283
L78347 77114
L78375 77058
L78403 77030
L78459 77002
L78572 77002
L78628 77030
" />
<path d="M79612 77002
L79612 77395
" />
<path d="M79472 76777
L79331 77199
L79697 77199
" />
<path d="M79922 77339
L79950 77367
L79922 77395
L79894 77367
L79922 77339
L79922 77395
" />
<path d="M80315 76805
L80372 76805
L80428 76833
L80456 76861
L80484 76917
L80512 77030
L80512 77171
L80484 77283
L80456 77339
L80428 77367
L80372 77395
L80315 77395
L80259 77367
L80231 77339
L80203 77283
L80175 77171
L80175 77030
L80203 76917
L80231 76861
L80259 76833
L80315 76805
" />
<path d="M80765 77339
L80793 77367
L80765 77395
L80737 77367
L80765 77339
L80765 77395
" />
<path d="M81356 77395
L81018 77395
" />
<path d="M81187 77395
L81187 76805
L81131 76889
L81075 76946
L81018 76974
" />
<path d="M81609 77171
L82059 77171
" />
<path d="M82312 77367
L82368 77395
L82481 77395
L82537 77367
L82565 77311
L82565 77283
L82537 77227
L82481 77199
L82396 77199
L82340 77171
L82312 77114
L82312 77086
L82340 77030
L82396 77002
L82481 77002
L82537 77030
" />
<path d="M82734 77002
L82959 77002
" />
<path d="M82818 76805
L82818 77311
L82846 77367
L82903 77395
L82959 77395
" />
<path d="M83409 77395
L83409 77086
L83381 77030
L83324 77002
L83212 77002
L83156 77030
" />
<path d="M83409 77367
L83352 77395
L83212 77395
L83156 77367
L83127 77311
L83127 77255
L83156 77199
L83212 77171
L83352 77171
L83409 77142
" />
<path d="M83690 77395
L83690 76805
" />
<path d="M83690 77030
L83746 77002
L83859 77002
L83915 77030
L83943 77058
L83971 77114
L83971 77283
L83943 77339
L83915 77367
L83859 77395
L83746 77395
L83690 77367
" />
<path d="M84309 77395
L84252 77367
L84224 77311
L84224 76805
" />
<path d="M84759 77367
L84702 77395
L84590 77395
L84534 77367
L84505 77311
L84505 77086
L84534 77030
L84590 77002
L84702 77002
L84759 77030
L84787 77086
L84787 77142
L84505 77199
" />
</g>
<g style="fill:#000000; fill-opacity:0.0; 
stroke:#000000; stroke-width:39.3701; stroke-opacity:1; 
stroke-linecap:round; stroke-linejoin:round;">
</g>
<g style="fill:#000000; fill-opacity:0.0; 
stroke:#000000; stroke-width:59.0551; stroke-opacity:1; 
stroke-linecap:round; stroke-linejoin:round;">
<path d="M69685 75396
L112205 75396
" />
</g>
<g style="fill:#000000; fill-opacity:0.0; 
stroke:#000000; stroke-width:39.3701; stroke-opacity:1; 
stroke-linecap:round; stroke-linejoin:round;">
</g>
<g style="fill:#000000; fill-opacity:0.0; 
stroke:#000000; stroke-width:118.11; stroke-opacity:1; 
stroke-linecap:round; stroke-linejoin:round;">
<path d="M104022 76293
L103825 76012
" />
<path d="M103684 76293
L103684 75703
L103909 75703
L103965 75731
L103994 75759
L104022 75815
L104022 75899
L103994 75956
L103965 75984
L103909 76012
L103684 76012
" />
<path d="M104500 76265
L104444 76293
L104331 76293
L104275 76265
L104247 76209
L104247 75984
L104275 75928
L104331 75899
L104444 75899
L104500 75928
L104528 75984
L104528 76040
L104247 76096
" />
<path d="M104725 75899
L104865 76293
L105006 75899
" />
<path d="M105231 76237
L105259 76265
L105231 76293
L105203 76265
L105231 76237
L105231 76293
" />
<path d="M105231 75928
L105259 75956
L105231 75984
L105203 75956
L105231 75928
L105231 75984
" />
</g>
<g style="fill:#000000; fill-opacity:0.0; 
stroke:#000000; stroke-width:39.3701; stroke-opacity:1; 
stroke-linecap:round; stroke-linejoin:round;">
</g>
<g style="fill:#000000; fill-opacity:0.0; 
stroke:#000000; stroke-width:59.0551; stroke-opacity:1; 
stroke-linecap:round; stroke-linejoin:round;">
<path d="M70192 76265
L70276 76293
L70417 76293
L70473 76265
L70501 76237
L70529 76181
L70529 76124
L70501 76068
L70473 76040
L70417 76012
L70304 75984
L70248 75956
L70220 75928
L70192 75871
L70192 75815
L70220 75759
L70248 75731
L70304 75703
L70445 75703
L70529 75731
" />
<path d="M70782 76293
L70782 75899
" />
<path d="M70782 75703
L70754 75731
L70782 75759
L70810 75731
L70782 75703
L70782 75759
" />
<path d="M71007 75899
L71316 75899
L71007 76293
L71316 76293
" />
<path d="M71766 76265
L71710 76293
L71598 76293
L71541 76265
L71513 76209
L71513 75984
L71541 75928
L71598 75899
L71710 75899
L71766 75928
L71795 75984
L71795 76040
L71513 76096
" />
<path d="M72048 76237
L72076 76265
L72048 76293
L72019 76265
L72048 76237
L72048 76293
" />
<path d="M72048 75928
L72076 75956
L72048 75984
L72019 75956
L72048 75928
L72048 75984
" />
<path d="M72751 76124
L73032 76124
" />
<path d="M72694 76293
L72891 75703
L73088 76293
" />
<path d="M73538 75899
L73538 76293
" />
<path d="M73397 75674
L73257 76096
L73622 76096
" />
</g>
<g style="fill:#000000; fill-opacity:0.0; 
stroke:#000000; stroke-width:39.3701; stroke-opacity:1; 
stroke-linecap:round; stroke-linejoin:round;">
</g>
<g style="fill:#000000; fill-opacity:0.0; 
stroke:#000000; stroke-width:59.0551; stroke-opacity:1; 
stroke-linecap:round; stroke-linejoin:round;">
<path d="M103684 77395
L103684 76805
" />
<path d="M104219 77395
L104219 76805
" />
<path d="M104219 77367
L104162 77395
L104050 77395
L103994 77367
L103965 77339
L103937 77283
L103937 77114
L103965 77058
L103994 77030
L104050 77002
L104162 77002
L104219 77030
" />
<path d="M104500 77339
L104528 77367
L104500 77395
L104472 77367
L104500 77339
L104500 77395
" />
<path d="M104500 77030
L104528 77058
L104500 77086
L104472 77058
L104500 77030
L104500 77086
" />
<path d="M105540 77395
L105203 77395
" />
<path d="M105372 77395
L105372 76805
L105315 76889
L105259 76946
L105203 76974
" />
<path d="M106215 76777
L105709 77536
" />
<path d="M106721 77395
L106384 77395
" />
<path d="M106553 77395
L106553 76805
L106496 76889
L106440 76946
L106384 76974
" />
</g>
<g style="fill:#000000; fill-opacity:0.0; 
stroke:#000000; stroke-width:39.3701; stroke-opacity:1; 
stroke-linecap:round; stroke-linejoin:round;">
</g>
<g style="fill:#000000; fill-opacity:0.0; 
stroke:#000000; stroke-width:59.0551; stroke-opacity:1; 
stroke-linecap:round; stroke-linejoin:round;">
<path d="M69685 73821
L112205 73821
" />
</g>
<g style="fill:#000000; fill-opacity:0.0; 
stroke:#000000; stroke-width:39.3701; stroke-opacity:1; 
stroke-linecap:round; stroke-linejoin:round;">
</g>
<g style="fill:#000000; fill-opacity:0.0; 
stroke:#000000; stroke-width:157.48; stroke-opacity:1; 
stroke-linecap:round; stroke-linejoin:round;">
<path d="M70257 74099
L70707 74099
" />
<path d="M70384 74886
L70482 74099
" />
<path d="M70871 74886
L70937 74361
" />
<path d="M70970 74099
L70927 74136
L70960 74174
L71002 74136
L70970 74099
L70960 74174
" />
<path d="M71199 74361
L71499 74361
" />
<path d="M71345 74099
L71260 74774
L71288 74849
L71359 74886
L71434 74886
" />
<path d="M71809 74886
L71738 74849
L71710 74774
L71795 74099
" />
<path d="M72413 74849
L72334 74886
L72184 74886
L72113 74849
L72085 74774
L72123 74474
L72169 74399
L72249 74361
L72399 74361
L72469 74399
L72498 74474
L72488 74549
L72104 74624
" />
<path d="M72793 74811
L72826 74849
L72783 74886
L72751 74849
L72793 74811
L72783 74886
" />
<path d="M72844 74399
L72877 74436
L72835 74474
L72802 74436
L72844 74399
L72835 74474
" />
</g>
<g style="fill:#000000; fill-opacity:0.0; 
stroke:#000000; stroke-width:39.3701; stroke-opacity:1; 
stroke-linecap:round; stroke-linejoin:round;">
</g>
<g style="fill:#000000; fill-opacity:0.0; 
stroke:#000000; stroke-width:59.0551; stroke-opacity:1; 
stroke-linecap:round; stroke-linejoin:round;">
<path d="M70417 73070
L70220 73070
" />
<path d="M70220 73380
L70220 72789
L70501 72789
" />
<path d="M70726 73380
L70726 72986
" />
<path d="M70726 72789
L70698 72817
L70726 72845
L70754 72817
L70726 72789
L70726 72845
" />
<path d="M71091 73380
L71035 73352
L71007 73295
L71007 72789
" />
<path d="M71541 73352
L71485 73380
L71373 73380
L71316 73352
L71288 73295
L71288 73070
L71316 73014
L71373 72986
L71485 72986
L71541 73014
L71570 73070
L71570 73127
L71288 73183
" />
<path d="M71823 73323
L71851 73352
L71823 73380
L71795 73352
L71823 73323
L71823 73380
" />
<path d="M71823 73014
L71851 73042
L71823 73070
L71795 73042
L71823 73014
L71823 73070
" />
<path d="M72469 72789
L72807 72789
" />
<path d="M72638 73380
L72638 72789
" />
<path d="M72947 72789
L73313 72789
L73116 73014
L73201 73014
L73257 73042
L73285 73070
L73313 73127
L73313 73267
L73285 73323
L73257 73352
L73201 73380
L73032 73380
L72976 73352
L72947 73323
" />
<path d="M73538 72845
L73566 72817
L73622 72789
L73763 72789
L73819 72817
L73847 72845
L73876 72902
L73876 72958
L73847 73042
L73510 73380
L73876 73380
" />
<path d="M73988 73436
L74438 73436
" />
<path d="M74579 73380
L74579 72986
" />
<path d="M74579 73099
L74607 73042
L74635 73014
L74691 72986
L74747 72986
" />
<path d="M75169 73352
L75113 73380
L75000 73380
L74944 73352
L74916 73295
L74916 73070
L74944 73014
L75000 72986
L75113 72986
L75169 73014
L75197 73070
L75197 73127
L74916 73183
" />
<path d="M75366 72986
L75591 72986
" />
<path d="M75450 73380
L75450 72874
L75478 72817
L75535 72789
L75591 72789
" />
<path d="M75788 73323
L75816 73352
L75788 73380
L75760 73352
L75788 73323
L75788 73380
" />
<path d="M76069 73380
L76069 72789
" />
<path d="M76125 73155
L76294 73380
" />
<path d="M76294 72986
L76069 73211
" />
<path d="M76547 73380
L76547 72986
" />
<path d="M76547 72789
L76519 72817
L76547 72845
L76575 72817
L76547 72789
L76547 72845
" />
<path d="M77081 73352
L77025 73380
L76913 73380
L76856 73352
L76828 73323
L76800 73267
L76800 73099
L76828 73042
L76856 73014
L76913 72986
L77025 72986
L77081 73014
" />
<path d="M77588 73380
L77588 73070
L77559 73014
L77503 72986
L77391 72986
L77334 73014
" />
<path d="M77588 73352
L77531 73380
L77391 73380
L77334 73352
L77306 73295
L77306 73239
L77334 73183
L77391 73155
L77531 73155
L77588 73127
" />
<path d="M78122 73380
L78122 72789
" />
<path d="M78122 73352
L78066 73380
L77953 73380
L77897 73352
L77869 73323
L77841 73267
L77841 73099
L77869 73042
L77897 73014
L77953 72986
L78066 72986
L78122 73014
" />
<path d="M78262 73436
L78712 73436
" />
<path d="M78853 72986
L78853 73577
" />
<path d="M78853 73014
L78909 72986
L79022 72986
L79078 73014
L79106 73042
L79134 73099
L79134 73267
L79106 73323
L79078 73352
L79022 73380
L78909 73380
L78853 73352
" />
<path d="M79640 73352
L79584 73380
L79472 73380
L79415 73352
L79387 73323
L79359 73267
L79359 73099
L79387 73042
L79415 73014
L79472 72986
L79584 72986
L79640 73014
" />
<path d="M79894 73380
L79894 72789
" />
<path d="M79894 73014
L79950 72986
L80062 72986
L80118 73014
L80147 73042
L80175 73099
L80175 73267
L80147 73323
L80118 73352
L80062 73380
L79950 73380
L79894 73352
" />
</g>
<g style="fill:#000000; fill-opacity:0.0; 
stroke:#000000; stroke-width:39.3701; stroke-opacity:1; 
stroke-linecap:round; stroke-linejoin:round;">
</g>
<g style="fill:#000000; fill-opacity:0.0; 
stroke:#000000; stroke-width:59.0551; stroke-opacity:1; 
stroke-linecap:round; stroke-linejoin:round;">
<path d="M69685 71459
L112205 71459
" />
</g>
<g style="fill:#000000; fill-opacity:0.0; 
stroke:#000000; stroke-width:39.3701; stroke-opacity:1; 
stroke-linecap:round; stroke-linejoin:round;">
</g>
<g style="fill:#000000; fill-opacity:0.0; 
stroke:#000000; stroke-width:59.0551; stroke-opacity:1; 
stroke-linecap:round; stroke-linejoin:round;">
<path d="M70192 72289
L70276 72317
L70417 72317
L70473 72289
L70501 72260
L70529 72204
L70529 72148
L70501 72092
L70473 72064
L70417 72036
L70304 72007
L70248 71979
L70220 71951
L70192 71895
L70192 71839
L70220 71782
L70248 71754
L70304 71726
L70445 71726
L70529 71754
" />
<path d="M70782 72317
L70782 71726
" />
<path d="M71035 72317
L71035 72007
L71007 71951
L70951 71923
L70867 71923
L70810 71951
L70782 71979
" />
<path d="M71541 72289
L71485 72317
L71373 72317
L71316 72289
L71288 72232
L71288 72007
L71316 71951
L71373 71923
L71485 71923
L71541 71951
L71570 72007
L71570 72064
L71288 72120
" />
<path d="M72048 72289
L71991 72317
L71879 72317
L71823 72289
L71795 72232
L71795 72007
L71823 71951
L71879 71923
L71991 71923
L72048 71951
L72076 72007
L72076 72064
L71795 72120
" />
<path d="M72244 71923
L72469 71923
" />
<path d="M72329 71726
L72329 72232
L72357 72289
L72413 72317
L72469 72317
" />
<path d="M72666 72260
L72694 72289
L72666 72317
L72638 72289
L72666 72260
L72666 72317
" />
<path d="M72666 71951
L72694 71979
L72666 72007
L72638 71979
L72666 71951
L72666 72007
" />
</g>
<g style="fill:#000000; fill-opacity:0.0; 
stroke:#000000; stroke-width:39.3701; stroke-opacity:1; 
stroke-linecap:round; stroke-linejoin:round;">
</g>
<g style="fill:#000000; fill-opacity:0.0; 
stroke:#000000; stroke-width:59.0551; stroke-opacity:1; 
stroke-linecap:round; stroke-linejoin:round;">
<path d="M77559 75396
L77559 76577
" />
</g>
<g style="fill:#000000; fill-opacity:0.0; 
stroke:#000000; stroke-width:39.3701; stroke-opacity:1; 
stroke-linecap:round; stroke-linejoin:round;">
</g>
<g style="fill:#000000; fill-opacity:0.0; 
stroke:#000000; stroke-width:59.0551; stroke-opacity:1; 
stroke-linecap:round; stroke-linejoin:round;">
<path d="M102756 75396
L102756 77955
" />
<path d="M44465 46340
L72465 46340
" />
<path d="M72465 46340
L72465 36340
" />
<path d="M72465 36340
L44465 36340
" />
<path d="M44465 36340
L44465 46340
" />
</g>
<g style="fill:#000000; fill-opacity:0.0; 
stroke:#000000; stroke-width:40; stroke-opacity:1; 
stroke-linecap:round; stroke-linejoin:round;">
<path d="M56849 44449
L56649 44449
" />
<path d="M56749 44449
L56749 44099
L56715 44149
L56682 44183
L56649 44199
" />
<path d="M57149 44099
L57082 44099
L57049 44116
L57032 44133
L56999 44183
L56982 44249
L56982 44383
L56999 44416
L57015 44433
L57049 44449
L57115 44449
L57149 44433
L57165 44416
L57182 44383
L57182 44299
L57165 44266
L57149 44249
L57115 44233
L57049 44233
L57015 44249
L56999 44266
L56982 44299
" />
<path d="M57332 44449
L57332 44099
L57449 44349
L57565 44099
L57565 44449
" />
<path d="M57732 44449
L57732 44099
" />
<path d="M57732 44266
L57932 44266
" />
<path d="M57932 44449
L57932 44099
" />
<path d="M58065 44216
L58249 44216
L58065 44449
L58249 44449
" />
</g>
<g style="fill:#000000; fill-opacity:0.0; 
stroke:#000000; stroke-width:50; stroke-opacity:1; 
stroke-linecap:round; stroke-linejoin:round;">
<path d="M54807 41320
L55117 41320
L54950 41511
L55022 41511
L55069 41534
L55093 41558
L55117 41606
L55117 41725
L55093 41773
L55069 41796
L55022 41820
L54879 41820
L54831 41796
L54807 41773
" />
<path d="M55307 41368
L55331 41344
L55379 41320
L55498 41320
L55545 41344
L55569 41368
L55593 41415
L55593 41463
L55569 41534
L55284 41820
L55593 41820
" />
<path d="M55807 41773
L55831 41796
L55807 41820
L55784 41796
L55807 41773
L55807 41820
" />
<path d="M55998 41320
L56331 41320
L56117 41820
" />
<path d="M56736 41320
L56641 41320
L56593 41344
L56569 41368
L56522 41439
L56498 41534
L56498 41725
L56522 41773
L56545 41796
L56593 41820
L56688 41820
L56736 41796
L56760 41773
L56784 41725
L56784 41606
L56760 41558
L56736 41534
L56688 41511
L56593 41511
L56545 41534
L56522 41558
L56498 41606
" />
<path d="M57069 41534
L57022 41511
L56998 41487
L56974 41439
L56974 41415
L56998 41368
L57022 41344
L57069 41320
L57164 41320
L57212 41344
L57236 41368
L57260 41415
L57260 41439
L57236 41487
L57212 41511
L57164 41534
L57069 41534
L57022 41558
L56998 41582
L56974 41630
L56974 41725
L56998 41773
L57022 41796
L57069 41820
L57164 41820
L57212 41796
L57236 41773
L57260 41725
L57260 41630
L57236 41582
L57212 41558
L57164 41534
" />
<path d="M57474 41820
L57474 41320
" />
<path d="M57522 41630
L57664 41820
" />
<path d="M57664 41487
L57474 41677
" />
<path d="M57879 41820
L57879 41320
" />
<path d="M57879 41558
L58164 41558
" />
<path d="M58164 41820
L58164 41320
" />
<path d="M58355 41487
L58617 41487
L58355 41820
L58617 41820
" />
<path d="M60585 40995
L60811 40768
L60725 41005
L60962 40919
L60736 41145
" />
<path d="M60844 41253
L61070 41027
" />
<path d="M60973 41382
L61005 41156
" />
<path d="M61199 41156
L60941 41156
" />
<path d="M61264 41264
L61286 41264
L61318 41275
L61372 41329
L61382 41361
L61382 41382
L61372 41415
L61350 41436
L61307 41458
L61048 41458
L61189 41598
" />
<path d="M61555 41512
L61576 41533
L61587 41566
L61587 41587
L61576 41619
L61544 41673
L61490 41727
L61436 41760
L61404 41770
L61382 41770
L61350 41760
L61329 41738
L61318 41706
L61318 41684
L61329 41652
L61361 41598
L61415 41544
L61469 41512
L61501 41501
L61523 41501
L61555 41512
" />
<path d="M61501 41910
L61727 41684
L61781 41738
L61803 41781
L61803 41824
L61792 41857
L61760 41910
L61727 41943
L61673 41975
L61641 41986
L61598 41986
L61555 41964
L61501 41910
" />
<path d="M61932 41889
L61857 42266
" />
<path d="M62083 42040
L61706 42115
" />
<path d="M62137 42137
L62158 42137
L62191 42147
L62244 42201
L62255 42234
L62255 42255
L62244 42288
L62223 42309
L62180 42331
L61921 42331
L62061 42471
" />
<path d="M62492 42449
L62385 42341
L62266 42438
L62288 42438
L62320 42449
L62374 42503
L62385 42535
L62385 42557
L62374 42589
L62320 42643
L62288 42654
L62266 42654
L62234 42643
L62180 42589
L62169 42557
L62169 42535
" />
<path d="M62697 42654
L62654 42611
L62622 42600
L62600 42600
L62546 42611
L62492 42643
L62406 42729
L62395 42762
L62395 42783
L62406 42816
L62449 42859
L62482 42869
L62503 42869
L62535 42859
L62589 42805
L62600 42772
L62600 42751
L62589 42719
L62546 42675
L62514 42665
L62492 42665
L62460 42675
" />
<path d="M62783 42740
L62632 43042
L62934 42891
" />
<path d="M62891 43300
L62783 43193
L63009 42966
" />
<path d="M62966 43376
L63193 43150
" />
<path d="M63085 43257
L63214 43387
" />
<path d="M63096 43505
L63322 43279
" />
<path d="M63408 43365
L63559 43516
L63236 43645
" />
</g>
<g style="fill:#000000; fill-opacity:0.0; 
stroke:#000000; stroke-width:59.0551; stroke-opacity:1; 
stroke-linecap:round; stroke-linejoin:round;">
<path d="M52761 45122
L52161 45122
L52590 44922
L52161 44722
L52761 44722
" />
<path d="M52761 44436
L52161 44436
" />
<path d="M52761 44093
L52418 44350
" />
<path d="M52161 44093
L52504 44436
" />
<path d="M52761 43550
L52761 43836
L52161 43836
" />
<path d="M52161 43236
L52161 43179
L52190 43122
L52218 43093
L52275 43065
L52390 43036
L52532 43036
L52647 43065
L52704 43093
L52732 43122
L52761 43179
L52761 43236
L52732 43293
L52704 43322
L52647 43350
L52532 43379
L52390 43379
L52275 43350
L52218 43322
L52190 43293
L52161 43236
" />
<path d="M52361 42522
L52761 42522
" />
<path d="M52132 42665
L52561 42807
L52561 42436
" />
<path d="M52161 42265
L52161 41865
L52761 42265
L52761 41865
" />
<path d="M52161 41693
L52161 41322
L52390 41522
L52390 41436
L52418 41379
L52447 41350
L52504 41322
L52647 41322
L52704 41350
L52732 41379
L52761 41436
L52761 41607
L52732 41665
L52704 41693
" />
<path d="M52218 41093
L52190 41065
L52161 41007
L52161 40865
L52190 40807
L52218 40779
L52275 40750
L52332 40750
L52418 40779
L52761 41122
L52761 40750
" />
<path d="M52161 40579
L52761 40379
L52161 40179
" />
<path d="M52761 39693
L52761 39979
L52161 39979
" />
<path d="M52704 39150
L52732 39179
L52761 39264
L52761 39322
L52732 39407
L52675 39464
L52618 39493
L52504 39522
L52418 39522
L52304 39493
L52247 39464
L52190 39407
L52161 39322
L52161 39264
L52190 39179
L52218 39150
" />
<path d="M52361 38636
L52761 38636
" />
<path d="M52132 38779
L52561 38922
L52561 38550
" />
<path d="M51044 40213
L51044 40176
L51062 40138
L51081 40119
L51119 40101
L51194 40082
L51287 40082
L51362 40101
L51400 40119
L51419 40138
L51437 40176
L51437 40213
L51419 40251
L51400 40269
L51362 40288
L51287 40307
L51194 40307
L51119 40288
L51081 40269
L51062 40251
L51044 40213
" />
<path d="M51400 39913
L51419 39895
L51437 39913
L51419 39932
L51400 39913
L51437 39913
" />
<path d="M51437 39520
L51437 39745
" />
<path d="M51437 39632
L51044 39632
L51100 39670
L51137 39707
L51156 39745
" />
<path d="M51175 39182
L51437 39182
" />
<path d="M51175 39351
L51381 39351
L51419 39332
L51437 39295
L51437 39238
L51419 39201
L51400 39182
" />
<path d="M51231 38863
L51231 38995
" />
<path d="M51437 38995
L51044 38995
L51044 38807
" />
<path d="M50455 39711
L50474 39730
L50493 39786
L50493 39823
L50474 39880
L50436 39917
L50399 39936
L50324 39955
L50268 39955
L50193 39936
L50155 39917
L50118 39880
L50099 39823
L50099 39786
L50118 39730
L50136 39711
" />
<path d="M50493 39336
L50493 39561
" />
<path d="M50493 39448
L50099 39448
L50155 39486
L50193 39523
L50211 39561
" />
<path d="M59815 44666
L59853 44666
L59890 44685
L59909 44703
L59928 44741
L59947 44816
L59947 44910
L59928 44985
L59909 45022
L59890 45041
L59853 45059
L59815 45059
L59778 45041
L59759 45022
L59740 44985
L59722 44910
L59722 44816
L59740 44741
L59759 44703
L59778 44685
L59815 44666
" />
<path d="M60115 45022
L60134 45041
L60115 45059
L60097 45041
L60115 45022
L60115 45059
" />
<path d="M60509 45059
L60284 45059
" />
<path d="M60396 45059
L60396 44666
L60359 44722
L60321 44760
L60284 44778
" />
<path d="M60846 44797
L60846 45059
" />
<path d="M60678 44797
L60678 45003
L60696 45041
L60734 45059
L60790 45059
L60828 45041
L60846 45022
" />
<path d="M61165 44853
L61034 44853
" />
<path d="M61034 45059
L61034 44666
L61221 44666
" />
<path d="M60396 43841
L60378 43860
L60321 43878
L60284 43878
L60228 43860
L60190 43822
L60172 43785
L60153 43710
L60153 43653
L60172 43578
L60190 43541
L60228 43503
L60284 43485
L60321 43485
L60378 43503
L60396 43522
" />
<path d="M60734 43616
L60734 43878
" />
<path d="M60640 43466
L60546 43747
L60790 43747
" />
<path d="M58012 41197
L58012 41160
L58031 41122
L58050 41104
L58087 41085
L58162 41066
L58256 41066
L58331 41085
L58368 41104
L58387 41122
L58406 41160
L58406 41197
L58387 41235
L58368 41254
L58331 41272
L58256 41291
L58162 41291
L58087 41272
L58050 41254
L58031 41235
L58012 41197
" />
<path d="M58368 40898
L58387 40879
L58406 40898
L58387 40916
L58368 40898
L58406 40898
" />
<path d="M58406 40504
L58406 40729
" />
<path d="M58406 40616
L58012 40616
L58068 40654
L58106 40691
L58125 40729
" />
<path d="M58143 40166
L58406 40166
" />
<path d="M58143 40335
L58350 40335
L58387 40316
L58406 40279
L58406 40223
L58387 40185
L58368 40166
" />
<path d="M58200 39848
L58200 39979
" />
<path d="M58406 39979
L58012 39979
L58012 39791
" />
<path d="M58368 39475
L58387 39493
L58406 39550
L58406 39587
L58387 39643
L58350 39681
L58312 39700
L58237 39718
L58181 39718
L58106 39700
L58068 39681
L58031 39643
L58012 39587
L58012 39550
L58031 39493
L58050 39475
" />
<path d="M58012 39343
L58012 39081
L58406 39250
" />
<path d="M59233 40961
L59233 40924
L59251 40886
L59270 40868
L59308 40849
L59383 40830
L59476 40830
L59551 40849
L59589 40868
L59608 40886
L59626 40924
L59626 40961
L59608 40999
L59589 41017
L59551 41036
L59476 41055
L59383 41055
L59308 41036
L59270 41017
L59251 40999
L59233 40961
" />
<path d="M59589 40661
L59608 40643
L59626 40661
L59608 40680
L59589 40661
L59626 40661
" />
<path d="M59626 40268
L59626 40493
" />
<path d="M59626 40380
L59233 40380
L59289 40418
L59326 40455
L59345 40493
" />
<path d="M59364 39930
L59626 39930
" />
<path d="M59364 40099
L59570 40099
L59608 40080
L59626 40043
L59626 39986
L59608 39949
L59589 39930
" />
<path d="M59420 39611
L59420 39743
" />
<path d="M59626 39743
L59233 39743
L59233 39555
" />
<path d="M59077 39475
L59096 39493
L59115 39550
L59115 39587
L59096 39643
L59058 39681
L59021 39700
L58946 39718
L58890 39718
L58815 39700
L58777 39681
L58740 39643
L58721 39587
L58721 39550
L58740 39493
L58758 39475
" />
<path d="M58890 39250
L58871 39287
L58852 39306
L58815 39325
L58796 39325
L58758 39306
L58740 39287
L58721 39250
L58721 39175
L58740 39137
L58758 39118
L58796 39100
L58815 39100
L58852 39118
L58871 39137
L58890 39175
L58890 39250
L58908 39287
L58927 39306
L58965 39325
L59040 39325
L59077 39306
L59096 39287
L59115 39250
L59115 39175
L59096 39137
L59077 39118
L59040 39100
L58965 39100
L58927 39118
L58908 39137
L58890 39175
" />
<path d="M65563 43967
L65601 43967
L65638 43986
L65657 44004
L65676 44042
L65695 44117
L65695 44211
L65676 44286
L65657 44323
L65638 44342
L65601 44361
L65563 44361
L65526 44342
L65507 44323
L65488 44286
L65470 44211
L65470 44117
L65488 44042
L65507 44004
L65526 43986
L65563 43967
" />
<path d="M65863 44323
L65882 44342
L65863 44361
L65845 44342
L65863 44323
L65863 44361
" />
<path d="M66257 44361
L66032 44361
" />
<path d="M66145 44361
L66145 43967
L66107 44023
L66070 44061
L66032 44079
" />
<path d="M66594 44098
L66594 44361
" />
<path d="M66426 44098
L66426 44304
L66444 44342
L66482 44361
L66538 44361
L66576 44342
L66594 44323
" />
<path d="M66913 44154
L66782 44154
" />
<path d="M66782 44361
L66782 43967
L66969 43967
" />
<path d="M66145 43142
L66126 43161
L66070 43180
L66032 43180
L65976 43161
L65938 43123
L65920 43086
L65901 43011
L65901 42955
L65920 42880
L65938 42842
L65976 42805
L66032 42786
L66070 42786
L66126 42805
L66145 42823
" />
<path d="M66332 43180
L66407 43180
L66444 43161
L66463 43142
L66501 43086
L66519 43011
L66519 42861
L66501 42823
L66482 42805
L66444 42786
L66369 42786
L66332 42805
L66313 42823
L66294 42861
L66294 42955
L66313 42992
L66332 43011
L66369 43030
L66444 43030
L66482 43011
L66501 42992
L66519 42955
" />
<path d="M57345 42892
L57364 42874
L57401 42855
L57495 42855
L57532 42874
L57551 42892
L57570 42930
L57570 42967
L57551 43023
L57326 43248
L57570 43248
" />
<path d="M57720 42892
L57739 42874
L57776 42855
L57870 42855
L57907 42874
L57926 42892
L57945 42930
L57945 42967
L57926 43023
L57701 43248
L57945 43248
" />
<path d="M58113 42986
L58113 43380
" />
<path d="M58113 43005
L58151 42986
L58226 42986
L58263 43005
L58282 43023
L58301 43061
L58301 43173
L58282 43211
L58263 43230
L58226 43248
L58151 43248
L58113 43230
" />
<path d="M58601 43042
L58470 43042
" />
<path d="M58470 43248
L58470 42855
L58657 42855
" />
<path d="M58841 42620
L58822 42639
L58766 42658
L58728 42658
L58672 42639
L58635 42602
L58616 42564
L58597 42489
L58597 42433
L58616 42358
L58635 42320
L58672 42283
L58728 42264
L58766 42264
L58822 42283
L58841 42302
" />
<path d="M59216 42658
L58991 42658
" />
<path d="M59103 42658
L59103 42264
L59066 42320
L59028 42358
L58991 42377
" />
<path d="M59460 42264
L59497 42264
L59535 42283
L59553 42302
L59572 42339
L59591 42414
L59591 42508
L59572 42583
L59553 42620
L59535 42639
L59497 42658
L59460 42658
L59422 42639
L59403 42620
L59385 42583
L59366 42508
L59366 42414
L59385 42339
L59403 42302
L59422 42283
L59460 42264
" />
<path d="M55888 42892
L55907 42874
L55944 42855
L56038 42855
L56076 42874
L56094 42892
L56113 42930
L56113 42967
L56094 43023
L55869 43248
L56113 43248
" />
<path d="M56263 42892
L56282 42874
L56319 42855
L56413 42855
L56451 42874
L56469 42892
L56488 42930
L56488 42967
L56469 43023
L56244 43248
L56488 43248
" />
<path d="M56657 42986
L56657 43380
" />
<path d="M56657 43005
L56694 42986
L56769 42986
L56807 43005
L56826 43023
L56844 43061
L56844 43173
L56826 43211
L56807 43230
L56769 43248
L56694 43248
L56657 43230
" />
<path d="M57144 43042
L57013 43042
" />
<path d="M57013 43248
L57013 42855
L57200 42855
" />
<path d="M55258 42620
L55239 42639
L55183 42658
L55146 42658
L55089 42639
L55052 42602
L55033 42564
L55014 42489
L55014 42433
L55033 42358
L55052 42320
L55089 42283
L55146 42264
L55183 42264
L55239 42283
L55258 42302
" />
<path d="M55633 42658
L55408 42658
" />
<path d="M55521 42658
L55521 42264
L55483 42320
L55446 42358
L55408 42377
" />
<path d="M56008 42658
L55783 42658
" />
<path d="M55896 42658
L55896 42264
L55858 42320
L55821 42358
L55783 42377
" />
<path d="M53408 44154
L53445 44154
L53483 44173
L53502 44191
L53520 44229
L53539 44304
L53539 44398
L53520 44473
L53502 44510
L53483 44529
L53445 44548
L53408 44548
L53370 44529
L53352 44510
L53333 44473
L53314 44398
L53314 44304
L53333 44229
L53352 44191
L53370 44173
L53408 44154
" />
<path d="M53708 44510
L53727 44529
L53708 44548
L53689 44529
L53708 44510
L53708 44548
" />
<path d="M54101 44548
L53877 44548
" />
<path d="M53989 44548
L53989 44154
L53952 44210
L53914 44248
L53877 44266
" />
<path d="M54439 44285
L54439 44548
" />
<path d="M54270 44285
L54270 44491
L54289 44529
L54326 44548
L54383 44548
L54420 44529
L54439 44510
" />
<path d="M54758 44341
L54626 44341
" />
<path d="M54626 44548
L54626 44154
L54814 44154
" />
<path d="M51321 44471
L51302 44490
L51246 44508
L51209 44508
L51152 44490
L51115 44452
L51096 44415
L51077 44340
L51077 44283
L51096 44208
L51115 44171
L51152 44133
L51209 44115
L51246 44115
L51302 44133
L51321 44152
" />
<path d="M51696 44508
L51471 44508
" />
<path d="M51584 44508
L51584 44115
L51546 44171
L51509 44208
L51471 44227
" />
<path d="M51846 44152
L51865 44133
L51902 44115
L51996 44115
L52034 44133
L52052 44152
L52071 44190
L52071 44227
L52052 44283
L51827 44508
L52071 44508
" />
<path d="M48777 42518
L48795 42500
L48833 42481
L48927 42481
L48964 42500
L48983 42518
L49002 42556
L49002 42593
L48983 42649
L48758 42874
L49002 42874
" />
<path d="M49170 42837
L49189 42856
L49170 42874
L49152 42856
L49170 42837
L49170 42874
" />
<path d="M49339 42518
L49358 42500
L49395 42481
L49489 42481
L49527 42500
L49545 42518
L49564 42556
L49564 42593
L49545 42649
L49320 42874
L49564 42874
" />
<path d="M49902 42612
L49902 42874
" />
<path d="M49733 42612
L49733 42818
L49752 42856
L49789 42874
L49845 42874
L49883 42856
L49902 42837
" />
<path d="M50220 42668
L50089 42668
" />
<path d="M50089 42874
L50089 42481
L50276 42481
" />
<path d="M49461 44156
L49443 44175
L49386 44193
L49349 44193
L49293 44175
L49255 44137
L49236 44100
L49218 44025
L49218 43968
L49236 43893
L49255 43856
L49293 43818
L49349 43800
L49386 43800
L49443 43818
L49461 43837
" />
<path d="M49611 43837
L49630 43818
L49668 43800
L49761 43800
L49799 43818
L49818 43837
L49836 43875
L49836 43912
L49818 43968
L49593 44193
L49836 44193
" />
<path d="M48404 42236
L48385 42217
L48367 42180
L48367 42086
L48385 42049
L48404 42030
L48442 42011
L48479 42011
L48535 42030
L48760 42255
L48760 42011
" />
<path d="M48723 41842
L48742 41824
L48760 41842
L48742 41861
L48723 41842
L48760 41842
" />
<path d="M48404 41674
L48385 41655
L48367 41617
L48367 41524
L48385 41486
L48404 41467
L48442 41449
L48479 41449
L48535 41467
L48760 41692
L48760 41449
" />
<path d="M48498 41111
L48760 41111
" />
<path d="M48498 41280
L48704 41280
L48742 41261
L48760 41224
L48760 41167
L48742 41130
L48723 41111
" />
<path d="M48554 40793
L48554 40924
" />
<path d="M48760 40924
L48367 40924
L48367 40736
" />
<path d="M49943 41601
L49962 41619
L49981 41676
L49981 41713
L49962 41769
L49925 41807
L49887 41826
L49812 41844
L49756 41844
L49681 41826
L49643 41807
L49606 41769
L49587 41713
L49587 41676
L49606 41619
L49625 41601
" />
<path d="M49587 41469
L49587 41226
L49737 41357
L49737 41301
L49756 41263
L49775 41244
L49812 41226
L49906 41226
L49943 41244
L49962 41263
L49981 41301
L49981 41413
L49962 41451
L49943 41469
" />
<path d="M65622 41969
L65660 41969
L65697 41988
L65716 42006
L65735 42044
L65754 42119
L65754 42213
L65735 42288
L65716 42325
L65697 42344
L65660 42363
L65622 42363
L65585 42344
L65566 42325
L65547 42288
L65529 42213
L65529 42119
L65547 42044
L65566 42006
L65585 41988
L65622 41969
" />
<path d="M65922 42325
L65941 42344
L65922 42363
L65904 42344
L65922 42325
L65922 42363
" />
<path d="M66316 42363
L66091 42363
" />
<path d="M66204 42363
L66204 41969
L66166 42025
L66129 42063
L66091 42081
" />
<path d="M66654 42100
L66654 42363
" />
<path d="M66485 42100
L66485 42306
L66504 42344
L66541 42363
L66597 42363
L66635 42344
L66654 42325
" />
<path d="M66972 42156
L66841 42156
" />
<path d="M66841 42363
L66841 41969
L67028 41969
" />
<path d="M66204 41144
L66185 41163
L66129 41182
L66091 41182
L66035 41163
L65997 41125
L65979 41088
L65960 41013
L65960 40957
L65979 40882
L65997 40844
L66035 40807
L66091 40788
L66129 40788
L66185 40807
L66204 40825
" />
<path d="M66560 40788
L66372 40788
L66354 40975
L66372 40957
L66410 40938
L66504 40938
L66541 40957
L66560 40975
L66579 41013
L66579 41107
L66560 41144
L66541 41163
L66504 41182
L66410 41182
L66372 41163
L66354 41144
" />
<path d="M56554 40937
L56535 40918
L56516 40881
L56516 40787
L56535 40749
L56554 40731
L56591 40712
L56629 40712
L56685 40731
L56910 40956
L56910 40712
" />
<path d="M56872 40543
L56891 40524
L56910 40543
L56891 40562
L56872 40543
L56910 40543
" />
<path d="M56554 40374
L56535 40356
L56516 40318
L56516 40224
L56535 40187
L56554 40168
L56591 40149
L56629 40149
L56685 40168
L56910 40393
L56910 40149
" />
<path d="M56647 39812
L56910 39812
" />
<path d="M56647 39981
L56854 39981
L56891 39962
L56910 39925
L56910 39868
L56891 39831
L56872 39812
" />
<path d="M56704 39493
L56704 39625
" />
<path d="M56910 39625
L56516 39625
L56516 39437
" />
<path d="M56872 39081
L56891 39100
L56910 39156
L56910 39193
L56891 39250
L56854 39287
L56816 39306
L56741 39325
L56685 39325
L56610 39306
L56572 39287
L56535 39250
L56516 39193
L56516 39156
L56535 39100
L56554 39081
" />
<path d="M56516 38743
L56516 38818
L56535 38856
L56554 38875
L56610 38912
L56685 38931
L56835 38931
L56872 38912
L56891 38893
L56910 38856
L56910 38781
L56891 38743
L56872 38725
L56835 38706
L56741 38706
L56704 38725
L56685 38743
L56666 38781
L56666 38856
L56685 38893
L56704 38912
L56741 38931
" />
<path d="M45582 38360
L45582 38491
" />
<path d="M45788 38491
L45394 38491
L45394 38303
" />
<path d="M45394 38153
L45713 38153
L45750 38135
L45769 38116
L45788 38078
L45788 38003
L45769 37966
L45750 37947
L45713 37928
L45394 37928
" />
<path d="M45769 37760
L45788 37703
L45788 37610
L45769 37572
L45750 37553
L45713 37535
L45675 37535
L45638 37553
L45619 37572
L45600 37610
L45582 37685
L45563 37722
L45544 37741
L45507 37760
L45469 37760
L45432 37741
L45413 37722
L45394 37685
L45394 37591
L45413 37535
" />
<path d="M45582 37366
L45582 37235
" />
<path d="M45788 37178
L45788 37366
L45394 37366
L45394 37178
" />
<path d="M45013 38878
L44881 38691
" />
<path d="M44788 38878
L44788 38485
L44938 38485
L44975 38503
L44994 38522
L45013 38560
L45013 38616
L44994 38653
L44975 38672
L44938 38691
L44788 38691
" />
<path d="M45388 38878
L45163 38878
" />
<path d="M45275 38878
L45275 38485
L45238 38541
L45200 38578
L45163 38597
" />
<path d="M56083 39514
L55896 39645
" />
<path d="M56083 39739
L55689 39739
L55689 39589
L55708 39551
L55727 39533
L55764 39514
L55821 39514
L55858 39533
L55877 39551
L55896 39589
L55896 39739
" />
<path d="M55727 39364
L55708 39345
L55689 39308
L55689 39214
L55708 39176
L55727 39158
L55764 39139
L55802 39139
L55858 39158
L56083 39383
L56083 39139
" />
<path d="M57474 41008
L57737 41008
" />
<path d="M57324 41102
L57605 41196
L57605 40952
" />
<path d="M57343 40839
L57343 40577
L57737 40746
" />
<path d="M57343 40352
L57343 40314
L57362 40277
L57380 40258
L57418 40239
L57493 40221
L57587 40221
L57662 40239
L57699 40258
L57718 40277
L57737 40314
L57737 40352
L57718 40389
L57699 40408
L57662 40427
L57587 40446
L57493 40446
L57418 40427
L57380 40408
L57362 40389
L57343 40352
" />
<path d="M57737 39827
L57549 39958
" />
<path d="M57737 40052
L57343 40052
L57343 39902
L57362 39865
L57380 39846
L57418 39827
L57474 39827
L57512 39846
L57530 39865
L57549 39902
L57549 40052
" />
<path d="M57697 39553
L57510 39685
" />
<path d="M57697 39778
L57304 39778
L57304 39628
L57322 39591
L57341 39572
L57379 39553
L57435 39553
L57472 39572
L57491 39591
L57510 39628
L57510 39778
" />
<path d="M57304 39422
L57304 39178
L57454 39310
L57454 39253
L57472 39216
L57491 39197
L57529 39178
L57622 39178
L57660 39197
L57679 39216
L57697 39253
L57697 39366
L57679 39403
L57660 39422
" />
<path d="M54822 40405
L54634 40536
" />
<path d="M54822 40630
L54428 40630
L54428 40480
L54447 40443
L54466 40424
L54503 40405
L54559 40405
L54597 40424
L54616 40443
L54634 40480
L54634 40630
" />
<path d="M54559 40068
L54822 40068
" />
<path d="M54409 40161
L54691 40255
L54691 40011
" />
<path d="M49051 39154
L49295 39154
L49163 39304
L49220 39304
L49257 39323
L49276 39341
L49295 39379
L49295 39473
L49276 39510
L49257 39529
L49220 39548
L49107 39548
L49070 39529
L49051 39510
" />
<path d="M49426 39154
L49670 39154
L49538 39304
L49595 39304
L49632 39323
L49651 39341
L49670 39379
L49670 39473
L49651 39510
L49632 39529
L49595 39548
L49482 39548
L49445 39529
L49426 39510
" />
<path d="M50063 39548
L49932 39360
" />
<path d="M49838 39548
L49838 39154
L49988 39154
L50026 39173
L50044 39191
L50063 39229
L50063 39285
L50044 39323
L50026 39341
L49988 39360
L49838 39360
" />
<path d="M48615 39518
L48484 39331
" />
<path d="M48390 39518
L48390 39124
L48540 39124
L48577 39143
L48596 39162
L48615 39199
L48615 39256
L48596 39293
L48577 39312
L48540 39331
L48390 39331
" />
<path d="M48971 39124
L48784 39124
L48765 39312
L48784 39293
L48821 39274
L48915 39274
L48952 39293
L48971 39312
L48990 39349
L48990 39443
L48971 39481
L48952 39499
L48915 39518
L48821 39518
L48784 39499
L48765 39481
" />
<path d="M49090 39902
L49334 39902
L49203 40052
L49259 40052
L49296 40071
L49315 40089
L49334 40127
L49334 40221
L49315 40258
L49296 40277
L49259 40296
L49146 40296
L49109 40277
L49090 40258
" />
<path d="M49465 39902
L49709 39902
L49578 40052
L49634 40052
L49671 40071
L49690 40089
L49709 40127
L49709 40221
L49690 40258
L49671 40277
L49634 40296
L49521 40296
L49484 40277
L49465 40258
" />
<path d="M50103 40296
L49971 40108
" />
<path d="M49878 40296
L49878 39902
L50028 39902
L50065 39921
L50084 39940
L50103 39977
L50103 40033
L50084 40071
L50065 40089
L50028 40108
L49878 40108
" />
<path d="M48645 40276
L48513 40089
" />
<path d="M48420 40276
L48420 39882
L48570 39882
L48607 39901
L48626 39920
L48645 39957
L48645 40014
L48626 40051
L48607 40070
L48570 40089
L48420 40089
" />
<path d="M48982 39882
L48907 39882
L48869 39901
L48851 39920
L48813 39976
L48794 40051
L48794 40201
L48813 40239
L48832 40257
L48869 40276
L48944 40276
L48982 40257
L49001 40239
L49019 40201
L49019 40107
L49001 40070
L48982 40051
L48944 40032
L48869 40032
L48832 40051
L48813 40070
L48794 40107
" />
<path d="M68922 37917
L68922 38180
" />
<path d="M68828 37767
L68735 38048
L68978 38048
" />
<path d="M69091 37786
L69353 37786
L69184 38180
" />
<path d="M69578 37786
L69616 37786
L69653 37805
L69672 37823
L69691 37861
L69709 37936
L69709 38030
L69691 38105
L69672 38142
L69653 38161
L69616 38180
L69578 38180
L69541 38161
L69522 38142
L69503 38105
L69484 38030
L69484 37936
L69503 37861
L69522 37823
L69541 37805
L69578 37786
" />
<path d="M70103 38180
L69972 37992
" />
<path d="M69878 38180
L69878 37786
L70028 37786
L70066 37805
L70084 37823
L70103 37861
L70103 37917
L70084 37955
L70066 37973
L70028 37992
L69878 37992
" />
<path d="M69353 39341
L69222 39154
" />
<path d="M69128 39341
L69128 38947
L69278 38947
L69316 38966
L69334 38985
L69353 39022
L69353 39079
L69334 39116
L69316 39135
L69278 39154
L69128 39154
" />
<path d="M69578 39116
L69541 39097
L69522 39079
L69503 39041
L69503 39022
L69522 38985
L69541 38966
L69578 38947
L69653 38947
L69691 38966
L69709 38985
L69728 39022
L69728 39041
L69709 39079
L69691 39097
L69653 39116
L69578 39116
L69541 39135
L69522 39154
L69503 39191
L69503 39266
L69522 39303
L69541 39322
L69578 39341
L69653 39341
L69691 39322
L69709 39303
L69728 39266
L69728 39191
L69709 39154
L69691 39135
L69653 39116
" />
</g>
<g style="fill:#000000; fill-opacity:0.0; 
stroke:#000000; stroke-width:39.3701; stroke-opacity:1; 
stroke-linecap:round; stroke-linejoin:round;">
<path d="M50974 39901
L50659 39901
" />
<path d="M50974 39271
L50974 39901
" />
<path d="M50659 39271
L50974 39271
" />
<path d="M50659 39901
L50659 39271
" />
<path d="M60147 44448
L60147 44133
" />
<path d="M60777 44448
L60147 44448
" />
<path d="M60777 44133
L60777 44448
" />
<path d="M60147 44133
L60777 44133
" />
<path d="M58061 40029
L58375 40029
" />
<path d="M58061 40659
L58061 40029
" />
<path d="M58375 40659
L58061 40659
" />
<path d="M58375 40029
L58375 40659
" />
<path d="M59074 40659
L58759 40659
" />
<path d="M59074 40029
L59074 40659
" />
<path d="M58759 40029
L59074 40029
" />
<path d="M58759 40659
L58759 40029
" />
<path d="M65895 43750
L65895 43435
" />
<path d="M66525 43750
L65895 43750
" />
<path d="M66525 43435
L66525 43750
" />
<path d="M65895 43435
L66525 43435
" />
<path d="M58228 42332
L58228 42647
" />
<path d="M57598 42332
L58228 42332
" />
<path d="M57598 42647
L57598 42332
" />
<path d="M58228 42647
L57598 42647
" />
<path d="M56348 42647
L56348 42332
" />
<path d="M56978 42647
L56348 42647
" />
<path d="M56978 42332
L56978 42647
" />
<path d="M56348 42332
L56978 42332
" />
<path d="M52352 44498
L52352 44183
" />
<path d="M52982 44498
L52352 44498
" />
<path d="M52982 44183
L52982 44498
" />
<path d="M52352 44183
L52982 44183
" />
<path d="M49911 43141
L49911 43629
" />
<path d="M49124 43141
L49911 43141
" />
<path d="M49124 43629
L49124 43141
" />
<path d="M49911 43629
L49124 43629
" />
<path d="M48919 41122
L49407 41122
" />
<path d="M48919 41909
L48919 41122
" />
<path d="M49407 41909
L48919 41909
" />
<path d="M49407 41122
L49407 41909
" />
<path d="M65954 41751
L65954 41437
" />
<path d="M66584 41751
L65954 41751
" />
<path d="M66584 41437
L66584 41751
" />
<path d="M65954 41437
L66584 41437
" />
<path d="M56468 39694
L56956 39694
" />
<path d="M56468 40482
L56468 39694
" />
<path d="M56956 40482
L56468 40482
" />
<path d="M56956 39694
L56956 40482
" />
<path d="M68120 38750
L68120 38435
" />
<path d="M68120 38592
L67883 38750
" />
<path d="M67883 38435
L68120 38592
" />
<path d="M67883 38750
L67883 38435
" />
<path d="M67568 38356
L68356 38356
" />
<path d="M67568 38828
L67568 38356
" />
<path d="M68356 38828
L67568 38828
" />
<path d="M68356 38356
L68356 38828
" />
<path d="M45312 38238
L44824 38238
" />
<path d="M45312 37450
L45312 38238
" />
<path d="M44824 37450
L45312 37450
" />
<path d="M44824 38238
L44824 37450
" />
<path d="M55748 40019
L56062 40019
" />
<path d="M55748 40649
L55748 40019
" />
<path d="M56062 40649
L55748 40649
" />
<path d="M56062 40019
L56062 40649
" />
<path d="M57677 40659
L57362 40659
" />
<path d="M57677 40029
L57677 40659
" />
<path d="M57362 40029
L57677 40029
" />
<path d="M57362 40659
L57362 40029
" />
<path d="M55372 40654
L55057 40654
" />
<path d="M55372 40025
L55372 40654
" />
<path d="M55057 40025
L55372 40025
" />
<path d="M55057 40654
L55057 40025
" />
<path d="M49202 39498
L49202 39183
" />
<path d="M49832 39498
L49202 39498
" />
<path d="M49832 39183
L49832 39498
" />
<path d="M49202 39183
L49832 39183
" />
<path d="M49202 40246
L49202 39931
" />
<path d="M49832 40246
L49202 40246
" />
<path d="M49832 39931
L49832 40246
" />
<path d="M49202 39931
L49832 39931
" />
<path d="M69734 38435
L69734 38750
" />
<path d="M69104 38435
L69734 38435
" />
<path d="M69104 38750
L69104 38435
" />
<path d="M69734 38750
L69104 38750
" />
<path d="M68228 44074
L68228 43110
" />
<path d="M68011 44299
L67677 44299
" />
<path d="M68228 44074
L68011 44299
" />
<path d="M67677 44299
L67677 43102
" />
<path d="M68228 43102
L67677 43102
" />
</g> 
</svg>
