<?xml version="1.0" standalone="no"?>
 <!DOCTYPE svg PUBLIC "-//W3C//DTD SVG 1.1//EN" 
 "http://www.w3.org/Graphics/SVG/1.1/DTD/svg11.dtd"> 
<svg xmlns="http://www.w3.org/2000/svg" version="1.1" 
    width="29.7002cm" height="21.0007cm" viewBox="0 0 116930 82680 ">
<title>SVG Picture created as T32_ref-F.SilkS.svg date 2017/03/15 16:54:43 </title>
  <desc>Picture generated by PCBNEW </desc>
<g style="fill:#000000; fill-opacity:1;stroke:#000000; stroke-opacity:1;
stroke-linecap:round; stroke-linejoin:round; "
 transform="translate(0 0) scale(1 1)">
</g>
<g style="fill:#000000; fill-opacity:0.0; 
stroke:#000000; stroke-width:-0.000393701; stroke-opacity:1; 
stroke-linecap:round; stroke-linejoin:round;">
</g>
<g style="fill:#000000; fill-opacity:0.0; 
stroke:#000000; stroke-width:39.3701; stroke-opacity:1; 
stroke-linecap:round; stroke-linejoin:round;">
</g>
<g style="fill:#000000; fill-opacity:0.0; 
stroke:#000000; stroke-width:59.0551; stroke-opacity:1; 
stroke-linecap:round; stroke-linejoin:round;">
<rect x="69685.9" y="65357.2" width="42519.7" height="12598.4" rx="0" />
</g>
<g style="fill:#000000; fill-opacity:0.0; 
stroke:#000000; stroke-width:39.3701; stroke-opacity:1; 
stroke-linecap:round; stroke-linejoin:round;">
</g>
<g style="fill:#000000; fill-opacity:0.0; 
stroke:#000000; stroke-width:59.0551; stroke-opacity:1; 
stroke-linecap:round; stroke-linejoin:round;">
<rect x="3937.01" y="3937.01" width="109056" height="74806" rx="0" />
</g>
<g style="fill:#000000; fill-opacity:0.0; 
stroke:#000000; stroke-width:39.3701; stroke-opacity:1; 
stroke-linecap:round; stroke-linejoin:round;">
</g>
<g style="fill:#000000; fill-opacity:0.0; 
stroke:#000000; stroke-width:59.0551; stroke-opacity:1; 
stroke-linecap:round; stroke-linejoin:round;">
<rect x="4724.41" y="4724.41" width="107481" height="73231.2" rx="0" />
</g>
<g style="fill:#000000; fill-opacity:0.0; 
stroke:#000000; stroke-width:39.3701; stroke-opacity:1; 
stroke-linecap:round; stroke-linejoin:round;">
</g>
<g style="fill:#000000; fill-opacity:0.0; 
stroke:#000000; stroke-width:59.0551; stroke-opacity:1; 
stroke-linecap:round; stroke-linejoin:round;">
<path d="M23622 4724
L23622 3937
" />
</g>
<g style="fill:#000000; fill-opacity:0.0; 
stroke:#000000; stroke-width:39.3701; stroke-opacity:1; 
stroke-linecap:round; stroke-linejoin:round;">
</g>
<g style="fill:#000000; fill-opacity:0.0; 
stroke:#000000; stroke-width:59.0551; stroke-opacity:1; 
stroke-linecap:round; stroke-linejoin:round;">
<path d="M43307 4724
L43307 3937
" />
</g>
<g style="fill:#000000; fill-opacity:0.0; 
stroke:#000000; stroke-width:39.3701; stroke-opacity:1; 
stroke-linecap:round; stroke-linejoin:round;">
</g>
<g style="fill:#000000; fill-opacity:0.0; 
stroke:#000000; stroke-width:59.0551; stroke-opacity:1; 
stroke-linecap:round; stroke-linejoin:round;">
<path d="M62992 4724
L62992 3937
" />
</g>
<g style="fill:#000000; fill-opacity:0.0; 
stroke:#000000; stroke-width:39.3701; stroke-opacity:1; 
stroke-linecap:round; stroke-linejoin:round;">
</g>
<g style="fill:#000000; fill-opacity:0.0; 
stroke:#000000; stroke-width:59.0551; stroke-opacity:1; 
stroke-linecap:round; stroke-linejoin:round;">
<path d="M82677 4724
L82677 3937
" />
</g>
<g style="fill:#000000; fill-opacity:0.0; 
stroke:#000000; stroke-width:39.3701; stroke-opacity:1; 
stroke-linecap:round; stroke-linejoin:round;">
</g>
<g style="fill:#000000; fill-opacity:0.0; 
stroke:#000000; stroke-width:59.0551; stroke-opacity:1; 
stroke-linecap:round; stroke-linejoin:round;">
<path d="M102362 4724
L102362 3937
" />
</g>
<g style="fill:#000000; fill-opacity:0.0; 
stroke:#000000; stroke-width:39.3701; stroke-opacity:1; 
stroke-linecap:round; stroke-linejoin:round;">
</g>
<g style="fill:#000000; fill-opacity:0.0; 
stroke:#000000; stroke-width:59.0551; stroke-opacity:1; 
stroke-linecap:round; stroke-linejoin:round;">
<path d="M14169 4562
L13877 4562
" />
<path d="M14023 4562
L14023 4050
L13974 4123
L13925 4172
L13877 4196
" />
</g>
<g style="fill:#000000; fill-opacity:0.0; 
stroke:#000000; stroke-width:39.3701; stroke-opacity:1; 
stroke-linecap:round; stroke-linejoin:round;">
</g>
<g style="fill:#000000; fill-opacity:0.0; 
stroke:#000000; stroke-width:59.0551; stroke-opacity:1; 
stroke-linecap:round; stroke-linejoin:round;">
<path d="M33562 4099
L33586 4074
L33635 4050
L33757 4050
L33805 4074
L33830 4099
L33854 4147
L33854 4196
L33830 4269
L33537 4562
L33854 4562
" />
</g>
<g style="fill:#000000; fill-opacity:0.0; 
stroke:#000000; stroke-width:39.3701; stroke-opacity:1; 
stroke-linecap:round; stroke-linejoin:round;">
</g>
<g style="fill:#000000; fill-opacity:0.0; 
stroke:#000000; stroke-width:59.0551; stroke-opacity:1; 
stroke-linecap:round; stroke-linejoin:round;">
<path d="M53222 4050
L53539 4050
L53368 4245
L53442 4245
L53490 4269
L53515 4294
L53539 4342
L53539 4464
L53515 4513
L53490 4537
L53442 4562
L53295 4562
L53247 4537
L53222 4513
" />
</g>
<g style="fill:#000000; fill-opacity:0.0; 
stroke:#000000; stroke-width:39.3701; stroke-opacity:1; 
stroke-linecap:round; stroke-linejoin:round;">
</g>
<g style="fill:#000000; fill-opacity:0.0; 
stroke:#000000; stroke-width:59.0551; stroke-opacity:1; 
stroke-linecap:round; stroke-linejoin:round;">
<path d="M73175 4221
L73175 4562
" />
<path d="M73053 4026
L72932 4391
L73248 4391
" />
</g>
<g style="fill:#000000; fill-opacity:0.0; 
stroke:#000000; stroke-width:39.3701; stroke-opacity:1; 
stroke-linecap:round; stroke-linejoin:round;">
</g>
<g style="fill:#000000; fill-opacity:0.0; 
stroke:#000000; stroke-width:59.0551; stroke-opacity:1; 
stroke-linecap:round; stroke-linejoin:round;">
<path d="M92885 4050
L92641 4050
L92617 4294
L92641 4269
L92690 4245
L92812 4245
L92860 4269
L92885 4294
L92909 4342
L92909 4464
L92885 4513
L92860 4537
L92812 4562
L92690 4562
L92641 4537
L92617 4513
" />
</g>
<g style="fill:#000000; fill-opacity:0.0; 
stroke:#000000; stroke-width:39.3701; stroke-opacity:1; 
stroke-linecap:round; stroke-linejoin:round;">
</g>
<g style="fill:#000000; fill-opacity:0.0; 
stroke:#000000; stroke-width:59.0551; stroke-opacity:1; 
stroke-linecap:round; stroke-linejoin:round;">
<path d="M112545 4050
L112448 4050
L112399 4074
L112375 4099
L112326 4172
L112302 4269
L112302 4464
L112326 4513
L112350 4537
L112399 4562
L112497 4562
L112545 4537
L112570 4513
L112594 4464
L112594 4342
L112570 4294
L112545 4269
L112497 4245
L112399 4245
L112350 4269
L112326 4294
L112302 4342
" />
</g>
<g style="fill:#000000; fill-opacity:0.0; 
stroke:#000000; stroke-width:39.3701; stroke-opacity:1; 
stroke-linecap:round; stroke-linejoin:round;">
</g>
<g style="fill:#000000; fill-opacity:0.0; 
stroke:#000000; stroke-width:59.0551; stroke-opacity:1; 
stroke-linecap:round; stroke-linejoin:round;">
<path d="M23622 77955
L23622 78742
" />
</g>
<g style="fill:#000000; fill-opacity:0.0; 
stroke:#000000; stroke-width:39.3701; stroke-opacity:1; 
stroke-linecap:round; stroke-linejoin:round;">
</g>
<g style="fill:#000000; fill-opacity:0.0; 
stroke:#000000; stroke-width:59.0551; stroke-opacity:1; 
stroke-linecap:round; stroke-linejoin:round;">
<path d="M43307 77955
L43307 78742
" />
</g>
<g style="fill:#000000; fill-opacity:0.0; 
stroke:#000000; stroke-width:39.3701; stroke-opacity:1; 
stroke-linecap:round; stroke-linejoin:round;">
</g>
<g style="fill:#000000; fill-opacity:0.0; 
stroke:#000000; stroke-width:59.0551; stroke-opacity:1; 
stroke-linecap:round; stroke-linejoin:round;">
<path d="M62992 77955
L62992 78742
" />
</g>
<g style="fill:#000000; fill-opacity:0.0; 
stroke:#000000; stroke-width:39.3701; stroke-opacity:1; 
stroke-linecap:round; stroke-linejoin:round;">
</g>
<g style="fill:#000000; fill-opacity:0.0; 
stroke:#000000; stroke-width:59.0551; stroke-opacity:1; 
stroke-linecap:round; stroke-linejoin:round;">
<path d="M82677 77955
L82677 78742
" />
</g>
<g style="fill:#000000; fill-opacity:0.0; 
stroke:#000000; stroke-width:39.3701; stroke-opacity:1; 
stroke-linecap:round; stroke-linejoin:round;">
</g>
<g style="fill:#000000; fill-opacity:0.0; 
stroke:#000000; stroke-width:59.0551; stroke-opacity:1; 
stroke-linecap:round; stroke-linejoin:round;">
<path d="M102362 77955
L102362 78742
" />
</g>
<g style="fill:#000000; fill-opacity:0.0; 
stroke:#000000; stroke-width:39.3701; stroke-opacity:1; 
stroke-linecap:round; stroke-linejoin:round;">
</g>
<g style="fill:#000000; fill-opacity:0.0; 
stroke:#000000; stroke-width:59.0551; stroke-opacity:1; 
stroke-linecap:round; stroke-linejoin:round;">
<path d="M14169 78580
L13877 78580
" />
<path d="M14023 78580
L14023 78069
L13974 78142
L13925 78190
L13877 78215
" />
</g>
<g style="fill:#000000; fill-opacity:0.0; 
stroke:#000000; stroke-width:39.3701; stroke-opacity:1; 
stroke-linecap:round; stroke-linejoin:round;">
</g>
<g style="fill:#000000; fill-opacity:0.0; 
stroke:#000000; stroke-width:59.0551; stroke-opacity:1; 
stroke-linecap:round; stroke-linejoin:round;">
<path d="M33562 78117
L33586 78093
L33635 78069
L33757 78069
L33805 78093
L33830 78117
L33854 78166
L33854 78215
L33830 78288
L33537 78580
L33854 78580
" />
</g>
<g style="fill:#000000; fill-opacity:0.0; 
stroke:#000000; stroke-width:39.3701; stroke-opacity:1; 
stroke-linecap:round; stroke-linejoin:round;">
</g>
<g style="fill:#000000; fill-opacity:0.0; 
stroke:#000000; stroke-width:59.0551; stroke-opacity:1; 
stroke-linecap:round; stroke-linejoin:round;">
<path d="M53222 78069
L53539 78069
L53368 78263
L53442 78263
L53490 78288
L53515 78312
L53539 78361
L53539 78483
L53515 78532
L53490 78556
L53442 78580
L53295 78580
L53247 78556
L53222 78532
" />
</g>
<g style="fill:#000000; fill-opacity:0.0; 
stroke:#000000; stroke-width:39.3701; stroke-opacity:1; 
stroke-linecap:round; stroke-linejoin:round;">
</g>
<g style="fill:#000000; fill-opacity:0.0; 
stroke:#000000; stroke-width:59.0551; stroke-opacity:1; 
stroke-linecap:round; stroke-linejoin:round;">
<path d="M73175 78239
L73175 78580
" />
<path d="M73053 78044
L72932 78410
L73248 78410
" />
</g>
<g style="fill:#000000; fill-opacity:0.0; 
stroke:#000000; stroke-width:39.3701; stroke-opacity:1; 
stroke-linecap:round; stroke-linejoin:round;">
</g>
<g style="fill:#000000; fill-opacity:0.0; 
stroke:#000000; stroke-width:59.0551; stroke-opacity:1; 
stroke-linecap:round; stroke-linejoin:round;">
<path d="M92885 78069
L92641 78069
L92617 78312
L92641 78288
L92690 78263
L92812 78263
L92860 78288
L92885 78312
L92909 78361
L92909 78483
L92885 78532
L92860 78556
L92812 78580
L92690 78580
L92641 78556
L92617 78532
" />
</g>
<g style="fill:#000000; fill-opacity:0.0; 
stroke:#000000; stroke-width:39.3701; stroke-opacity:1; 
stroke-linecap:round; stroke-linejoin:round;">
</g>
<g style="fill:#000000; fill-opacity:0.0; 
stroke:#000000; stroke-width:59.0551; stroke-opacity:1; 
stroke-linecap:round; stroke-linejoin:round;">
<path d="M112545 78069
L112448 78069
L112399 78093
L112375 78117
L112326 78190
L112302 78288
L112302 78483
L112326 78532
L112350 78556
L112399 78580
L112497 78580
L112545 78556
L112570 78532
L112594 78483
L112594 78361
L112570 78312
L112545 78288
L112497 78263
L112399 78263
L112350 78288
L112326 78312
L112302 78361
" />
</g>
<g style="fill:#000000; fill-opacity:0.0; 
stroke:#000000; stroke-width:39.3701; stroke-opacity:1; 
stroke-linecap:round; stroke-linejoin:round;">
</g>
<g style="fill:#000000; fill-opacity:0.0; 
stroke:#000000; stroke-width:59.0551; stroke-opacity:1; 
stroke-linecap:round; stroke-linejoin:round;">
<path d="M3937 23622
L4724 23622
" />
</g>
<g style="fill:#000000; fill-opacity:0.0; 
stroke:#000000; stroke-width:39.3701; stroke-opacity:1; 
stroke-linecap:round; stroke-linejoin:round;">
</g>
<g style="fill:#000000; fill-opacity:0.0; 
stroke:#000000; stroke-width:59.0551; stroke-opacity:1; 
stroke-linecap:round; stroke-linejoin:round;">
<path d="M3937 43307
L4724 43307
" />
</g>
<g style="fill:#000000; fill-opacity:0.0; 
stroke:#000000; stroke-width:39.3701; stroke-opacity:1; 
stroke-linecap:round; stroke-linejoin:round;">
</g>
<g style="fill:#000000; fill-opacity:0.0; 
stroke:#000000; stroke-width:59.0551; stroke-opacity:1; 
stroke-linecap:round; stroke-linejoin:round;">
<path d="M3937 62992
L4724 62992
" />
</g>
<g style="fill:#000000; fill-opacity:0.0; 
stroke:#000000; stroke-width:39.3701; stroke-opacity:1; 
stroke-linecap:round; stroke-linejoin:round;">
</g>
<g style="fill:#000000; fill-opacity:0.0; 
stroke:#000000; stroke-width:59.0551; stroke-opacity:1; 
stroke-linecap:round; stroke-linejoin:round;">
<path d="M4208 13864
L4452 13864
" />
<path d="M4160 14011
L4330 13499
L4501 14011
" />
</g>
<g style="fill:#000000; fill-opacity:0.0; 
stroke:#000000; stroke-width:39.3701; stroke-opacity:1; 
stroke-linecap:round; stroke-linejoin:round;">
</g>
<g style="fill:#000000; fill-opacity:0.0; 
stroke:#000000; stroke-width:59.0551; stroke-opacity:1; 
stroke-linecap:round; stroke-linejoin:round;">
<path d="M4367 33428
L4440 33452
L4464 33476
L4489 33525
L4489 33598
L4464 33647
L4440 33671
L4391 33696
L4196 33696
L4196 33184
L4367 33184
L4416 33208
L4440 33233
L4464 33281
L4464 33330
L4440 33379
L4416 33403
L4367 33428
L4196 33428
" />
</g>
<g style="fill:#000000; fill-opacity:0.0; 
stroke:#000000; stroke-width:39.3701; stroke-opacity:1; 
stroke-linecap:round; stroke-linejoin:round;">
</g>
<g style="fill:#000000; fill-opacity:0.0; 
stroke:#000000; stroke-width:59.0551; stroke-opacity:1; 
stroke-linecap:round; stroke-linejoin:round;">
<path d="M4489 53332
L4464 53356
L4391 53381
L4342 53381
L4269 53356
L4221 53308
L4196 53259
L4172 53161
L4172 53088
L4196 52991
L4221 52942
L4269 52893
L4342 52869
L4391 52869
L4464 52893
L4489 52918
" />
</g>
<g style="fill:#000000; fill-opacity:0.0; 
stroke:#000000; stroke-width:39.3701; stroke-opacity:1; 
stroke-linecap:round; stroke-linejoin:round;">
</g>
<g style="fill:#000000; fill-opacity:0.0; 
stroke:#000000; stroke-width:59.0551; stroke-opacity:1; 
stroke-linecap:round; stroke-linejoin:round;">
<path d="M4196 73066
L4196 72554
L4318 72554
L4391 72578
L4440 72627
L4464 72676
L4489 72773
L4489 72846
L4464 72944
L4440 72993
L4391 73041
L4318 73066
L4196 73066
" />
</g>
<g style="fill:#000000; fill-opacity:0.0; 
stroke:#000000; stroke-width:39.3701; stroke-opacity:1; 
stroke-linecap:round; stroke-linejoin:round;">
</g>
<g style="fill:#000000; fill-opacity:0.0; 
stroke:#000000; stroke-width:59.0551; stroke-opacity:1; 
stroke-linecap:round; stroke-linejoin:round;">
<path d="M112992 23622
L112205 23622
" />
</g>
<g style="fill:#000000; fill-opacity:0.0; 
stroke:#000000; stroke-width:39.3701; stroke-opacity:1; 
stroke-linecap:round; stroke-linejoin:round;">
</g>
<g style="fill:#000000; fill-opacity:0.0; 
stroke:#000000; stroke-width:59.0551; stroke-opacity:1; 
stroke-linecap:round; stroke-linejoin:round;">
<path d="M112992 43307
L112205 43307
" />
</g>
<g style="fill:#000000; fill-opacity:0.0; 
stroke:#000000; stroke-width:39.3701; stroke-opacity:1; 
stroke-linecap:round; stroke-linejoin:round;">
</g>
<g style="fill:#000000; fill-opacity:0.0; 
stroke:#000000; stroke-width:59.0551; stroke-opacity:1; 
stroke-linecap:round; stroke-linejoin:round;">
<path d="M112992 62992
L112205 62992
" />
</g>
<g style="fill:#000000; fill-opacity:0.0; 
stroke:#000000; stroke-width:39.3701; stroke-opacity:1; 
stroke-linecap:round; stroke-linejoin:round;">
</g>
<g style="fill:#000000; fill-opacity:0.0; 
stroke:#000000; stroke-width:59.0551; stroke-opacity:1; 
stroke-linecap:round; stroke-linejoin:round;">
<path d="M112477 13864
L112721 13864
" />
<path d="M112428 14011
L112599 13499
L112769 14011
" />
</g>
<g style="fill:#000000; fill-opacity:0.0; 
stroke:#000000; stroke-width:39.3701; stroke-opacity:1; 
stroke-linecap:round; stroke-linejoin:round;">
</g>
<g style="fill:#000000; fill-opacity:0.0; 
stroke:#000000; stroke-width:59.0551; stroke-opacity:1; 
stroke-linecap:round; stroke-linejoin:round;">
<path d="M112635 33428
L112708 33452
L112733 33476
L112757 33525
L112757 33598
L112733 33647
L112708 33671
L112660 33696
L112465 33696
L112465 33184
L112635 33184
L112684 33208
L112708 33233
L112733 33281
L112733 33330
L112708 33379
L112684 33403
L112635 33428
L112465 33428
" />
</g>
<g style="fill:#000000; fill-opacity:0.0; 
stroke:#000000; stroke-width:39.3701; stroke-opacity:1; 
stroke-linecap:round; stroke-linejoin:round;">
</g>
<g style="fill:#000000; fill-opacity:0.0; 
stroke:#000000; stroke-width:59.0551; stroke-opacity:1; 
stroke-linecap:round; stroke-linejoin:round;">
<path d="M112757 53332
L112733 53356
L112660 53381
L112611 53381
L112538 53356
L112489 53308
L112465 53259
L112440 53161
L112440 53088
L112465 52991
L112489 52942
L112538 52893
L112611 52869
L112660 52869
L112733 52893
L112757 52918
" />
</g>
<g style="fill:#000000; fill-opacity:0.0; 
stroke:#000000; stroke-width:39.3701; stroke-opacity:1; 
stroke-linecap:round; stroke-linejoin:round;">
</g>
<g style="fill:#000000; fill-opacity:0.0; 
stroke:#000000; stroke-width:59.0551; stroke-opacity:1; 
stroke-linecap:round; stroke-linejoin:round;">
<path d="M112465 73066
L112465 72554
L112587 72554
L112660 72578
L112708 72627
L112733 72676
L112757 72773
L112757 72846
L112733 72944
L112708 72993
L112660 73041
L112587 73066
L112465 73066
" />
</g>
<g style="fill:#000000; fill-opacity:0.0; 
stroke:#000000; stroke-width:39.3701; stroke-opacity:1; 
stroke-linecap:round; stroke-linejoin:round;">
</g>
<g style="fill:#000000; fill-opacity:0.0; 
stroke:#000000; stroke-width:59.0551; stroke-opacity:1; 
stroke-linecap:round; stroke-linejoin:round;">
<path d="M78881 76293
L78881 75703
L79022 75703
L79106 75731
L79162 75787
L79190 75843
L79219 75956
L79219 76040
L79190 76153
L79162 76209
L79106 76265
L79022 76293
L78881 76293
" />
<path d="M79725 76293
L79725 75984
L79697 75928
L79640 75899
L79528 75899
L79472 75928
" />
<path d="M79725 76265
L79669 76293
L79528 76293
L79472 76265
L79444 76209
L79444 76153
L79472 76096
L79528 76068
L79669 76068
L79725 76040
" />
<path d="M79922 75899
L80147 75899
" />
<path d="M80006 75703
L80006 76209
L80034 76265
L80090 76293
L80147 76293
" />
<path d="M80568 76265
L80512 76293
L80400 76293
L80343 76265
L80315 76209
L80315 75984
L80343 75928
L80400 75899
L80512 75899
L80568 75928
L80597 75984
L80597 76040
L80315 76096
" />
<path d="M80850 76237
L80878 76265
L80850 76293
L80822 76265
L80850 76237
L80850 76293
" />
<path d="M80850 75928
L80878 75956
L80850 75984
L80822 75956
L80850 75928
L80850 75984
" />
</g>
<g style="fill:#000000; fill-opacity:0.0; 
stroke:#000000; stroke-width:39.3701; stroke-opacity:1; 
stroke-linecap:round; stroke-linejoin:round;">
</g>
<g style="fill:#000000; fill-opacity:0.0; 
stroke:#000000; stroke-width:59.0551; stroke-opacity:1; 
stroke-linecap:round; stroke-linejoin:round;">
<path d="M69685 76577
L112205 76577
" />
</g>
<g style="fill:#000000; fill-opacity:0.0; 
stroke:#000000; stroke-width:39.3701; stroke-opacity:1; 
stroke-linecap:round; stroke-linejoin:round;">
</g>
<g style="fill:#000000; fill-opacity:0.0; 
stroke:#000000; stroke-width:59.0551; stroke-opacity:1; 
stroke-linecap:round; stroke-linejoin:round;">
<path d="M70220 77395
L70220 76805
" />
<path d="M70557 77395
L70304 77058
" />
<path d="M70557 76805
L70220 77142
" />
<path d="M70810 77395
L70810 77002
" />
<path d="M70810 76805
L70782 76833
L70810 76861
L70838 76833
L70810 76805
L70810 76861
" />
<path d="M71429 77339
L71401 77367
L71316 77395
L71260 77395
L71176 77367
L71120 77311
L71091 77255
L71063 77142
L71063 77058
L71091 76946
L71120 76889
L71176 76833
L71260 76805
L71316 76805
L71401 76833
L71429 76861
" />
<path d="M71935 77395
L71935 77086
L71907 77030
L71851 77002
L71738 77002
L71682 77030
" />
<path d="M71935 77367
L71879 77395
L71738 77395
L71682 77367
L71654 77311
L71654 77255
L71682 77199
L71738 77171
L71879 77171
L71935 77142
" />
<path d="M72469 77395
L72469 76805
" />
<path d="M72469 77367
L72413 77395
L72301 77395
L72244 77367
L72216 77339
L72188 77283
L72188 77114
L72216 77058
L72244 77030
L72301 77002
L72413 77002
L72469 77030
" />
<path d="M73201 77086
L73397 77086
" />
<path d="M73482 77395
L73201 77395
L73201 76805
L73482 76805
" />
<path d="M73735 77339
L73763 77367
L73735 77395
L73707 77367
L73735 77339
L73735 77395
" />
<path d="M74016 77395
L74016 76805
L74157 76805
L74241 76833
L74297 76889
L74325 76946
L74354 77058
L74354 77142
L74325 77255
L74297 77311
L74241 77367
L74157 77395
L74016 77395
" />
<path d="M74607 77339
L74635 77367
L74607 77395
L74579 77367
L74607 77339
L74607 77395
" />
<path d="M74860 77227
L75141 77227
" />
<path d="M74804 77395
L75000 76805
L75197 77395
" />
<path d="M75394 77339
L75422 77367
L75394 77395
L75366 77367
L75394 77339
L75394 77395
" />
<path d="M76575 77395
L76575 76805
" />
<path d="M76631 77171
L76800 77395
" />
<path d="M76800 77002
L76575 77227
" />
<path d="M77053 77395
L77053 77002
" />
<path d="M77053 76805
L77025 76833
L77053 76861
L77081 76833
L77053 76805
L77053 76861
" />
<path d="M77588 77367
L77531 77395
L77419 77395
L77363 77367
L77334 77339
L77306 77283
L77306 77114
L77334 77058
L77363 77030
L77419 77002
L77531 77002
L77588 77030
" />
<path d="M78094 77395
L78094 77086
L78066 77030
L78009 77002
L77897 77002
L77841 77030
" />
<path d="M78094 77367
L78037 77395
L77897 77395
L77841 77367
L77813 77311
L77813 77255
L77841 77199
L77897 77171
L78037 77171
L78094 77142
" />
<path d="M78628 77395
L78628 76805
" />
<path d="M78628 77367
L78572 77395
L78459 77395
L78403 77367
L78375 77339
L78347 77283
L78347 77114
L78375 77058
L78403 77030
L78459 77002
L78572 77002
L78628 77030
" />
<path d="M79612 77002
L79612 77395
" />
<path d="M79472 76777
L79331 77199
L79697 77199
" />
<path d="M79922 77339
L79950 77367
L79922 77395
L79894 77367
L79922 77339
L79922 77395
" />
<path d="M80315 76805
L80372 76805
L80428 76833
L80456 76861
L80484 76917
L80512 77030
L80512 77171
L80484 77283
L80456 77339
L80428 77367
L80372 77395
L80315 77395
L80259 77367
L80231 77339
L80203 77283
L80175 77171
L80175 77030
L80203 76917
L80231 76861
L80259 76833
L80315 76805
" />
<path d="M80765 77339
L80793 77367
L80765 77395
L80737 77367
L80765 77339
L80765 77395
" />
<path d="M81356 77395
L81018 77395
" />
<path d="M81187 77395
L81187 76805
L81131 76889
L81075 76946
L81018 76974
" />
<path d="M81609 77171
L82059 77171
" />
<path d="M82312 77367
L82368 77395
L82481 77395
L82537 77367
L82565 77311
L82565 77283
L82537 77227
L82481 77199
L82396 77199
L82340 77171
L82312 77114
L82312 77086
L82340 77030
L82396 77002
L82481 77002
L82537 77030
" />
<path d="M82734 77002
L82959 77002
" />
<path d="M82818 76805
L82818 77311
L82846 77367
L82903 77395
L82959 77395
" />
<path d="M83409 77395
L83409 77086
L83381 77030
L83324 77002
L83212 77002
L83156 77030
" />
<path d="M83409 77367
L83352 77395
L83212 77395
L83156 77367
L83127 77311
L83127 77255
L83156 77199
L83212 77171
L83352 77171
L83409 77142
" />
<path d="M83690 77395
L83690 76805
" />
<path d="M83690 77030
L83746 77002
L83859 77002
L83915 77030
L83943 77058
L83971 77114
L83971 77283
L83943 77339
L83915 77367
L83859 77395
L83746 77395
L83690 77367
" />
<path d="M84309 77395
L84252 77367
L84224 77311
L84224 76805
" />
<path d="M84759 77367
L84702 77395
L84590 77395
L84534 77367
L84505 77311
L84505 77086
L84534 77030
L84590 77002
L84702 77002
L84759 77030
L84787 77086
L84787 77142
L84505 77199
" />
</g>
<g style="fill:#000000; fill-opacity:0.0; 
stroke:#000000; stroke-width:39.3701; stroke-opacity:1; 
stroke-linecap:round; stroke-linejoin:round;">
</g>
<g style="fill:#000000; fill-opacity:0.0; 
stroke:#000000; stroke-width:59.0551; stroke-opacity:1; 
stroke-linecap:round; stroke-linejoin:round;">
<path d="M69685 75396
L112205 75396
" />
</g>
<g style="fill:#000000; fill-opacity:0.0; 
stroke:#000000; stroke-width:39.3701; stroke-opacity:1; 
stroke-linecap:round; stroke-linejoin:round;">
</g>
<g style="fill:#000000; fill-opacity:0.0; 
stroke:#000000; stroke-width:118.11; stroke-opacity:1; 
stroke-linecap:round; stroke-linejoin:round;">
<path d="M104022 76293
L103825 76012
" />
<path d="M103684 76293
L103684 75703
L103909 75703
L103965 75731
L103994 75759
L104022 75815
L104022 75899
L103994 75956
L103965 75984
L103909 76012
L103684 76012
" />
<path d="M104500 76265
L104444 76293
L104331 76293
L104275 76265
L104247 76209
L104247 75984
L104275 75928
L104331 75899
L104444 75899
L104500 75928
L104528 75984
L104528 76040
L104247 76096
" />
<path d="M104725 75899
L104865 76293
L105006 75899
" />
<path d="M105231 76237
L105259 76265
L105231 76293
L105203 76265
L105231 76237
L105231 76293
" />
<path d="M105231 75928
L105259 75956
L105231 75984
L105203 75956
L105231 75928
L105231 75984
" />
</g>
<g style="fill:#000000; fill-opacity:0.0; 
stroke:#000000; stroke-width:39.3701; stroke-opacity:1; 
stroke-linecap:round; stroke-linejoin:round;">
</g>
<g style="fill:#000000; fill-opacity:0.0; 
stroke:#000000; stroke-width:59.0551; stroke-opacity:1; 
stroke-linecap:round; stroke-linejoin:round;">
<path d="M70192 76265
L70276 76293
L70417 76293
L70473 76265
L70501 76237
L70529 76181
L70529 76124
L70501 76068
L70473 76040
L70417 76012
L70304 75984
L70248 75956
L70220 75928
L70192 75871
L70192 75815
L70220 75759
L70248 75731
L70304 75703
L70445 75703
L70529 75731
" />
<path d="M70782 76293
L70782 75899
" />
<path d="M70782 75703
L70754 75731
L70782 75759
L70810 75731
L70782 75703
L70782 75759
" />
<path d="M71007 75899
L71316 75899
L71007 76293
L71316 76293
" />
<path d="M71766 76265
L71710 76293
L71598 76293
L71541 76265
L71513 76209
L71513 75984
L71541 75928
L71598 75899
L71710 75899
L71766 75928
L71795 75984
L71795 76040
L71513 76096
" />
<path d="M72048 76237
L72076 76265
L72048 76293
L72019 76265
L72048 76237
L72048 76293
" />
<path d="M72048 75928
L72076 75956
L72048 75984
L72019 75956
L72048 75928
L72048 75984
" />
<path d="M72751 76124
L73032 76124
" />
<path d="M72694 76293
L72891 75703
L73088 76293
" />
<path d="M73538 75899
L73538 76293
" />
<path d="M73397 75674
L73257 76096
L73622 76096
" />
</g>
<g style="fill:#000000; fill-opacity:0.0; 
stroke:#000000; stroke-width:39.3701; stroke-opacity:1; 
stroke-linecap:round; stroke-linejoin:round;">
</g>
<g style="fill:#000000; fill-opacity:0.0; 
stroke:#000000; stroke-width:59.0551; stroke-opacity:1; 
stroke-linecap:round; stroke-linejoin:round;">
<path d="M103684 77395
L103684 76805
" />
<path d="M104219 77395
L104219 76805
" />
<path d="M104219 77367
L104162 77395
L104050 77395
L103994 77367
L103965 77339
L103937 77283
L103937 77114
L103965 77058
L103994 77030
L104050 77002
L104162 77002
L104219 77030
" />
<path d="M104500 77339
L104528 77367
L104500 77395
L104472 77367
L104500 77339
L104500 77395
" />
<path d="M104500 77030
L104528 77058
L104500 77086
L104472 77058
L104500 77030
L104500 77086
" />
<path d="M105540 77395
L105203 77395
" />
<path d="M105372 77395
L105372 76805
L105315 76889
L105259 76946
L105203 76974
" />
<path d="M106215 76777
L105709 77536
" />
<path d="M106721 77395
L106384 77395
" />
<path d="M106553 77395
L106553 76805
L106496 76889
L106440 76946
L106384 76974
" />
</g>
<g style="fill:#000000; fill-opacity:0.0; 
stroke:#000000; stroke-width:39.3701; stroke-opacity:1; 
stroke-linecap:round; stroke-linejoin:round;">
</g>
<g style="fill:#000000; fill-opacity:0.0; 
stroke:#000000; stroke-width:59.0551; stroke-opacity:1; 
stroke-linecap:round; stroke-linejoin:round;">
<path d="M69685 73821
L112205 73821
" />
</g>
<g style="fill:#000000; fill-opacity:0.0; 
stroke:#000000; stroke-width:39.3701; stroke-opacity:1; 
stroke-linecap:round; stroke-linejoin:round;">
</g>
<g style="fill:#000000; fill-opacity:0.0; 
stroke:#000000; stroke-width:157.48; stroke-opacity:1; 
stroke-linecap:round; stroke-linejoin:round;">
<path d="M70257 74099
L70707 74099
" />
<path d="M70384 74886
L70482 74099
" />
<path d="M70871 74886
L70937 74361
" />
<path d="M70970 74099
L70927 74136
L70960 74174
L71002 74136
L70970 74099
L70960 74174
" />
<path d="M71199 74361
L71499 74361
" />
<path d="M71345 74099
L71260 74774
L71288 74849
L71359 74886
L71434 74886
" />
<path d="M71809 74886
L71738 74849
L71710 74774
L71795 74099
" />
<path d="M72413 74849
L72334 74886
L72184 74886
L72113 74849
L72085 74774
L72123 74474
L72169 74399
L72249 74361
L72399 74361
L72469 74399
L72498 74474
L72488 74549
L72104 74624
" />
<path d="M72793 74811
L72826 74849
L72783 74886
L72751 74849
L72793 74811
L72783 74886
" />
<path d="M72844 74399
L72877 74436
L72835 74474
L72802 74436
L72844 74399
L72835 74474
" />
</g>
<g style="fill:#000000; fill-opacity:0.0; 
stroke:#000000; stroke-width:39.3701; stroke-opacity:1; 
stroke-linecap:round; stroke-linejoin:round;">
</g>
<g style="fill:#000000; fill-opacity:0.0; 
stroke:#000000; stroke-width:59.0551; stroke-opacity:1; 
stroke-linecap:round; stroke-linejoin:round;">
<path d="M70417 73070
L70220 73070
" />
<path d="M70220 73380
L70220 72789
L70501 72789
" />
<path d="M70726 73380
L70726 72986
" />
<path d="M70726 72789
L70698 72817
L70726 72845
L70754 72817
L70726 72789
L70726 72845
" />
<path d="M71091 73380
L71035 73352
L71007 73295
L71007 72789
" />
<path d="M71541 73352
L71485 73380
L71373 73380
L71316 73352
L71288 73295
L71288 73070
L71316 73014
L71373 72986
L71485 72986
L71541 73014
L71570 73070
L71570 73127
L71288 73183
" />
<path d="M71823 73323
L71851 73352
L71823 73380
L71795 73352
L71823 73323
L71823 73380
" />
<path d="M71823 73014
L71851 73042
L71823 73070
L71795 73042
L71823 73014
L71823 73070
" />
<path d="M72469 72789
L72807 72789
" />
<path d="M72638 73380
L72638 72789
" />
<path d="M72947 72789
L73313 72789
L73116 73014
L73201 73014
L73257 73042
L73285 73070
L73313 73127
L73313 73267
L73285 73323
L73257 73352
L73201 73380
L73032 73380
L72976 73352
L72947 73323
" />
<path d="M73538 72845
L73566 72817
L73622 72789
L73763 72789
L73819 72817
L73847 72845
L73876 72902
L73876 72958
L73847 73042
L73510 73380
L73876 73380
" />
<path d="M73988 73436
L74438 73436
" />
<path d="M74579 73380
L74579 72986
" />
<path d="M74579 73099
L74607 73042
L74635 73014
L74691 72986
L74747 72986
" />
<path d="M75169 73352
L75113 73380
L75000 73380
L74944 73352
L74916 73295
L74916 73070
L74944 73014
L75000 72986
L75113 72986
L75169 73014
L75197 73070
L75197 73127
L74916 73183
" />
<path d="M75366 72986
L75591 72986
" />
<path d="M75450 73380
L75450 72874
L75478 72817
L75535 72789
L75591 72789
" />
<path d="M75788 73323
L75816 73352
L75788 73380
L75760 73352
L75788 73323
L75788 73380
" />
<path d="M76069 73380
L76069 72789
" />
<path d="M76125 73155
L76294 73380
" />
<path d="M76294 72986
L76069 73211
" />
<path d="M76547 73380
L76547 72986
" />
<path d="M76547 72789
L76519 72817
L76547 72845
L76575 72817
L76547 72789
L76547 72845
" />
<path d="M77081 73352
L77025 73380
L76913 73380
L76856 73352
L76828 73323
L76800 73267
L76800 73099
L76828 73042
L76856 73014
L76913 72986
L77025 72986
L77081 73014
" />
<path d="M77588 73380
L77588 73070
L77559 73014
L77503 72986
L77391 72986
L77334 73014
" />
<path d="M77588 73352
L77531 73380
L77391 73380
L77334 73352
L77306 73295
L77306 73239
L77334 73183
L77391 73155
L77531 73155
L77588 73127
" />
<path d="M78122 73380
L78122 72789
" />
<path d="M78122 73352
L78066 73380
L77953 73380
L77897 73352
L77869 73323
L77841 73267
L77841 73099
L77869 73042
L77897 73014
L77953 72986
L78066 72986
L78122 73014
" />
<path d="M78262 73436
L78712 73436
" />
<path d="M78853 72986
L78853 73577
" />
<path d="M78853 73014
L78909 72986
L79022 72986
L79078 73014
L79106 73042
L79134 73099
L79134 73267
L79106 73323
L79078 73352
L79022 73380
L78909 73380
L78853 73352
" />
<path d="M79640 73352
L79584 73380
L79472 73380
L79415 73352
L79387 73323
L79359 73267
L79359 73099
L79387 73042
L79415 73014
L79472 72986
L79584 72986
L79640 73014
" />
<path d="M79894 73380
L79894 72789
" />
<path d="M79894 73014
L79950 72986
L80062 72986
L80118 73014
L80147 73042
L80175 73099
L80175 73267
L80147 73323
L80118 73352
L80062 73380
L79950 73380
L79894 73352
" />
</g>
<g style="fill:#000000; fill-opacity:0.0; 
stroke:#000000; stroke-width:39.3701; stroke-opacity:1; 
stroke-linecap:round; stroke-linejoin:round;">
</g>
<g style="fill:#000000; fill-opacity:0.0; 
stroke:#000000; stroke-width:59.0551; stroke-opacity:1; 
stroke-linecap:round; stroke-linejoin:round;">
<path d="M69685 71459
L112205 71459
" />
</g>
<g style="fill:#000000; fill-opacity:0.0; 
stroke:#000000; stroke-width:39.3701; stroke-opacity:1; 
stroke-linecap:round; stroke-linejoin:round;">
</g>
<g style="fill:#000000; fill-opacity:0.0; 
stroke:#000000; stroke-width:59.0551; stroke-opacity:1; 
stroke-linecap:round; stroke-linejoin:round;">
<path d="M70192 72289
L70276 72317
L70417 72317
L70473 72289
L70501 72260
L70529 72204
L70529 72148
L70501 72092
L70473 72064
L70417 72036
L70304 72007
L70248 71979
L70220 71951
L70192 71895
L70192 71839
L70220 71782
L70248 71754
L70304 71726
L70445 71726
L70529 71754
" />
<path d="M70782 72317
L70782 71726
" />
<path d="M71035 72317
L71035 72007
L71007 71951
L70951 71923
L70867 71923
L70810 71951
L70782 71979
" />
<path d="M71541 72289
L71485 72317
L71373 72317
L71316 72289
L71288 72232
L71288 72007
L71316 71951
L71373 71923
L71485 71923
L71541 71951
L71570 72007
L71570 72064
L71288 72120
" />
<path d="M72048 72289
L71991 72317
L71879 72317
L71823 72289
L71795 72232
L71795 72007
L71823 71951
L71879 71923
L71991 71923
L72048 71951
L72076 72007
L72076 72064
L71795 72120
" />
<path d="M72244 71923
L72469 71923
" />
<path d="M72329 71726
L72329 72232
L72357 72289
L72413 72317
L72469 72317
" />
<path d="M72666 72260
L72694 72289
L72666 72317
L72638 72289
L72666 72260
L72666 72317
" />
<path d="M72666 71951
L72694 71979
L72666 72007
L72638 71979
L72666 71951
L72666 72007
" />
</g>
<g style="fill:#000000; fill-opacity:0.0; 
stroke:#000000; stroke-width:39.3701; stroke-opacity:1; 
stroke-linecap:round; stroke-linejoin:round;">
</g>
<g style="fill:#000000; fill-opacity:0.0; 
stroke:#000000; stroke-width:59.0551; stroke-opacity:1; 
stroke-linecap:round; stroke-linejoin:round;">
<path d="M77559 75396
L77559 76577
" />
</g>
<g style="fill:#000000; fill-opacity:0.0; 
stroke:#000000; stroke-width:39.3701; stroke-opacity:1; 
stroke-linecap:round; stroke-linejoin:round;">
</g>
<g style="fill:#000000; fill-opacity:0.0; 
stroke:#000000; stroke-width:59.0551; stroke-opacity:1; 
stroke-linecap:round; stroke-linejoin:round;">
<path d="M102756 75396
L102756 77955
" />
<path d="M44465 46340
L72465 46340
" />
<path d="M72465 46340
L72465 36340
" />
<path d="M72465 36340
L44465 36340
" />
<path d="M44465 36340
L44465 46340
" />
</g>
<g style="fill:#000000; fill-opacity:0.0; 
stroke:#000000; stroke-width:48; stroke-opacity:1; 
stroke-linecap:round; stroke-linejoin:round;">
<path d="M46173 37326
L45793 37452
L46173 37579
" />
<path d="M46173 37706
L45865 37706
L45829 37724
L45811 37742
L45793 37778
L45793 37850
L45811 37887
L45829 37905
L45865 37923
L46173 37923
" />
<path d="M45811 38086
L45793 38140
L45793 38230
L45811 38267
L45829 38285
L45865 38303
L45901 38303
L45937 38285
L45955 38267
L45974 38230
L45992 38158
L46010 38122
L46028 38104
L46064 38086
L46100 38086
L46136 38104
L46155 38122
L46173 38158
L46173 38249
L46155 38303
" />
<path d="M45992 38592
L45974 38647
L45955 38665
L45919 38683
L45865 38683
L45829 38665
L45811 38647
L45793 38610
L45793 38466
L46173 38466
L46173 38592
L46155 38629
L46136 38647
L46100 38665
L46064 38665
L46028 38647
L46010 38629
L45992 38592
L45992 38466
" />
<path d="M47173 37326
L46793 37452
L47173 37579
" />
<path d="M46793 37706
L47173 37706
" />
<path d="M46793 37887
L47173 37887
L46793 38104
L47173 38104
" />
<path d="M47901 37362
L47901 37543
" />
<path d="M47793 37326
L48173 37452
L47793 37579
" />
<path d="M48155 37905
L48173 37869
L48173 37814
L48155 37760
L48118 37724
L48082 37706
L48010 37688
L47955 37688
L47883 37706
L47847 37724
L47811 37760
L47793 37814
L47793 37850
L47811 37905
L47829 37923
L47955 37923
L47955 37850
" />
<path d="M47793 38086
L48173 38086
L47793 38303
L48173 38303
" />
<path d="M47793 38484
L48173 38484
L48173 38574
L48155 38629
L48118 38665
L48082 38683
L48010 38701
L47955 38701
L47883 38683
L47847 38665
L47811 38629
L47793 38574
L47793 38484
" />
<path d="M49173 37344
L49173 37579
L49028 37452
L49028 37507
L49010 37543
L48992 37561
L48955 37579
L48865 37579
L48829 37561
L48811 37543
L48793 37507
L48793 37398
L48811 37362
L48829 37344
" />
<path d="M48829 37742
L48811 37760
L48793 37742
L48811 37724
L48829 37742
L48793 37742
" />
<path d="M49173 37887
L49173 38122
L49028 37995
L49028 38050
L49010 38086
L48992 38104
L48955 38122
L48865 38122
L48829 38104
L48811 38086
L48793 38050
L48793 37941
L48811 37905
L48829 37887
" />
<path d="M49173 38230
L48793 38357
L49173 38484
" />
<path d="M49901 37362
L49901 37543
" />
<path d="M49793 37326
L50173 37452
L49793 37579
" />
<path d="M49793 37923
L49974 37796
" />
<path d="M49793 37706
L50173 37706
L50173 37850
L50155 37887
L50136 37905
L50100 37923
L50046 37923
L50010 37905
L49992 37887
L49974 37850
L49974 37706
" />
<path d="M49992 38086
L49992 38212
" />
<path d="M49793 38267
L49793 38086
L50173 38086
L50173 38267
" />
<path d="M49992 38556
L49992 38430
" />
<path d="M49793 38430
L50173 38430
L50173 38610
" />
<path d="M50901 37362
L50901 37543
" />
<path d="M50793 37326
L51173 37452
L50793 37579
" />
<path d="M50793 37905
L50793 37688
" />
<path d="M50793 37796
L51173 37796
L51118 37760
L51082 37724
L51064 37688
" />
<path d="M51173 38140
L51173 38176
L51155 38212
L51136 38230
L51100 38249
L51028 38267
L50937 38267
L50865 38249
L50829 38230
L50811 38212
L50793 38176
L50793 38140
L50811 38104
L50829 38086
L50865 38068
L50937 38050
L51028 38050
L51100 38068
L51136 38086
L51155 38104
L51173 38140
" />
<path d="M51901 37362
L51901 37543
" />
<path d="M51793 37326
L52173 37452
L51793 37579
" />
<path d="M51793 37905
L51793 37688
" />
<path d="M51793 37796
L52173 37796
L52118 37760
L52082 37724
L52064 37688
" />
<path d="M51793 38267
L51793 38050
" />
<path d="M51793 38158
L52173 38158
L52118 38122
L52082 38086
L52064 38050
" />
<path d="M53136 37362
L53155 37380
L53173 37416
L53173 37507
L53155 37543
L53136 37561
L53100 37579
L53064 37579
L53010 37561
L52793 37344
L52793 37579
" />
<path d="M53173 37706
L53173 37941
L53028 37814
L53028 37869
L53010 37905
L52992 37923
L52955 37941
L52865 37941
L52829 37923
L52811 37905
L52793 37869
L52793 37760
L52811 37724
L52829 37706
" />
<path d="M54136 37362
L54155 37380
L54173 37416
L54173 37507
L54155 37543
L54136 37561
L54100 37579
L54064 37579
L54010 37561
L53793 37344
L53793 37579
" />
<path d="M54136 37724
L54155 37742
L54173 37778
L54173 37869
L54155 37905
L54136 37923
L54100 37941
L54064 37941
L54010 37923
L53793 37706
L53793 37941
" />
<path d="M55136 37362
L55155 37380
L55173 37416
L55173 37507
L55155 37543
L55136 37561
L55100 37579
L55064 37579
L55010 37561
L54793 37344
L54793 37579
" />
<path d="M54793 37941
L54793 37724
" />
<path d="M54793 37832
L55173 37832
L55118 37796
L55082 37760
L55064 37724
" />
<path d="M56136 37362
L56155 37380
L56173 37416
L56173 37507
L56155 37543
L56136 37561
L56100 37579
L56064 37579
L56010 37561
L55793 37344
L55793 37579
" />
<path d="M56173 37814
L56173 37850
L56155 37887
L56136 37905
L56100 37923
L56028 37941
L55937 37941
L55865 37923
L55829 37905
L55811 37887
L55793 37850
L55793 37814
L55811 37778
L55829 37760
L55865 37742
L55937 37724
L56028 37724
L56100 37742
L56136 37760
L56155 37778
L56173 37814
" />
<path d="M56793 37579
L56793 37362
" />
<path d="M56793 37470
L57173 37470
L57118 37434
L57082 37398
L57064 37362
" />
<path d="M56793 37760
L56793 37832
L56811 37869
L56829 37887
L56883 37923
L56955 37941
L57100 37941
L57136 37923
L57155 37905
L57173 37869
L57173 37796
L57155 37760
L57136 37742
L57100 37724
L57010 37724
L56974 37742
L56955 37760
L56937 37796
L56937 37869
L56955 37905
L56974 37923
L57010 37941
" />
<path d="M57793 37579
L57793 37362
" />
<path d="M57793 37470
L58173 37470
L58118 37434
L58082 37398
L58064 37362
" />
<path d="M58010 37796
L58028 37760
L58046 37742
L58082 37724
L58100 37724
L58136 37742
L58155 37760
L58173 37796
L58173 37869
L58155 37905
L58136 37923
L58100 37941
L58082 37941
L58046 37923
L58028 37905
L58010 37869
L58010 37796
L57992 37760
L57974 37742
L57937 37724
L57865 37724
L57829 37742
L57811 37760
L57793 37796
L57793 37869
L57811 37905
L57829 37923
L57865 37941
L57937 37941
L57974 37923
L57992 37905
L58010 37869
" />
<path d="M58793 37579
L58793 37362
" />
<path d="M58793 37470
L59173 37470
L59118 37434
L59082 37398
L59064 37362
" />
<path d="M59173 37706
L59173 37959
L58793 37796
" />
<path d="M59793 37579
L59793 37362
" />
<path d="M59793 37470
L60173 37470
L60118 37434
L60082 37398
L60064 37362
" />
<path d="M60173 37905
L60173 37832
L60155 37796
L60136 37778
L60082 37742
L60010 37724
L59865 37724
L59829 37742
L59811 37760
L59793 37796
L59793 37869
L59811 37905
L59829 37923
L59865 37941
L59955 37941
L59992 37923
L60010 37905
L60028 37869
L60028 37796
L60010 37760
L59992 37742
L59955 37724
" />
<path d="M60793 37579
L60793 37362
" />
<path d="M60793 37470
L61173 37470
L61118 37434
L61082 37398
L61064 37362
" />
<path d="M61173 37923
L61173 37742
L60992 37724
L61010 37742
L61028 37778
L61028 37869
L61010 37905
L60992 37923
L60955 37941
L60865 37941
L60829 37923
L60811 37905
L60793 37869
L60793 37778
L60811 37742
L60829 37724
" />
<path d="M61793 37579
L61793 37362
" />
<path d="M61793 37470
L62173 37470
L62118 37434
L62082 37398
L62064 37362
" />
<path d="M62046 37905
L61793 37905
" />
<path d="M62191 37814
L61919 37724
L61919 37959
" />
<path d="M62793 37579
L62793 37362
" />
<path d="M62793 37470
L63173 37470
L63118 37434
L63082 37398
L63064 37362
" />
<path d="M63173 37706
L63173 37941
L63028 37814
L63028 37869
L63010 37905
L62992 37923
L62955 37941
L62865 37941
L62829 37923
L62811 37905
L62793 37869
L62793 37760
L62811 37724
L62829 37706
" />
<path d="M63901 37362
L63901 37543
" />
<path d="M63793 37326
L64173 37452
L63793 37579
" />
<path d="M63793 37905
L63793 37688
" />
<path d="M63793 37796
L64173 37796
L64118 37760
L64082 37724
L64064 37688
" />
<path d="M64173 38031
L64173 38267
L64028 38140
L64028 38194
L64010 38230
L63992 38249
L63955 38267
L63865 38267
L63829 38249
L63811 38230
L63793 38194
L63793 38086
L63811 38050
L63829 38031
" />
<path d="M65173 37344
L65173 37579
L65028 37452
L65028 37507
L65010 37543
L64992 37561
L64955 37579
L64865 37579
L64829 37561
L64811 37543
L64793 37507
L64793 37398
L64811 37362
L64829 37344
" />
<path d="M64829 37742
L64811 37760
L64793 37742
L64811 37724
L64829 37742
L64793 37742
" />
<path d="M65173 37887
L65173 38122
L65028 37995
L65028 38050
L65010 38086
L64992 38104
L64955 38122
L64865 38122
L64829 38104
L64811 38086
L64793 38050
L64793 37941
L64811 37905
L64829 37887
" />
<path d="M65173 38230
L64793 38357
L65173 38484
" />
<path d="M66173 37344
L66173 37579
L66028 37452
L66028 37507
L66010 37543
L65992 37561
L65955 37579
L65865 37579
L65829 37561
L65811 37543
L65793 37507
L65793 37398
L65811 37362
L65829 37344
" />
<path d="M66173 37706
L66173 37941
L66028 37814
L66028 37869
L66010 37905
L65992 37923
L65955 37941
L65865 37941
L65829 37923
L65811 37905
L65793 37869
L65793 37760
L65811 37724
L65829 37706
" />
<path d="M67173 37344
L67173 37579
L67028 37452
L67028 37507
L67010 37543
L66992 37561
L66955 37579
L66865 37579
L66829 37561
L66811 37543
L66793 37507
L66793 37398
L66811 37362
L66829 37344
" />
<path d="M67136 37724
L67155 37742
L67173 37778
L67173 37869
L67155 37905
L67136 37923
L67100 37941
L67064 37941
L67010 37923
L66793 37706
L66793 37941
" />
<path d="M68123 37344
L68123 37579
L67978 37452
L67978 37507
L67960 37543
L67942 37561
L67905 37579
L67815 37579
L67779 37561
L67761 37543
L67743 37507
L67743 37398
L67761 37362
L67779 37344
" />
<path d="M67743 37941
L67743 37724
" />
<path d="M67743 37832
L68123 37832
L68068 37796
L68032 37760
L68014 37724
" />
<path d="M69173 37344
L69173 37579
L69028 37452
L69028 37507
L69010 37543
L68992 37561
L68955 37579
L68865 37579
L68829 37561
L68811 37543
L68793 37507
L68793 37398
L68811 37362
L68829 37344
" />
<path d="M69173 37814
L69173 37850
L69155 37887
L69136 37905
L69100 37923
L69028 37941
L68937 37941
L68865 37923
L68829 37905
L68811 37887
L68793 37850
L68793 37814
L68811 37778
L68829 37760
L68865 37742
L68937 37724
L69028 37724
L69100 37742
L69136 37760
L69155 37778
L69173 37814
" />
<path d="M70136 37362
L70155 37380
L70173 37416
L70173 37507
L70155 37543
L70136 37561
L70100 37579
L70064 37579
L70010 37561
L69793 37344
L69793 37579
" />
<path d="M69793 37760
L69793 37832
L69811 37869
L69829 37887
L69883 37923
L69955 37941
L70100 37941
L70136 37923
L70155 37905
L70173 37869
L70173 37796
L70155 37760
L70136 37742
L70100 37724
L70010 37724
L69974 37742
L69955 37760
L69937 37796
L69937 37869
L69955 37905
L69974 37923
L70010 37941
" />
<path d="M71173 37344
L71173 37579
L71028 37452
L71028 37507
L71010 37543
L70992 37561
L70955 37579
L70865 37579
L70829 37561
L70811 37543
L70793 37507
L70793 37398
L70811 37362
L70829 37344
" />
<path d="M70829 37742
L70811 37760
L70793 37742
L70811 37724
L70829 37742
L70793 37742
" />
<path d="M71173 37887
L71173 38122
L71028 37995
L71028 38050
L71010 38086
L70992 38104
L70955 38122
L70865 38122
L70829 38104
L70811 38086
L70793 38050
L70793 37941
L70811 37905
L70829 37887
" />
<path d="M71173 38230
L70793 38357
L71173 38484
" />
<path d="M72155 37579
L72173 37543
L72173 37489
L72155 37434
L72118 37398
L72082 37380
L72010 37362
L71955 37362
L71883 37380
L71847 37398
L71811 37434
L71793 37489
L71793 37525
L71811 37579
L71829 37597
L71955 37597
L71955 37525
" />
<path d="M71793 37760
L72173 37760
L71793 37977
L72173 37977
" />
<path d="M71793 38158
L72173 38158
L72173 38249
L72155 38303
L72118 38339
L72082 38357
L72010 38375
L71955 38375
L71883 38357
L71847 38339
L71811 38303
L71793 38249
L71793 38158
" />
<path d="M72155 44521
L72173 44485
L72173 44430
L72155 44376
L72118 44340
L72082 44322
L72010 44304
L71955 44304
L71883 44322
L71847 44340
L71811 44376
L71793 44430
L71793 44467
L71811 44521
L71829 44539
L71955 44539
L71955 44467
" />
<path d="M71793 44702
L72173 44702
L71793 44919
L72173 44919
" />
<path d="M71793 45100
L72173 45100
L72173 45190
L72155 45245
L72118 45281
L72082 45299
L72010 45317
L71955 45317
L71883 45299
L71847 45281
L71811 45245
L71793 45190
L71793 45100
" />
<path d="M70793 44394
L71173 44394
L71173 44485
L71155 44539
L71118 44575
L71082 44593
L71010 44611
L70955 44611
L70883 44593
L70847 44575
L70811 44539
L70793 44485
L70793 44394
" />
<path d="M70901 44756
L70901 44937
" />
<path d="M70793 44720
L71173 44847
L70793 44973
" />
<path d="M70829 45317
L70811 45299
L70793 45245
L70793 45209
L70811 45154
L70847 45118
L70883 45100
L70955 45082
L71010 45082
L71082 45100
L71118 45118
L71155 45154
L71173 45209
L71173 45245
L71155 45299
L71136 45317
" />
<path d="M70136 44738
L70155 44756
L70173 44792
L70173 44883
L70155 44919
L70136 44937
L70100 44955
L70064 44955
L70010 44937
L69793 44720
L69793 44955
" />
<path d="M70010 45172
L70028 45136
L70046 45118
L70082 45100
L70100 45100
L70136 45118
L70155 45136
L70173 45172
L70173 45245
L70155 45281
L70136 45299
L70100 45317
L70082 45317
L70046 45299
L70028 45281
L70010 45245
L70010 45172
L69992 45136
L69974 45118
L69937 45100
L69865 45100
L69829 45118
L69811 45136
L69793 45172
L69793 45245
L69811 45281
L69829 45299
L69865 45317
L69937 45317
L69974 45299
L69992 45281
L70010 45245
" />
<path d="M69136 44738
L69155 44756
L69173 44792
L69173 44883
L69155 44919
L69136 44937
L69100 44955
L69064 44955
L69010 44937
L68793 44720
L68793 44955
" />
<path d="M69173 45082
L69173 45335
L68793 45172
" />
<path d="M68136 44738
L68155 44756
L68173 44792
L68173 44883
L68155 44919
L68136 44937
L68100 44955
L68064 44955
L68010 44937
L67793 44720
L67793 44955
" />
<path d="M68173 45281
L68173 45209
L68155 45172
L68136 45154
L68082 45118
L68010 45100
L67865 45100
L67829 45118
L67811 45136
L67793 45172
L67793 45245
L67811 45281
L67829 45299
L67865 45317
L67955 45317
L67992 45299
L68010 45281
L68028 45245
L68028 45172
L68010 45136
L67992 45118
L67955 45100
" />
<path d="M67136 44738
L67155 44756
L67173 44792
L67173 44883
L67155 44919
L67136 44937
L67100 44955
L67064 44955
L67010 44937
L66793 44720
L66793 44955
" />
<path d="M67173 45299
L67173 45118
L66992 45100
L67010 45118
L67028 45154
L67028 45245
L67010 45281
L66992 45299
L66955 45317
L66865 45317
L66829 45299
L66811 45281
L66793 45245
L66793 45154
L66811 45118
L66829 45100
" />
<path d="M66136 44738
L66155 44756
L66173 44792
L66173 44883
L66155 44919
L66136 44937
L66100 44955
L66064 44955
L66010 44937
L65793 44720
L65793 44955
" />
<path d="M66046 45281
L65793 45281
" />
<path d="M66191 45190
L65919 45100
L65919 45335
" />
<path d="M65155 44521
L65173 44485
L65173 44430
L65155 44376
L65118 44340
L65082 44322
L65010 44304
L64955 44304
L64883 44322
L64847 44340
L64811 44376
L64793 44430
L64793 44467
L64811 44521
L64829 44539
L64955 44539
L64955 44467
" />
<path d="M64793 44702
L65173 44702
L64793 44919
L65173 44919
" />
<path d="M64793 45100
L65173 45100
L65173 45190
L65155 45245
L65118 45281
L65082 45299
L65010 45317
L64955 45317
L64883 45299
L64847 45281
L64811 45245
L64793 45190
L64793 45100
" />
<path d="M63901 44412
L63901 44593
" />
<path d="M63793 44376
L64173 44503
L63793 44630
" />
<path d="M63793 44955
L63793 44738
" />
<path d="M63793 44847
L64173 44847
L64118 44810
L64082 44774
L64064 44738
" />
<path d="M64136 45100
L64155 45118
L64173 45154
L64173 45245
L64155 45281
L64136 45299
L64100 45317
L64064 45317
L64010 45299
L63793 45082
L63793 45317
" />
<path d="M62793 44955
L62793 44738
" />
<path d="M62793 44847
L63173 44847
L63118 44810
L63082 44774
L63064 44738
" />
<path d="M63136 45100
L63155 45118
L63173 45154
L63173 45245
L63155 45281
L63136 45299
L63100 45317
L63064 45317
L63010 45299
L62793 45082
L62793 45317
" />
<path d="M61793 44955
L61793 44738
" />
<path d="M61793 44847
L62173 44847
L62118 44810
L62082 44774
L62064 44738
" />
<path d="M61793 45317
L61793 45100
" />
<path d="M61793 45209
L62173 45209
L62118 45172
L62082 45136
L62064 45100
" />
<path d="M60793 44955
L60793 44738
" />
<path d="M60793 44847
L61173 44847
L61118 44810
L61082 44774
L61064 44738
" />
<path d="M61173 45190
L61173 45227
L61155 45263
L61136 45281
L61100 45299
L61028 45317
L60937 45317
L60865 45299
L60829 45281
L60811 45263
L60793 45227
L60793 45190
L60811 45154
L60829 45136
L60865 45118
L60937 45100
L61028 45100
L61100 45118
L61136 45136
L61155 45154
L61173 45190
" />
<path d="M59793 45136
L59793 45209
L59811 45245
L59829 45263
L59883 45299
L59955 45317
L60100 45317
L60136 45299
L60155 45281
L60173 45245
L60173 45172
L60155 45136
L60136 45118
L60100 45100
L60010 45100
L59974 45118
L59955 45136
L59937 45172
L59937 45245
L59955 45281
L59974 45299
L60010 45317
" />
<path d="M59010 45172
L59028 45136
L59046 45118
L59082 45100
L59100 45100
L59136 45118
L59155 45136
L59173 45172
L59173 45245
L59155 45281
L59136 45299
L59100 45317
L59082 45317
L59046 45299
L59028 45281
L59010 45245
L59010 45172
L58992 45136
L58974 45118
L58937 45100
L58865 45100
L58829 45118
L58811 45136
L58793 45172
L58793 45245
L58811 45281
L58829 45299
L58865 45317
L58937 45317
L58974 45299
L58992 45281
L59010 45245
" />
<path d="M58173 45082
L58173 45335
L57793 45172
" />
<path d="M57173 45281
L57173 45209
L57155 45172
L57136 45154
L57082 45118
L57010 45100
L56865 45100
L56829 45118
L56811 45136
L56793 45172
L56793 45245
L56811 45281
L56829 45299
L56865 45317
L56955 45317
L56992 45299
L57010 45281
L57028 45245
L57028 45172
L57010 45136
L56992 45118
L56955 45100
" />
<path d="M56173 45299
L56173 45118
L55992 45100
L56010 45118
L56028 45154
L56028 45245
L56010 45281
L55992 45299
L55955 45317
L55865 45317
L55829 45299
L55811 45281
L55793 45245
L55793 45154
L55811 45118
L55829 45100
" />
<path d="M55046 45281
L54793 45281
" />
<path d="M55191 45190
L54919 45100
L54919 45335
" />
<path d="M54173 45082
L54173 45317
L54028 45190
L54028 45245
L54010 45281
L53992 45299
L53955 45317
L53865 45317
L53829 45299
L53811 45281
L53793 45245
L53793 45136
L53811 45100
L53829 45082
" />
<path d="M53136 45100
L53155 45118
L53173 45154
L53173 45245
L53155 45281
L53136 45299
L53100 45317
L53064 45317
L53010 45299
L52793 45082
L52793 45317
" />
<path d="M51793 45317
L51793 45100
" />
<path d="M51793 45209
L52173 45209
L52118 45172
L52082 45136
L52064 45100
" />
<path d="M51173 45190
L51173 45227
L51155 45263
L51136 45281
L51100 45299
L51028 45317
L50937 45317
L50865 45299
L50829 45281
L50811 45263
L50793 45227
L50793 45190
L50811 45154
L50829 45136
L50865 45118
L50937 45100
L51028 45100
L51100 45118
L51136 45136
L51155 45154
L51173 45190
" />
<path d="M50155 44521
L50173 44485
L50173 44430
L50155 44376
L50118 44340
L50082 44322
L50010 44304
L49955 44304
L49883 44322
L49847 44340
L49811 44376
L49793 44430
L49793 44467
L49811 44521
L49829 44539
L49955 44539
L49955 44467
" />
<path d="M49793 44702
L50173 44702
L49793 44919
L50173 44919
" />
<path d="M49793 45100
L50173 45100
L50173 45190
L50155 45245
L50118 45281
L50082 45299
L50010 45317
L49955 45317
L49883 45299
L49847 45281
L49811 45245
L49793 45190
L49793 45100
" />
<path d="M48793 44666
L48974 44539
" />
<path d="M48793 44449
L49173 44449
L49173 44593
L49155 44630
L49136 44648
L49100 44666
L49046 44666
L49010 44648
L48992 44630
L48974 44593
L48974 44449
" />
<path d="M48811 44810
L48793 44865
L48793 44955
L48811 44991
L48829 45010
L48865 45028
L48901 45028
L48937 45010
L48955 44991
L48974 44955
L48992 44883
L49010 44847
L49028 44829
L49064 44810
L49100 44810
L49136 44829
L49155 44847
L49173 44883
L49173 44973
L49155 45028
" />
<path d="M49173 45136
L49173 45353
" />
<path d="M48793 45245
L49173 45245
" />
<path d="M47811 44286
L47793 44340
L47793 44430
L47811 44467
L47829 44485
L47865 44503
L47901 44503
L47937 44485
L47955 44467
L47974 44430
L47992 44358
L48010 44322
L48028 44304
L48064 44286
L48100 44286
L48136 44304
L48155 44322
L48173 44358
L48173 44449
L48155 44503
" />
<path d="M48173 44630
L47793 44720
L48064 44792
L47793 44865
L48173 44955
" />
<path d="M47793 45100
L48173 45100
L48173 45190
L48155 45245
L48118 45281
L48082 45299
L48010 45317
L47955 45317
L47883 45299
L47847 45281
L47811 45245
L47793 45190
L47793 45100
" />
<path d="M46811 44286
L46793 44340
L46793 44430
L46811 44467
L46829 44485
L46865 44503
L46901 44503
L46937 44485
L46955 44467
L46974 44430
L46992 44358
L47010 44322
L47028 44304
L47064 44286
L47100 44286
L47136 44304
L47155 44322
L47173 44358
L47173 44449
L47155 44503
" />
<path d="M47173 44630
L46793 44720
L47064 44792
L46793 44865
L47173 44955
" />
<path d="M46829 45317
L46811 45299
L46793 45245
L46793 45209
L46811 45154
L46847 45118
L46883 45100
L46955 45082
L47010 45082
L47082 45100
L47118 45118
L47155 45154
L47173 45209
L47173 45245
L47155 45299
L47136 45317
" />
<path d="M45992 44557
L45992 44684
" />
<path d="M45793 44738
L45793 44557
L46173 44557
L46173 44738
" />
<path d="M45793 44901
L46173 44901
L45793 45118
L46173 45118
" />
<path d="M46173 45317
L46100 45281
" />
<path d="M45155 44521
L45173 44485
L45173 44430
L45155 44376
L45118 44340
L45082 44322
L45010 44304
L44955 44304
L44883 44322
L44847 44340
L44811 44376
L44793 44430
L44793 44467
L44811 44521
L44829 44539
L44955 44539
L44955 44467
" />
<path d="M44793 44702
L45173 44702
L44793 44919
L45173 44919
" />
<path d="M44793 45100
L45173 45100
L45173 45190
L45155 45245
L45118 45281
L45082 45299
L45010 45317
L44955 45317
L44883 45299
L44847 45281
L44811 45245
L44793 45190
L44793 45100
" />
<path d="M70103 39511
L69976 39330
" />
<path d="M69886 39511
L69886 39131
L70031 39131
L70067 39150
L70085 39168
L70103 39204
L70103 39258
L70085 39294
L70067 39312
L70031 39330
L69886 39330
" />
<path d="M70266 39312
L70393 39312
" />
<path d="M70447 39511
L70266 39511
L70266 39131
L70447 39131
" />
<path d="M70592 39493
L70646 39511
L70736 39511
L70773 39493
L70791 39475
L70809 39439
L70809 39403
L70791 39367
L70773 39349
L70736 39330
L70664 39312
L70628 39294
L70610 39276
L70592 39240
L70592 39204
L70610 39168
L70628 39150
L70664 39131
L70755 39131
L70809 39150
" />
<path d="M70972 39312
L71098 39312
" />
<path d="M71153 39511
L70972 39511
L70972 39131
L71153 39131
" />
<path d="M71261 39131
L71478 39131
" />
<path d="M71370 39511
L71370 39131
" />
<path d="M70067 40511
L70067 40131
L70212 40131
L70248 40150
L70266 40168
L70284 40204
L70284 40258
L70266 40294
L70248 40312
L70212 40330
L70067 40330
" />
<path d="M70664 40511
L70537 40330
" />
<path d="M70447 40511
L70447 40131
L70592 40131
L70628 40150
L70646 40168
L70664 40204
L70664 40258
L70646 40294
L70628 40312
L70592 40330
L70447 40330
" />
<path d="M70899 40131
L70972 40131
L71008 40150
L71044 40186
L71062 40258
L71062 40385
L71044 40457
L71008 40493
L70972 40511
L70899 40511
L70863 40493
L70827 40457
L70809 40385
L70809 40258
L70827 40186
L70863 40150
L70899 40131
" />
<path d="M71424 40150
L71388 40131
L71334 40131
L71279 40150
L71243 40186
L71225 40222
L71207 40294
L71207 40349
L71225 40421
L71243 40457
L71279 40493
L71334 40511
L71370 40511
L71424 40493
L71442 40475
L71442 40349
L71370 40349
" />
<path d="M70646 41150
L70610 41131
L70555 41131
L70501 41150
L70465 41186
L70447 41222
L70429 41294
L70429 41349
L70447 41421
L70465 41457
L70501 41493
L70555 41511
L70592 41511
L70646 41493
L70664 41475
L70664 41349
L70592 41349
" />
<path d="M70827 41511
L70827 41131
L71044 41511
L71044 41131
" />
<path d="M71225 41511
L71225 41131
L71315 41131
L71370 41150
L71406 41186
L71424 41222
L71442 41294
L71442 41349
L71424 41421
L71406 41457
L71370 41493
L71315 41511
L71225 41511
" />
<path d="M70338 42131
L70574 42131
L70447 42276
L70501 42276
L70537 42294
L70555 42312
L70574 42349
L70574 42439
L70555 42475
L70537 42493
L70501 42511
L70393 42511
L70356 42493
L70338 42475
" />
<path d="M70736 42475
L70755 42493
L70736 42511
L70718 42493
L70736 42475
L70736 42511
" />
<path d="M70881 42131
L71116 42131
L70990 42276
L71044 42276
L71080 42294
L71098 42312
L71116 42349
L71116 42439
L71098 42475
L71080 42493
L71044 42511
L70935 42511
L70899 42493
L70881 42475
" />
<path d="M71225 42131
L71352 42511
L71478 42131
" />
<path d="M70230 43131
L70356 43511
L70483 43131
" />
<path d="M70736 43312
L70791 43330
L70809 43349
L70827 43385
L70827 43439
L70809 43475
L70791 43493
L70755 43511
L70610 43511
L70610 43131
L70736 43131
L70773 43150
L70791 43168
L70809 43204
L70809 43240
L70791 43276
L70773 43294
L70736 43312
L70610 43312
" />
<path d="M70972 43403
L71153 43403
" />
<path d="M70935 43511
L71062 43131
L71189 43511
" />
<path d="M71261 43131
L71478 43131
" />
<path d="M71370 43511
L71370 43131
" />
</g>
<g style="fill:#000000; fill-opacity:0.0; 
stroke:#000000; stroke-width:32; stroke-opacity:1; 
stroke-linecap:round; stroke-linejoin:round;">
<path d="M52747 38292
L52892 38292
" />
<path d="M52718 38379
L52820 38075
L52921 38379
" />
<path d="M53037 38379
L53095 38379
L53124 38365
L53138 38350
L53167 38307
L53182 38249
L53182 38133
L53167 38104
L53153 38090
L53124 38075
L53066 38075
L53037 38090
L53022 38104
L53008 38133
L53008 38205
L53022 38234
L53037 38249
L53066 38263
L53124 38263
L53153 38249
L53167 38234
L53182 38205
" />
<path d="M53747 38292
L53892 38292
" />
<path d="M53718 38379
L53820 38075
L53921 38379
" />
<path d="M54066 38205
L54037 38191
L54022 38176
L54008 38147
L54008 38133
L54022 38104
L54037 38090
L54066 38075
L54124 38075
L54153 38090
L54167 38104
L54182 38133
L54182 38147
L54167 38176
L54153 38191
L54124 38205
L54066 38205
L54037 38220
L54022 38234
L54008 38263
L54008 38321
L54022 38350
L54037 38365
L54066 38379
L54124 38379
L54153 38365
L54167 38350
L54182 38321
L54182 38263
L54167 38234
L54153 38220
L54124 38205
" />
<path d="M54747 38292
L54892 38292
" />
<path d="M54718 38379
L54820 38075
L54921 38379
" />
<path d="M54993 38075
L55196 38075
L55066 38379
" />
<path d="M55747 38292
L55892 38292
" />
<path d="M55718 38379
L55820 38075
L55921 38379
" />
<path d="M56153 38075
L56095 38075
L56066 38090
L56051 38104
L56022 38147
L56008 38205
L56008 38321
L56022 38350
L56037 38365
L56066 38379
L56124 38379
L56153 38365
L56167 38350
L56182 38321
L56182 38249
L56167 38220
L56153 38205
L56124 38191
L56066 38191
L56037 38205
L56022 38220
L56008 38249
" />
<path d="M56747 38292
L56892 38292
" />
<path d="M56718 38379
L56820 38075
L56921 38379
" />
<path d="M57167 38075
L57022 38075
L57008 38220
L57022 38205
L57051 38191
L57124 38191
L57153 38205
L57167 38220
L57182 38249
L57182 38321
L57167 38350
L57153 38365
L57124 38379
L57051 38379
L57022 38365
L57008 38350
" />
<path d="M57747 38292
L57892 38292
" />
<path d="M57718 38379
L57820 38075
L57921 38379
" />
<path d="M58153 38176
L58153 38379
" />
<path d="M58080 38061
L58008 38278
L58196 38278
" />
<path d="M58747 38292
L58892 38292
" />
<path d="M58718 38379
L58820 38075
L58921 38379
" />
<path d="M58993 38075
L59182 38075
L59080 38191
L59124 38191
L59153 38205
L59167 38220
L59182 38249
L59182 38321
L59167 38350
L59153 38365
L59124 38379
L59037 38379
L59008 38365
L58993 38350
" />
<path d="M59747 38292
L59892 38292
" />
<path d="M59718 38379
L59820 38075
L59921 38379
" />
<path d="M60008 38104
L60022 38090
L60051 38075
L60124 38075
L60153 38090
L60167 38104
L60182 38133
L60182 38162
L60167 38205
L59993 38379
L60182 38379
" />
<path d="M60747 38292
L60892 38292
" />
<path d="M60718 38379
L60820 38075
L60921 38379
" />
<path d="M61182 38379
L61008 38379
" />
<path d="M61095 38379
L61095 38075
L61066 38118
L61037 38147
L61008 38162
" />
<path d="M61747 38292
L61892 38292
" />
<path d="M61718 38379
L61820 38075
L61921 38379
" />
<path d="M62080 38075
L62109 38075
L62138 38090
L62153 38104
L62167 38133
L62182 38191
L62182 38263
L62167 38321
L62153 38350
L62138 38365
L62109 38379
L62080 38379
L62051 38365
L62037 38350
L62022 38321
L62008 38263
L62008 38191
L62022 38133
L62037 38104
L62051 38090
L62080 38075
" />
</g>
<g style="fill:#000000; fill-opacity:0.0; 
stroke:#000000; stroke-width:40; stroke-opacity:1; 
stroke-linecap:round; stroke-linejoin:round;">
<path d="M55318 44549
L55285 44532
L55235 44532
L55185 44549
L55152 44582
L55135 44616
L55118 44682
L55118 44732
L55135 44799
L55152 44832
L55185 44866
L55235 44882
L55268 44882
L55318 44866
L55335 44849
L55335 44732
L55268 44732
" />
<path d="M55668 44882
L55468 44882
" />
<path d="M55568 44882
L55568 44532
L55535 44582
L55502 44616
L55468 44632
" />
</g>
<g style="fill:#000000; fill-opacity:0.0; 
stroke:#000000; stroke-width:39.3701; stroke-opacity:1; 
stroke-linecap:round; stroke-linejoin:round;">
<path d="M59462 41397
L59425 41378
L59369 41378
L59312 41397
L59275 41435
L59256 41472
L59237 41547
L59237 41603
L59256 41678
L59275 41716
L59312 41753
L59369 41772
L59406 41772
L59462 41753
L59481 41735
L59481 41603
L59406 41603
" />
<path d="M59631 41416
L59650 41397
L59687 41378
L59781 41378
L59819 41397
L59837 41416
L59856 41453
L59856 41491
L59837 41547
L59612 41772
L59856 41772
" />
</g>
<g style="fill:#000000; fill-opacity:0.0; 
stroke:#000000; stroke-width:50; stroke-opacity:1; 
stroke-linecap:round; stroke-linejoin:round;">
<path d="M63520 40559
L63746 40333
" />
<path d="M63649 40689
L63682 40462
" />
<path d="M63876 40462
L63617 40462
" />
<path d="M63865 40904
L63735 40775
" />
<path d="M63800 40839
L64026 40613
L63972 40624
L63929 40624
L63897 40613
" />
<path d="M54360 44030
L53860 44030
" />
<path d="M54360 43744
L54074 43959
" />
<path d="M53860 43744
L54145 44030
" />
<path d="M53907 43554
L53883 43530
L53860 43482
L53860 43363
L53883 43316
L53907 43292
L53955 43268
L54002 43268
L54074 43292
L54360 43578
L54360 43268
" />
</g>
<g style="fill:#000000; fill-opacity:0.0; 
stroke:#000000; stroke-width:30; stroke-opacity:1; 
stroke-linecap:round; stroke-linejoin:round;">
<path d="M68082 42842
L68097 42796
L68097 42720
L68082 42689
L68067 42674
L68036 42659
L68006 42659
L67975 42674
L67960 42689
L67945 42720
L67929 42781
L67914 42811
L67899 42826
L67868 42842
L67838 42842
L67807 42826
L67792 42811
L67777 42781
L67777 42705
L67792 42659
" />
<path d="M68097 42354
L68097 42537
" />
<path d="M68097 42446
L67777 42446
L67823 42476
L67853 42506
L67868 42537
" />
</g>
<g style="fill:#000000; fill-opacity:0.0; 
stroke:#000000; stroke-width:59.0551; stroke-opacity:1; 
stroke-linecap:round; stroke-linejoin:round;">
</g>
<g style="fill:#000000; fill-opacity:0.0; 
stroke:#000000; stroke-width:60; stroke-opacity:1; 
stroke-linecap:round; stroke-linejoin:round;">
<path d="M45533 39252
L45579 39267
L45655 39267
L45685 39252
L45701 39236
L45716 39206
L45716 39175
L45701 39145
L45685 39130
L45655 39114
L45594 39099
L45563 39084
L45548 39069
L45533 39038
L45533 39008
L45548 38977
L45563 38962
L45594 38947
L45670 38947
L45716 38962
" />
<path d="M45944 38947
L45944 39175
L45929 39221
L45899 39252
L45853 39267
L45822 39267
" />
<path d="M46264 39267
L46082 39267
" />
<path d="M46173 39267
L46173 38947
L46142 38993
L46112 39023
L46082 39038
" />
</g>
<g style="fill:#000000; fill-opacity:0.0; 
stroke:#000000; stroke-width:20; stroke-opacity:1; 
stroke-linecap:round; stroke-linejoin:round;">
</g>
<g style="fill:#000000; fill-opacity:0.0; 
stroke:#000000; stroke-width:40; stroke-opacity:1; 
stroke-linecap:round; stroke-linejoin:round;">
<path d="M47918 40795
L48268 40561
" />
<path d="M47918 40561
L48268 40795
" />
<path d="M48268 40245
L48268 40445
" />
<path d="M48268 40345
L47918 40345
L47968 40378
L48001 40411
L48018 40445
" />
</g>
<g style="fill:#000000; fill-opacity:0.0; 
stroke:#000000; stroke-width:30; stroke-opacity:1; 
stroke-linecap:round; stroke-linejoin:round;">
<path d="M46044 42453
L45794 42453
L45972 42369
L45794 42286
L46044 42286
" />
<path d="M46044 42167
L45794 42167
" />
<path d="M46044 42048
L45794 42048
L46044 41905
L45794 41905
" />
<path d="M46044 41786
L45794 41786
" />
<path d="M45948 41667
L45948 41476
" />
<path d="M45794 41357
L45996 41357
L46020 41345
L46032 41334
L46044 41310
L46044 41262
L46032 41238
L46020 41226
L45996 41215
L45794 41215
" />
<path d="M46032 41107
L46044 41072
L46044 41012
L46032 40988
L46020 40976
L45996 40965
L45972 40965
L45948 40976
L45937 40988
L45925 41012
L45913 41060
L45901 41084
L45889 41095
L45865 41107
L45841 41107
L45818 41095
L45806 41084
L45794 41060
L45794 41000
L45806 40965
" />
<path d="M45913 40774
L45925 40738
L45937 40726
L45960 40715
L45996 40715
L46020 40726
L46032 40738
L46044 40762
L46044 40857
L45794 40857
L45794 40774
L45806 40750
L45818 40738
L45841 40726
L45865 40726
L45889 40738
L45901 40750
L45913 40774
L45913 40857
" />
</g>
<g style="fill:#000000; fill-opacity:0.0; 
stroke:#000000; stroke-width:59.0551; stroke-opacity:1; 
stroke-linecap:round; stroke-linejoin:round;">
<path d="M50455 39711
L50474 39730
L50493 39786
L50493 39823
L50474 39880
L50436 39917
L50399 39936
L50324 39955
L50268 39955
L50193 39936
L50155 39917
L50118 39880
L50099 39823
L50099 39786
L50118 39730
L50136 39711
" />
<path d="M50493 39336
L50493 39561
" />
<path d="M50493 39448
L50099 39448
L50155 39486
L50193 39523
L50211 39561
" />
<path d="M60396 43841
L60378 43860
L60321 43878
L60284 43878
L60228 43860
L60190 43822
L60172 43785
L60153 43710
L60153 43653
L60172 43578
L60190 43541
L60228 43503
L60284 43485
L60321 43485
L60378 43503
L60396 43522
" />
<path d="M60734 43616
L60734 43878
" />
<path d="M60640 43466
L60546 43747
L60790 43747
" />
<path d="M58368 39475
L58387 39493
L58406 39550
L58406 39587
L58387 39643
L58350 39681
L58312 39700
L58237 39718
L58181 39718
L58106 39700
L58068 39681
L58031 39643
L58012 39587
L58012 39550
L58031 39493
L58050 39475
" />
<path d="M58012 39343
L58012 39081
L58406 39250
" />
<path d="M59077 39475
L59096 39493
L59115 39550
L59115 39587
L59096 39643
L59058 39681
L59021 39700
L58946 39718
L58890 39718
L58815 39700
L58777 39681
L58740 39643
L58721 39587
L58721 39550
L58740 39493
L58758 39475
" />
<path d="M58890 39250
L58871 39287
L58852 39306
L58815 39325
L58796 39325
L58758 39306
L58740 39287
L58721 39250
L58721 39175
L58740 39137
L58758 39118
L58796 39100
L58815 39100
L58852 39118
L58871 39137
L58890 39175
L58890 39250
L58908 39287
L58927 39306
L58965 39325
L59040 39325
L59077 39306
L59096 39287
L59115 39250
L59115 39175
L59096 39137
L59077 39118
L59040 39100
L58965 39100
L58927 39118
L58908 39137
L58890 39175
" />
<path d="M66145 43142
L66126 43161
L66070 43180
L66032 43180
L65976 43161
L65938 43123
L65920 43086
L65901 43011
L65901 42955
L65920 42880
L65938 42842
L65976 42805
L66032 42786
L66070 42786
L66126 42805
L66145 42823
" />
<path d="M66332 43180
L66407 43180
L66444 43161
L66463 43142
L66501 43086
L66519 43011
L66519 42861
L66501 42823
L66482 42805
L66444 42786
L66369 42786
L66332 42805
L66313 42823
L66294 42861
L66294 42955
L66313 42992
L66332 43011
L66369 43030
L66444 43030
L66482 43011
L66501 42992
L66519 42955
" />
<path d="M58841 42620
L58822 42639
L58766 42658
L58728 42658
L58672 42639
L58635 42602
L58616 42564
L58597 42489
L58597 42433
L58616 42358
L58635 42320
L58672 42283
L58728 42264
L58766 42264
L58822 42283
L58841 42302
" />
<path d="M59216 42658
L58991 42658
" />
<path d="M59103 42658
L59103 42264
L59066 42320
L59028 42358
L58991 42377
" />
<path d="M59460 42264
L59497 42264
L59535 42283
L59553 42302
L59572 42339
L59591 42414
L59591 42508
L59572 42583
L59553 42620
L59535 42639
L59497 42658
L59460 42658
L59422 42639
L59403 42620
L59385 42583
L59366 42508
L59366 42414
L59385 42339
L59403 42302
L59422 42283
L59460 42264
" />
<path d="M55258 42620
L55239 42639
L55183 42658
L55146 42658
L55089 42639
L55052 42602
L55033 42564
L55014 42489
L55014 42433
L55033 42358
L55052 42320
L55089 42283
L55146 42264
L55183 42264
L55239 42283
L55258 42302
" />
<path d="M55633 42658
L55408 42658
" />
<path d="M55521 42658
L55521 42264
L55483 42320
L55446 42358
L55408 42377
" />
<path d="M56008 42658
L55783 42658
" />
<path d="M55896 42658
L55896 42264
L55858 42320
L55821 42358
L55783 42377
" />
<path d="M51321 44471
L51302 44490
L51246 44508
L51209 44508
L51152 44490
L51115 44452
L51096 44415
L51077 44340
L51077 44283
L51096 44208
L51115 44171
L51152 44133
L51209 44115
L51246 44115
L51302 44133
L51321 44152
" />
<path d="M51696 44508
L51471 44508
" />
<path d="M51584 44508
L51584 44115
L51546 44171
L51509 44208
L51471 44227
" />
<path d="M51846 44152
L51865 44133
L51902 44115
L51996 44115
L52034 44133
L52052 44152
L52071 44190
L52071 44227
L52052 44283
L51827 44508
L52071 44508
" />
<path d="M49461 44156
L49443 44175
L49386 44193
L49349 44193
L49293 44175
L49255 44137
L49236 44100
L49218 44025
L49218 43968
L49236 43893
L49255 43856
L49293 43818
L49349 43800
L49386 43800
L49443 43818
L49461 43837
" />
<path d="M49611 43837
L49630 43818
L49668 43800
L49761 43800
L49799 43818
L49818 43837
L49836 43875
L49836 43912
L49818 43968
L49593 44193
L49836 44193
" />
<path d="M49943 41601
L49962 41619
L49981 41676
L49981 41713
L49962 41769
L49925 41807
L49887 41826
L49812 41844
L49756 41844
L49681 41826
L49643 41807
L49606 41769
L49587 41713
L49587 41676
L49606 41619
L49625 41601
" />
<path d="M49587 41469
L49587 41226
L49737 41357
L49737 41301
L49756 41263
L49775 41244
L49812 41226
L49906 41226
L49943 41244
L49962 41263
L49981 41301
L49981 41413
L49962 41451
L49943 41469
" />
<path d="M66204 41144
L66185 41163
L66129 41182
L66091 41182
L66035 41163
L65997 41125
L65979 41088
L65960 41013
L65960 40957
L65979 40882
L65997 40844
L66035 40807
L66091 40788
L66129 40788
L66185 40807
L66204 40825
" />
<path d="M66560 40788
L66372 40788
L66354 40975
L66372 40957
L66410 40938
L66504 40938
L66541 40957
L66560 40975
L66579 41013
L66579 41107
L66560 41144
L66541 41163
L66504 41182
L66410 41182
L66372 41163
L66354 41144
" />
<path d="M56872 39081
L56891 39100
L56910 39156
L56910 39193
L56891 39250
L56854 39287
L56816 39306
L56741 39325
L56685 39325
L56610 39306
L56572 39287
L56535 39250
L56516 39193
L56516 39156
L56535 39100
L56554 39081
" />
<path d="M56516 38743
L56516 38818
L56535 38856
L56554 38875
L56610 38912
L56685 38931
L56835 38931
L56872 38912
L56891 38893
L56910 38856
L56910 38781
L56891 38743
L56872 38725
L56835 38706
L56741 38706
L56704 38725
L56685 38743
L56666 38781
L56666 38856
L56685 38893
L56704 38912
L56741 38931
" />
<path d="M67662 39430
L67662 39036
L67812 39036
L67849 39055
L67868 39073
L67887 39111
L67887 39167
L67868 39205
L67849 39223
L67812 39242
L67662 39242
" />
<path d="M68262 39430
L68037 39430
" />
<path d="M68149 39430
L68149 39036
L68112 39092
L68074 39130
L68037 39148
" />
<path d="M45013 38878
L44881 38691
" />
<path d="M44788 38878
L44788 38485
L44938 38485
L44975 38503
L44994 38522
L45013 38560
L45013 38616
L44994 38653
L44975 38672
L44938 38691
L44788 38691
" />
<path d="M45388 38878
L45163 38878
" />
<path d="M45275 38878
L45275 38485
L45238 38541
L45200 38578
L45163 38597
" />
<path d="M56083 39514
L55896 39645
" />
<path d="M56083 39739
L55689 39739
L55689 39589
L55708 39551
L55727 39533
L55764 39514
L55821 39514
L55858 39533
L55877 39551
L55896 39589
L55896 39739
" />
<path d="M55727 39364
L55708 39345
L55689 39308
L55689 39214
L55708 39176
L55727 39158
L55764 39139
L55802 39139
L55858 39158
L56083 39383
L56083 39139
" />
<path d="M57697 39553
L57510 39685
" />
<path d="M57697 39778
L57304 39778
L57304 39628
L57322 39591
L57341 39572
L57379 39553
L57435 39553
L57472 39572
L57491 39591
L57510 39628
L57510 39778
" />
<path d="M57304 39422
L57304 39178
L57454 39310
L57454 39253
L57472 39216
L57491 39197
L57529 39178
L57622 39178
L57660 39197
L57679 39216
L57697 39253
L57697 39366
L57679 39403
L57660 39422
" />
<path d="M54822 40405
L54634 40536
" />
<path d="M54822 40630
L54428 40630
L54428 40480
L54447 40443
L54466 40424
L54503 40405
L54559 40405
L54597 40424
L54616 40443
L54634 40480
L54634 40630
" />
<path d="M54559 40068
L54822 40068
" />
<path d="M54409 40161
L54691 40255
L54691 40011
" />
<path d="M48615 39518
L48484 39331
" />
<path d="M48390 39518
L48390 39124
L48540 39124
L48577 39143
L48596 39162
L48615 39199
L48615 39256
L48596 39293
L48577 39312
L48540 39331
L48390 39331
" />
<path d="M48971 39124
L48784 39124
L48765 39312
L48784 39293
L48821 39274
L48915 39274
L48952 39293
L48971 39312
L48990 39349
L48990 39443
L48971 39481
L48952 39499
L48915 39518
L48821 39518
L48784 39499
L48765 39481
" />
<path d="M48645 40276
L48513 40089
" />
<path d="M48420 40276
L48420 39882
L48570 39882
L48607 39901
L48626 39920
L48645 39957
L48645 40014
L48626 40051
L48607 40070
L48570 40089
L48420 40089
" />
<path d="M48982 39882
L48907 39882
L48869 39901
L48851 39920
L48813 39976
L48794 40051
L48794 40201
L48813 40239
L48832 40257
L48869 40276
L48944 40276
L48982 40257
L49001 40239
L49019 40201
L49019 40107
L49001 40070
L48982 40051
L48944 40032
L48869 40032
L48832 40051
L48813 40070
L48794 40107
" />
<path d="M69353 39341
L69222 39154
" />
<path d="M69128 39341
L69128 38947
L69278 38947
L69316 38966
L69334 38985
L69353 39022
L69353 39079
L69334 39116
L69316 39135
L69278 39154
L69128 39154
" />
<path d="M69578 39116
L69541 39097
L69522 39079
L69503 39041
L69503 39022
L69522 38985
L69541 38966
L69578 38947
L69653 38947
L69691 38966
L69709 38985
L69728 39022
L69728 39041
L69709 39079
L69691 39097
L69653 39116
L69578 39116
L69541 39135
L69522 39154
L69503 39191
L69503 39266
L69522 39303
L69541 39322
L69578 39341
L69653 39341
L69691 39322
L69709 39303
L69728 39266
L69728 39191
L69709 39154
L69691 39135
L69653 39116
" />
<path d="M67887 44863
L67755 44675
" />
<path d="M67662 44863
L67662 44469
L67812 44469
L67849 44488
L67868 44506
L67887 44544
L67887 44600
L67868 44638
L67849 44656
L67812 44675
L67662 44675
" />
<path d="M68018 44469
L68280 44469
L68112 44863
" />
</g>
<g style="fill:#000000; fill-opacity:0.0; 
stroke:#000000; stroke-width:80; stroke-opacity:1; 
stroke-linecap:round; stroke-linejoin:round;">
<path d="M58665 42990
L56265 42990
" />
<path d="M58665 44690
L56265 44690
" />
<path d="M58665 44690 A850 850 0.0 0 0 58665 42990 " />
<path d="M56265 42990 A850 850 0.0 0 0 56265 44690 " />
</g>
<g style="fill:#000000; fill-opacity:0.0; 
stroke:#000000; stroke-width:60; stroke-opacity:1; 
stroke-linecap:round; stroke-linejoin:round;">
<path d="M55915 41890
L55915 41290
" />
<path d="M58365 41190
L56015 41190
" />
<path d="M58365 41990
L56015 41990
" />
<path d="M58365 41190
L58365 41990
" />
<path d="M56015 41190 A100 100 0.0 0 0 55915 41290 " />
<path d="M55915 41890 A100 100 0.0 0 0 56015 41990 " />
</g>
<g style="fill:#000000; fill-opacity:0.0; 
stroke:#000000; stroke-width:78; stroke-opacity:1; 
stroke-linecap:round; stroke-linejoin:round;">
<path d="M62437 39391
L60489 41340
" />
<path d="M60489 41340
L62715 43565
" />
<path d="M62715 43565
L64940 41340
" />
<path d="M64940 41340
L62992 39391
" />
<path d="M62992 39391
L62437 39391
" />
</g>
<g style="fill:#000000; fill-opacity:0.0; 
stroke:#000000; stroke-width:45; stroke-opacity:1; 
stroke-linecap:round; stroke-linejoin:round;">
<circle cx="62715" cy="39893.3" r="141.421" /> 
</g>
<g style="fill:#000000; fill-opacity:0.0; 
stroke:#000000; stroke-width:60; stroke-opacity:1; 
stroke-linecap:round; stroke-linejoin:round;">
<path d="M51309 40684
L53671 40684
" />
<path d="M53671 40684
L53671 43046
" />
<path d="M53671 43046
L51546 43046
" />
<path d="M51309 42809
L51309 40684
" />
<path d="M51309 42809
L51546 43046
" />
</g>
<g style="fill:#000000; fill-opacity:0.0; 
stroke:#000000; stroke-width:30; stroke-opacity:1; 
stroke-linecap:round; stroke-linejoin:round;">
<circle cx="51703" cy="42652" r="96.1665" /> 
</g>
<g style="fill:#000000; fill-opacity:0.0; 
stroke:#000000; stroke-width:90; stroke-opacity:1; 
stroke-linecap:round; stroke-linejoin:round;">
<path d="M68715 41840
L68715 40840
" />
<path d="M68465 40590
L67465 40590
" />
<path d="M67215 40840
L67215 41840
" />
<path d="M67465 42090
L68465 42090
" />
</g>
<g style="fill:#000000; fill-opacity:0.0; 
stroke:#000000; stroke-width:45; stroke-opacity:1; 
stroke-linecap:round; stroke-linejoin:round;">
<circle cx="67965" cy="41340" r="141.421" /> 
</g>
<g style="fill:#000000; fill-opacity:0.0; 
stroke:#000000; stroke-width:90; stroke-opacity:1; 
stroke-linecap:round; stroke-linejoin:round;">
<path d="M68715 40840 A250 250 0.0 0 0 68465 40590 " />
<path d="M67465 40590 A250 250 0.0 0 0 67215 40840 " />
<path d="M67215 41840 A250 250 0.0 0 0 67465 42090 " />
<path d="M68465 42090 A250 250 0.0 0 0 68715 41840 " />
</g>
<g style="fill:#000000; fill-opacity:0.0; 
stroke:#000000; stroke-width:26; stroke-opacity:1; 
stroke-linecap:round; stroke-linejoin:round;">
<path d="M46938 39198
L46998 39198
" />
<path d="M46998 39198
L46998 38478
" />
<path d="M46938 38478
L46998 38478
" />
<path d="M46938 39198
L46938 38478
" />
</g>
<g style="fill:#000000; fill-opacity:0.0; 
stroke:#000000; stroke-width:80; stroke-opacity:1; 
stroke-linecap:round; stroke-linejoin:round;">
<path d="M47518 39238
L46418 39238
" />
<path d="M47618 39138
L47618 38538
" />
<path d="M46318 39138
L46318 38538
" />
<path d="M46418 38438
L47518 38438
" />
<path d="M47618.5 38538.6 A100 100 0.0 0 0 47518.5 38438.6 " />
<path d="M46418.5 38438.6 A100 100 0.0 0 0 46318.5 38538.6 " />
<path d="M46318.5 39138.6 A100 100 0.0 0 0 46418.5 39238.6 " />
<path d="M47518.5 39238.6 A100 100 0.0 0 0 47618.5 39138.6 " />
</g>
<g style="fill:#000000; fill-opacity:0.0; 
stroke:#000000; stroke-width:78; stroke-opacity:1; 
stroke-linecap:round; stroke-linejoin:round;">
<path d="M46438 40090
L46910 40090
" />
<path d="M47805 40291
L47805 40764
" />
<path d="M47805 42416
L47805 42810
" />
<path d="M46949 43090
L46438 43090
" />
</g>
<g style="fill:#000000; fill-opacity:0.0; 
stroke:#000000; stroke-width:47.2441; stroke-opacity:1; 
stroke-linecap:round; stroke-linejoin:round;">
<path d="M50580 39724
L50580 39448
" />
<path d="M51053 39448
L51053 39724
" />
<path d="M60324 44055
L60600 44055
" />
<path d="M60600 44527
L60324 44527
" />
<path d="M58454 40206
L58454 40482
" />
<path d="M57982 40482
L57982 40206
" />
<path d="M58681 40482
L58681 40206
" />
<path d="M59153 40206
L59153 40482
" />
<path d="M66072 43356
L66348 43356
" />
<path d="M66348 43828
L66072 43828
" />
<path d="M58051 42726
L57775 42726
" />
<path d="M57775 42253
L58051 42253
" />
<path d="M56525 42253
L56801 42253
" />
<path d="M56801 42726
L56525 42726
" />
<path d="M52529 44104
L52805 44104
" />
<path d="M52805 44576
L52529 44576
" />
<path d="M49320 43720
L49714 43720
" />
<path d="M49714 43051
L49320 43051
" />
<path d="M49498 41712
L49498 41318
" />
<path d="M48828 41318
L48828 41712
" />
<path d="M66131 41358
L66407 41358
" />
<path d="M66407 41830
L66131 41830
" />
<path d="M57047 40285
L57047 39891
" />
<path d="M56377 39891
L56377 40285
" />
<path d="M68671 38868
L68671 38316
" />
<path d="M68671 38316
L67568 38316
" />
<path d="M68671 38868
L67568 38868
" />
<path d="M45415 37608
L45415 38080
" />
<path d="M44722 38080
L44722 37608
" />
<path d="M55637 40531
L55637 40137
" />
<path d="M56173 40137
L56173 40531
" />
<path d="M57787 40147
L57787 40541
" />
<path d="M57251 40541
L57251 40147
" />
<path d="M55482 40143
L55482 40536
" />
<path d="M54947 40536
L54947 40143
" />
<path d="M49714 39608
L49320 39608
" />
<path d="M49320 39072
L49714 39072
" />
<path d="M49714 40356
L49320 40356
" />
<path d="M49320 39820
L49714 39820
" />
<path d="M69222 38324
L69616 38324
" />
<path d="M69616 38860
L69222 38860
" />
<path d="M67653 43078
L67653 43444
" />
<path d="M67653 44322
L67653 43956
" />
<path d="M67653 44322
L68503 44322
" />
<path d="M67653 43078
L68228 43078
" />
</g> 
</svg>
