G04 #@! TF.GenerationSoftware,KiCad,Pcbnew,(5.1.2)-2*
G04 #@! TF.CreationDate,2019-10-24T20:02:35-04:00*
G04 #@! TF.ProjectId,T32_ref,5433325f-7265-4662-9e6b-696361645f70,rev?*
G04 #@! TF.SameCoordinates,Original*
G04 #@! TF.FileFunction,Copper,L1,Top*
G04 #@! TF.FilePolarity,Positive*
%FSLAX46Y46*%
G04 Gerber Fmt 4.6, Leading zero omitted, Abs format (unit mm)*
G04 Created by KiCad (PCBNEW (5.1.2)-2) date 2019-10-24 20:02:35*
%MOMM*%
%LPD*%
G04 APERTURE LIST*
%ADD10C,1.320800*%
%ADD11C,1.143000*%
%ADD12C,0.248920*%
%ADD13C,0.248920*%
%ADD14R,0.398780X1.297940*%
%ADD15R,1.297940X0.398780*%
%ADD16C,1.879600*%
%ADD17R,1.168400X1.600200*%
%ADD18R,2.540000X0.508000*%
%ADD19R,3.497580X1.998980*%
%ADD20R,3.197860X1.998980*%
%ADD21C,1.457960*%
%ADD22C,1.498600*%
%ADD23R,0.750000X0.800000*%
%ADD24R,0.800000X0.750000*%
%ADD25R,1.000000X1.250000*%
%ADD26R,1.250000X1.000000*%
%ADD27R,1.200000X1.200000*%
%ADD28R,1.300000X0.700000*%
%ADD29R,0.900000X0.500000*%
%ADD30R,0.500000X0.900000*%
%ADD31R,0.900000X0.800000*%
%ADD32C,0.457000*%
%ADD33C,0.127000*%
G04 APERTURE END LIST*
D10*
X148374100Y-111353600D03*
X143548100Y-111353600D03*
D11*
X149771100Y-106324400D03*
X149771100Y-104952800D03*
D12*
X157771253Y-98166033D03*
D13*
X158107115Y-98501895D02*
X157435391Y-97830171D01*
D12*
X157412042Y-98525243D03*
D13*
X157747904Y-98861105D02*
X157076180Y-98189381D01*
D12*
X157052832Y-98884453D03*
D13*
X157388694Y-99220315D02*
X156716970Y-98548591D01*
D12*
X156711582Y-99225703D03*
D13*
X157047444Y-99561565D02*
X156375720Y-98889841D01*
D12*
X156352372Y-99584913D03*
D13*
X156688234Y-99920775D02*
X156016510Y-99249051D01*
D12*
X155993162Y-99944124D03*
D13*
X156329024Y-100279986D02*
X155657300Y-99608262D01*
D12*
X155651912Y-100285373D03*
D13*
X155987774Y-100621235D02*
X155316050Y-99949511D01*
D12*
X155292702Y-100644584D03*
D13*
X155628564Y-100980446D02*
X154956840Y-100308722D01*
D12*
X154935288Y-101001998D03*
D13*
X155271150Y-101337860D02*
X154599426Y-100666136D01*
D12*
X154576077Y-101361208D03*
D13*
X154911939Y-101697070D02*
X154240215Y-101025346D01*
D12*
X154234828Y-101702458D03*
D13*
X154570690Y-102038320D02*
X153898966Y-101366596D01*
D12*
X153875617Y-102061668D03*
D13*
X154211479Y-102397530D02*
X153539755Y-101725806D01*
D12*
X153516407Y-102420878D03*
D13*
X153852269Y-102756740D02*
X153180545Y-102085016D01*
D12*
X153175157Y-102762128D03*
D13*
X153511019Y-103097990D02*
X152839295Y-102426266D01*
D12*
X152815947Y-103121338D03*
D13*
X153151809Y-103457200D02*
X152480085Y-102785476D01*
D12*
X152456737Y-103480549D03*
D13*
X152792599Y-103816411D02*
X152120875Y-103144687D01*
D12*
X152456737Y-106526651D03*
D13*
X152120875Y-106862513D02*
X152792599Y-106190789D01*
D12*
X152815947Y-106885862D03*
D13*
X152480085Y-107221724D02*
X153151809Y-106550000D01*
D12*
X153175157Y-107245072D03*
D13*
X152839295Y-107580934D02*
X153511019Y-106909210D01*
D12*
X153516407Y-107586322D03*
D13*
X153180545Y-107922184D02*
X153852269Y-107250460D01*
D12*
X153875617Y-107945532D03*
D13*
X153539755Y-108281394D02*
X154211479Y-107609670D01*
D12*
X154234828Y-108304742D03*
D13*
X153898966Y-108640604D02*
X154570690Y-107968880D01*
D12*
X154576077Y-108645992D03*
D13*
X154240215Y-108981854D02*
X154911939Y-108310130D01*
D12*
X154935288Y-109005202D03*
D13*
X154599426Y-109341064D02*
X155271150Y-108669340D01*
D12*
X155292702Y-109362616D03*
D13*
X154956840Y-109698478D02*
X155628564Y-109026754D01*
D12*
X155651912Y-109721827D03*
D13*
X155316050Y-110057689D02*
X155987774Y-109385965D01*
D12*
X155993162Y-110063076D03*
D13*
X155657300Y-110398938D02*
X156329024Y-109727214D01*
D12*
X156352372Y-110422287D03*
D13*
X156016510Y-110758149D02*
X156688234Y-110086425D01*
D12*
X156711582Y-110781497D03*
D13*
X156375720Y-111117359D02*
X157047444Y-110445635D01*
D12*
X157052832Y-111122747D03*
D13*
X156716970Y-111458609D02*
X157388694Y-110786885D01*
D12*
X157412042Y-111481957D03*
D13*
X157076180Y-111817819D02*
X157747904Y-111146095D01*
D12*
X157771253Y-111841167D03*
D13*
X157435391Y-112177029D02*
X158107115Y-111505305D01*
D12*
X160819151Y-111842963D03*
D13*
X161155013Y-112178825D02*
X160483289Y-111507101D01*
D12*
X161178362Y-111483753D03*
D13*
X161514224Y-111819615D02*
X160842500Y-111147891D01*
D12*
X161537572Y-111124543D03*
D13*
X161873434Y-111460405D02*
X161201710Y-110788681D01*
D12*
X161878822Y-110783293D03*
D13*
X162214684Y-111119155D02*
X161542960Y-110447431D01*
D12*
X162238032Y-110424083D03*
D13*
X162573894Y-110759945D02*
X161902170Y-110088221D01*
D12*
X162597242Y-110064872D03*
D13*
X162933104Y-110400734D02*
X162261380Y-109729010D01*
D12*
X162938492Y-109723623D03*
D13*
X163274354Y-110059485D02*
X162602630Y-109387761D01*
D12*
X163297702Y-109364412D03*
D13*
X163633564Y-109700274D02*
X162961840Y-109028550D01*
D12*
X163655116Y-109006998D03*
D13*
X163990978Y-109342860D02*
X163319254Y-108671136D01*
D12*
X164014327Y-108647788D03*
D13*
X164350189Y-108983650D02*
X163678465Y-108311926D01*
D12*
X164355576Y-108306538D03*
D13*
X164691438Y-108642400D02*
X164019714Y-107970676D01*
D12*
X164714787Y-107947328D03*
D13*
X165050649Y-108283190D02*
X164378925Y-107611466D01*
D12*
X165073997Y-107588118D03*
D13*
X165409859Y-107923980D02*
X164738135Y-107252256D01*
D12*
X165415247Y-107246868D03*
D13*
X165751109Y-107582730D02*
X165079385Y-106911006D01*
D12*
X165774457Y-106887658D03*
D13*
X166110319Y-107223520D02*
X165438595Y-106551796D01*
D12*
X166133667Y-106528447D03*
D13*
X166469529Y-106864309D02*
X165797805Y-106192585D01*
D12*
X166133667Y-103478753D03*
D13*
X165797805Y-103814615D02*
X166469529Y-103142891D01*
D12*
X165774457Y-103119542D03*
D13*
X165438595Y-103455404D02*
X166110319Y-102783680D01*
D12*
X165415247Y-102760332D03*
D13*
X165079385Y-103096194D02*
X165751109Y-102424470D01*
D12*
X165073997Y-102419082D03*
D13*
X164738135Y-102754944D02*
X165409859Y-102083220D01*
D12*
X164714787Y-102059872D03*
D13*
X164378925Y-102395734D02*
X165050649Y-101724010D01*
D12*
X164355576Y-101700662D03*
D13*
X164019714Y-102036524D02*
X164691438Y-101364800D01*
D12*
X164014327Y-101359412D03*
D13*
X163678465Y-101695274D02*
X164350189Y-101023550D01*
D12*
X163655116Y-101000202D03*
D13*
X163319254Y-101336064D02*
X163990978Y-100664340D01*
D12*
X163297702Y-100642788D03*
D13*
X162961840Y-100978650D02*
X163633564Y-100306926D01*
D12*
X162938492Y-100283577D03*
D13*
X162602630Y-100619439D02*
X163274354Y-99947715D01*
D12*
X162597242Y-99942328D03*
D13*
X162261380Y-100278190D02*
X162933104Y-99606466D01*
D12*
X162238032Y-99583117D03*
D13*
X161902170Y-99918979D02*
X162573894Y-99247255D01*
D12*
X161878822Y-99223907D03*
D13*
X161542960Y-99559769D02*
X162214684Y-98888045D01*
D12*
X161537572Y-98882657D03*
D13*
X161201710Y-99218519D02*
X161873434Y-98546795D01*
D12*
X161178362Y-98523447D03*
D13*
X160842500Y-98859309D02*
X161514224Y-98187585D01*
D12*
X160819151Y-98164237D03*
D13*
X160483289Y-98500099D02*
X161155013Y-97828375D01*
D14*
X130525520Y-110827820D03*
X131325620Y-110827820D03*
X132125720Y-110827820D03*
X132925820Y-110827820D03*
X133723380Y-110827820D03*
X134523480Y-110827820D03*
X135323580Y-110827820D03*
X136123680Y-110827820D03*
D15*
X137815320Y-109136180D03*
X137815320Y-108336080D03*
X137815320Y-107535980D03*
X137815320Y-106735880D03*
X137815320Y-105938320D03*
X137815320Y-105138220D03*
X137815320Y-104338120D03*
X137815320Y-103538020D03*
D14*
X136123680Y-101846380D03*
X135323580Y-101846380D03*
X134523480Y-101846380D03*
X133723380Y-101846380D03*
X132925820Y-101846380D03*
X132125720Y-101846380D03*
X131325620Y-101846380D03*
X130525520Y-101846380D03*
D15*
X128833880Y-103538020D03*
X128833880Y-104338120D03*
X128833880Y-105138220D03*
X128833880Y-105938320D03*
X128833880Y-106735880D03*
X128833880Y-107535980D03*
X128833880Y-108336080D03*
X128833880Y-109136180D03*
D16*
X170370500Y-108254800D03*
X170370500Y-101752400D03*
X174891700Y-108254800D03*
X174891700Y-101752400D03*
X176730660Y-105003600D03*
D17*
X118538000Y-98650000D03*
X120059460Y-98650000D03*
D18*
X121043960Y-104040940D03*
X121043960Y-104841040D03*
X121043960Y-105638600D03*
X121043960Y-106436160D03*
X121043960Y-107236260D03*
D19*
X115852200Y-110136940D03*
X115852200Y-101140260D03*
D20*
X121150640Y-110136940D03*
X121150640Y-101140260D03*
D21*
X118227100Y-103438960D03*
X118227100Y-107838240D03*
D22*
X116751100Y-93573600D03*
X119291100Y-93573600D03*
X121831100Y-93573600D03*
X124371100Y-93573600D03*
X134531100Y-93573600D03*
X137071100Y-93573600D03*
X139611100Y-93573600D03*
X142151100Y-93573600D03*
X144691100Y-93573600D03*
X147231100Y-93573600D03*
X149771100Y-93573600D03*
X131991100Y-93573600D03*
X152311100Y-93573600D03*
X129451100Y-93573600D03*
X154851100Y-93573600D03*
X126911100Y-93573600D03*
X157391100Y-93573600D03*
X159931100Y-93573600D03*
X159931100Y-116433600D03*
X157391100Y-116433600D03*
X154851100Y-116433600D03*
X152311100Y-116433600D03*
X149771100Y-116433600D03*
X147231100Y-116433600D03*
X144691100Y-116433600D03*
X142151100Y-116433600D03*
X139611100Y-116433600D03*
X137071100Y-116433600D03*
X134531100Y-116433600D03*
X131991100Y-116433600D03*
X129451100Y-116433600D03*
X126911100Y-116433600D03*
X162471100Y-93573600D03*
X165011100Y-93573600D03*
X167551100Y-93573600D03*
X170091100Y-93573600D03*
X172631100Y-93573600D03*
X182791100Y-99923600D03*
X175171100Y-93573600D03*
X182791100Y-102463600D03*
X177711100Y-93573600D03*
X182791100Y-105003600D03*
X177711100Y-116433600D03*
X182791100Y-107543600D03*
X175171100Y-116433600D03*
X182791100Y-110083600D03*
X172631100Y-116433600D03*
X170091100Y-116433600D03*
X167551100Y-116433600D03*
X165011100Y-116433600D03*
X162471100Y-116433600D03*
X180251100Y-116433600D03*
X114211100Y-116433600D03*
X180251100Y-93573600D03*
X182791100Y-93573600D03*
X124371100Y-116433600D03*
X121831100Y-116433600D03*
X119291100Y-116433600D03*
X116751100Y-116433600D03*
X182791100Y-116433600D03*
D23*
X129075000Y-101300000D03*
X129075000Y-99800000D03*
D24*
X152825000Y-112500000D03*
X154325000Y-112500000D03*
D23*
X147875000Y-101725000D03*
X147875000Y-103225000D03*
X149650000Y-103225000D03*
X149650000Y-101725000D03*
D24*
X167425000Y-110725000D03*
X168925000Y-110725000D03*
X147850000Y-107925000D03*
X146350000Y-107925000D03*
X143175000Y-107925000D03*
X144675000Y-107925000D03*
X133025000Y-112625000D03*
X134525000Y-112625000D03*
D25*
X126775000Y-110200000D03*
X124775000Y-110200000D03*
D26*
X124875000Y-104450000D03*
X124875000Y-106450000D03*
D24*
X167575000Y-105650000D03*
X169075000Y-105650000D03*
D26*
X144050000Y-100825000D03*
X144050000Y-102825000D03*
D27*
X171525000Y-98025000D03*
X173725000Y-98025000D03*
D28*
X114475000Y-97075000D03*
X114475000Y-95175000D03*
D29*
X142000000Y-101700000D03*
X142000000Y-103200000D03*
X146100000Y-103225000D03*
X146100000Y-101725000D03*
X140246100Y-103213600D03*
X140246100Y-101713600D03*
D30*
X125025000Y-99925000D03*
X126525000Y-99925000D03*
X125025000Y-101825000D03*
X126525000Y-101825000D03*
X177075000Y-98025000D03*
X175575000Y-98025000D03*
D31*
X173600000Y-111950000D03*
X173600000Y-110050000D03*
X171600000Y-111000000D03*
D32*
X130848100Y-105638600D03*
X126911100Y-105638600D03*
X176822100Y-96875600D03*
X124879100Y-107670600D03*
X155867100Y-112369600D03*
X145580100Y-109321600D03*
X160312100Y-112623600D03*
X157518100Y-99923600D03*
X123482100Y-108940600D03*
X134531100Y-109575600D03*
X169456100Y-104368600D03*
X167170100Y-106908600D03*
X140246100Y-104038400D03*
X158661100Y-111226600D03*
X118656100Y-109956600D03*
X118529100Y-101193600D03*
X130000000Y-100425000D03*
X168948100Y-111607600D03*
X127927100Y-101574600D03*
X153600000Y-111775000D03*
X152819100Y-108686600D03*
X141770100Y-108432600D03*
X132626100Y-108559600D03*
X126530100Y-108559600D03*
X159042100Y-108686600D03*
X159423100Y-99288600D03*
X168059100Y-108178600D03*
X179108100Y-108686600D03*
X173012100Y-108559600D03*
X166662100Y-106019600D03*
X173647100Y-112750600D03*
X123482100Y-100050600D03*
X114465100Y-98526600D03*
X146977100Y-100304600D03*
X146977100Y-102641400D03*
X164376100Y-110718600D03*
X164249100Y-105638600D03*
X155486100Y-105384600D03*
X155613100Y-107035600D03*
X158788100Y-94843600D03*
X158788100Y-98399600D03*
X171488100Y-95351600D03*
X156502100Y-95351600D03*
X155486100Y-98145600D03*
X157010100Y-101193600D03*
X127546100Y-100685600D03*
X156502100Y-100812600D03*
X127419100Y-99923600D03*
X130975100Y-99034600D03*
X131991100Y-99542600D03*
X162090100Y-103225600D03*
X161328100Y-104749600D03*
X180251100Y-106273600D03*
X153581100Y-106146600D03*
X136309100Y-112750600D03*
X136055100Y-103733600D03*
X154978100Y-107543600D03*
X154978100Y-103733600D03*
X123228100Y-102844600D03*
X137833100Y-102463600D03*
X139484100Y-107416600D03*
X155994100Y-107670600D03*
X156502100Y-108051600D03*
X156248100Y-102336600D03*
X136817100Y-101574600D03*
X136817100Y-113512600D03*
X136182100Y-104622600D03*
X156756100Y-104368600D03*
X156629100Y-108686600D03*
X166916100Y-96494600D03*
X162725100Y-96494600D03*
X162344100Y-106908600D03*
X160820100Y-106908600D03*
X160566100Y-109321600D03*
X158915100Y-113639600D03*
X159375000Y-110850000D03*
X150533100Y-114782600D03*
X152311100Y-110464600D03*
X151041100Y-115417600D03*
X152057100Y-111353600D03*
X137833100Y-113766600D03*
X137071100Y-110718600D03*
X136944100Y-102336600D03*
X160439100Y-110718600D03*
X181521100Y-112877600D03*
X158026100Y-109956600D03*
X151803100Y-104749600D03*
X153454100Y-95478600D03*
X153962100Y-104749600D03*
X147231100Y-98399600D03*
X152946100Y-98399600D03*
X153454100Y-104368600D03*
X128943100Y-111353600D03*
X163360100Y-110845600D03*
X162725100Y-114020600D03*
X162852100Y-107797600D03*
X168694100Y-109194600D03*
X170472100Y-109829600D03*
X158534100Y-106146600D03*
X163487100Y-106654600D03*
X139992100Y-106400600D03*
X164630100Y-104876600D03*
X133896100Y-104749600D03*
X166281100Y-114655600D03*
X166408100Y-107797600D03*
X163868100Y-115163600D03*
X165392100Y-104368600D03*
X160439100Y-104241600D03*
X171615100Y-103352600D03*
X170599100Y-98018600D03*
X157391100Y-103098600D03*
X159931100Y-102844600D03*
X177838100Y-100050600D03*
X173647100Y-99669600D03*
X158534100Y-102463600D03*
X134404100Y-103352600D03*
X158280100Y-100939600D03*
X146469100Y-95986600D03*
X149009100Y-95986600D03*
X143802100Y-96367600D03*
X141897100Y-96875600D03*
X139611100Y-98272600D03*
X142532100Y-98526600D03*
X136944100Y-100939600D03*
D33*
X177076100Y-98018600D02*
X177076100Y-97891600D01*
X177076100Y-97891600D02*
X176822100Y-97637600D01*
X176822100Y-97637600D02*
X176822100Y-96875600D01*
X124879100Y-106464100D02*
X124879100Y-107670600D01*
X124879100Y-107670600D02*
X124879100Y-108686600D01*
X124879100Y-108686600D02*
X124625100Y-108940600D01*
X124625100Y-108940600D02*
X124625100Y-109956600D01*
X124625100Y-109956600D02*
X124752100Y-110210600D01*
X124879100Y-106464100D02*
X123355100Y-106527600D01*
X123355100Y-106527600D02*
X123101100Y-106781600D01*
X123101100Y-106781600D02*
X123101100Y-107162600D01*
X134524600Y-110829700D02*
X134524600Y-111734600D01*
X134524600Y-111734600D02*
X134524600Y-112543394D01*
X134524600Y-112543394D02*
X134531100Y-112623600D01*
X133724600Y-110829700D02*
X133724600Y-111563100D01*
X133724600Y-111563100D02*
X133896100Y-111734600D01*
X133896100Y-111734600D02*
X134524600Y-111734600D01*
X154343100Y-112496600D02*
X154470100Y-112623600D01*
X154470100Y-112623600D02*
X155105100Y-112623600D01*
X155105100Y-112623600D02*
X155359100Y-112369600D01*
X155359100Y-112369600D02*
X155867100Y-112369600D01*
X157412506Y-111485084D02*
X156527991Y-112369600D01*
X156527991Y-112369600D02*
X155867100Y-112369600D01*
X144691100Y-107924600D02*
X145580100Y-108813600D01*
X146342100Y-107924600D02*
X146342100Y-108051600D01*
X146342100Y-108051600D02*
X145580100Y-108813600D01*
X145580100Y-108813600D02*
X145580100Y-109321600D01*
X160312100Y-112623600D02*
X159042100Y-112623600D01*
X159042100Y-112623600D02*
X157772100Y-113893600D01*
X157772100Y-113893600D02*
X148374100Y-113893600D01*
X148374100Y-113893600D02*
X147231100Y-112750600D01*
X147231100Y-112750600D02*
X143421100Y-112750600D01*
X143421100Y-112750600D02*
X142405100Y-111734600D01*
X142405100Y-111734600D02*
X142405100Y-107416600D01*
X142405100Y-107416600D02*
X142659100Y-107162600D01*
X142659100Y-107162600D02*
X143929100Y-107162600D01*
X143929100Y-107162600D02*
X144691100Y-107924600D01*
X121046100Y-107238600D02*
X123177100Y-107238600D01*
X123177100Y-107238600D02*
X123482100Y-107543600D01*
X123482100Y-107543600D02*
X123482100Y-108940600D01*
X134524600Y-110829700D02*
X134524600Y-109582100D01*
X134524600Y-109582100D02*
X134531100Y-109575600D01*
X169075100Y-105638600D02*
X169456100Y-105384600D01*
X169456100Y-105384600D02*
X169456100Y-104368600D01*
X165777581Y-106887194D02*
X165636159Y-106771659D01*
X165636159Y-106771659D02*
X166154100Y-107289600D01*
X166154100Y-107289600D02*
X166789100Y-107289600D01*
X166789100Y-107289600D02*
X167170100Y-106908600D01*
X167170100Y-106908600D02*
X168567100Y-106908600D01*
X169075100Y-106400600D02*
X169075100Y-105638600D01*
X140246100Y-103225600D02*
X140246100Y-104038400D01*
X168567100Y-106908600D02*
X169075100Y-106400600D01*
X156712047Y-99222578D02*
X157413069Y-99923600D01*
X157413069Y-99923600D02*
X157518100Y-99923600D01*
X157645100Y-111226600D02*
X157391100Y-111480600D01*
X118529100Y-101193600D02*
X115907100Y-101193600D01*
X115907100Y-101193600D02*
X115852100Y-101138600D01*
X118529100Y-101193600D02*
X121097100Y-101193600D01*
X121097100Y-101193600D02*
X121152100Y-101138600D01*
X118656100Y-109956600D02*
X120970100Y-109956600D01*
X120970100Y-109956600D02*
X121152100Y-110138600D01*
X118656100Y-109956600D02*
X116034100Y-109956600D01*
X116034100Y-109956600D02*
X115852100Y-110138600D01*
X118656100Y-109956600D02*
X118656100Y-109448600D01*
X118656100Y-109448600D02*
X118275100Y-109067600D01*
X118275100Y-107797600D02*
X118275100Y-109067600D01*
X118529100Y-101193600D02*
X118529100Y-101955600D01*
X118275100Y-103479600D02*
X118275100Y-102209600D01*
X118275100Y-102209600D02*
X118529100Y-101955600D01*
X157645100Y-111226600D02*
X157899100Y-110972600D01*
X157899100Y-110972600D02*
X158026100Y-110972600D01*
X158026100Y-110972600D02*
X158153100Y-110972600D01*
X158153100Y-110972600D02*
X158407100Y-110972600D01*
X158407100Y-110972600D02*
X158661100Y-111226600D01*
X121152100Y-110138600D02*
X121152100Y-107206600D01*
X121152100Y-107206600D02*
X121196100Y-107162600D01*
X129070100Y-99796600D02*
X129070100Y-99970100D01*
X129070100Y-99970100D02*
X129525000Y-100425000D01*
X129525000Y-100425000D02*
X130000000Y-100425000D01*
X168948100Y-110718600D02*
X168948100Y-111607600D01*
X119418100Y-95859600D02*
X119418100Y-93700600D01*
X119418100Y-93700600D02*
X119291100Y-93573600D01*
X129070100Y-101320600D02*
X128181100Y-101320600D01*
X120053100Y-96494600D02*
X119418100Y-95859600D01*
X120053100Y-98653600D02*
X120053100Y-96494600D01*
X127038100Y-98653600D02*
X120053100Y-98653600D01*
X127927100Y-101574600D02*
X128181100Y-101320600D01*
X128181100Y-101320600D02*
X128181100Y-99796600D01*
X128181100Y-99796600D02*
X127038100Y-98653600D01*
X128181100Y-101320600D02*
X127927100Y-101574600D01*
X153600000Y-111775000D02*
X156400579Y-111775000D01*
X153581100Y-111861600D02*
X153581100Y-111793900D01*
X153581100Y-111793900D02*
X153600000Y-111775000D01*
X153581100Y-111861600D02*
X152946100Y-112496600D01*
X152946100Y-112496600D02*
X152819100Y-112496600D01*
X141770100Y-108432600D02*
X141770100Y-106400600D01*
X141770100Y-106400600D02*
X142024100Y-106146600D01*
X142024100Y-106146600D02*
X142024100Y-103987600D01*
X132626100Y-108559600D02*
X132626100Y-109321600D01*
X132626100Y-109321600D02*
X132753100Y-109448600D01*
X132924600Y-109620100D02*
X132753100Y-109448600D01*
X126784100Y-108940600D02*
X126530100Y-108559600D01*
X159423100Y-99288600D02*
X158534100Y-99288600D01*
X158534100Y-99288600D02*
X158280100Y-99542600D01*
X158280100Y-99542600D02*
X157714569Y-99542600D01*
X166662100Y-106019600D02*
X166616331Y-106019600D01*
X166662100Y-106019600D02*
X167043100Y-106019600D01*
X142024100Y-103225600D02*
X142024100Y-103987600D01*
X156400579Y-111775000D02*
X157052832Y-111122747D01*
X132924600Y-110829700D02*
X132924600Y-111861600D01*
X132924600Y-111861600D02*
X132924600Y-112531819D01*
X132924600Y-112531819D02*
X133007100Y-112623600D01*
X132124600Y-110829700D02*
X132124600Y-111614100D01*
X132124600Y-111614100D02*
X132372100Y-111861600D01*
X132372100Y-111861600D02*
X132924600Y-111861600D01*
X166616331Y-106019600D02*
X166136791Y-106527981D01*
X167043100Y-106019600D02*
X167551100Y-105638600D01*
X157053297Y-98881328D02*
X156698569Y-98526600D01*
X156698569Y-98526600D02*
X155867100Y-98526600D01*
X155867100Y-98526600D02*
X155232100Y-99161600D01*
X155232100Y-99161600D02*
X155232100Y-99542600D01*
X155652378Y-100282250D02*
X155232100Y-99861972D01*
X155232100Y-99861972D02*
X155232100Y-99542600D01*
X157714569Y-99542600D02*
X157053297Y-98881328D01*
X132924600Y-110829700D02*
X132924600Y-109620100D01*
X126784100Y-110210600D02*
X126784100Y-108940600D01*
X173647100Y-111861600D02*
X173647100Y-112750600D01*
X123863100Y-103543100D02*
X124879100Y-104432100D01*
X121046100Y-104038600D02*
X122898100Y-104038600D01*
X122898100Y-104038600D02*
X123291600Y-104432100D01*
X123291600Y-104432100D02*
X124879100Y-104432100D01*
X123863100Y-101828600D02*
X123863100Y-103543100D01*
X123482100Y-101447600D02*
X123863100Y-101828600D01*
X123482100Y-100050600D02*
X123482100Y-101447600D01*
X114465100Y-97002600D02*
X114465100Y-98526600D01*
X153515075Y-102419550D02*
X151400125Y-100304600D01*
X151400125Y-100304600D02*
X148882100Y-100304600D01*
X148882100Y-100304600D02*
X146977100Y-100304600D01*
X142913100Y-100812600D02*
X142024100Y-101701600D01*
X146977100Y-102641400D02*
X146977100Y-103098600D01*
X146977100Y-103098600D02*
X146850100Y-103225600D01*
X144056100Y-100812600D02*
X142913100Y-100812600D01*
X144437100Y-101193600D02*
X144056100Y-100812600D01*
X144564100Y-101193600D02*
X144437100Y-101193600D01*
X145199100Y-101828600D02*
X144564100Y-101193600D01*
X146850100Y-103225600D02*
X146088100Y-103225600D01*
X145961100Y-103225600D02*
X146088100Y-103225600D01*
X145199100Y-102463600D02*
X145961100Y-103225600D01*
X145199100Y-101828600D02*
X145199100Y-102463600D01*
X141008100Y-102463600D02*
X143548100Y-102463600D01*
X143548100Y-102463600D02*
X143929100Y-102844600D01*
X143929100Y-102844600D02*
X144056100Y-102844600D01*
X145199100Y-103860600D02*
X144564100Y-103225600D01*
X144564100Y-103225600D02*
X144437100Y-103225600D01*
X144437100Y-103225600D02*
X144056100Y-102844600D01*
X145707100Y-103860600D02*
X145199100Y-103860600D01*
X147231100Y-103860600D02*
X145707100Y-103860600D01*
X121831100Y-93573600D02*
X125260100Y-97002600D01*
X125260100Y-97002600D02*
X127165100Y-97002600D01*
X139103100Y-100431600D02*
X140246100Y-101574600D01*
X140246100Y-101574600D02*
X140246100Y-101701600D01*
X151669031Y-102692844D02*
X152455406Y-103479222D01*
X152260450Y-102565844D02*
X152814616Y-103120009D01*
X140246100Y-101701600D02*
X141008100Y-102463600D01*
X139103100Y-100431600D02*
X131102100Y-100431600D01*
X131102100Y-100431600D02*
X127673100Y-97002600D01*
X127673100Y-97002600D02*
X127165100Y-97002600D01*
X152260450Y-102565844D02*
X152158206Y-102463600D01*
X150677788Y-101701600D02*
X151669031Y-102692844D01*
X151669031Y-102692844D02*
X151700856Y-102692844D01*
X151700856Y-102692844D02*
X151930100Y-102463600D01*
X152158206Y-102463600D02*
X151930100Y-102463600D01*
X148628100Y-102463600D02*
X147866100Y-103225600D01*
X147866100Y-103225600D02*
X147231100Y-103860600D01*
X148755100Y-102463600D02*
X148628100Y-102463600D01*
X148882100Y-102463600D02*
X148755100Y-102463600D01*
X149644100Y-101701600D02*
X150677788Y-101701600D01*
X149644100Y-101701600D02*
X148882100Y-102463600D01*
X148626100Y-100941600D02*
X147866100Y-101701600D01*
X151354625Y-100941600D02*
X148626100Y-100941600D01*
X126911100Y-93573600D02*
X128816100Y-95478600D01*
X144870100Y-99975600D02*
X145326100Y-100431600D01*
X145326100Y-100431600D02*
X145326100Y-101066600D01*
X153173825Y-102760800D02*
X151354625Y-100941600D01*
X145326100Y-101066600D02*
X145961100Y-101701600D01*
X145961100Y-101701600D02*
X146088100Y-101701600D01*
X146088100Y-101701600D02*
X147866100Y-101701600D01*
X144870100Y-99975600D02*
X131279100Y-99975600D01*
X131279100Y-99975600D02*
X128816100Y-97512600D01*
X128816100Y-97512600D02*
X128816100Y-95478600D01*
X151168100Y-104749600D02*
X149644100Y-103225600D01*
X151168100Y-104957834D02*
X151168100Y-104749600D01*
X152455406Y-106527981D02*
X151168100Y-104957834D01*
X167424100Y-110718600D02*
X167297100Y-110718600D01*
X167297100Y-110718600D02*
X164376100Y-110718600D01*
X164249100Y-105638600D02*
X163995100Y-105384600D01*
X163995100Y-105384600D02*
X155486100Y-105384600D01*
X170345100Y-110591600D02*
X169787100Y-110033600D01*
X169787100Y-110033600D02*
X168109100Y-110033600D01*
X168109100Y-110033600D02*
X167424100Y-110718600D01*
X155613100Y-107035600D02*
X155105100Y-107035600D01*
X154785550Y-107035600D02*
X155105100Y-107035600D01*
X170726100Y-110972600D02*
X170345100Y-110591600D01*
X153874288Y-107946862D02*
X154785550Y-107035600D01*
X171615100Y-110972600D02*
X170726100Y-110972600D01*
X147866100Y-107924600D02*
X147866100Y-109321600D01*
X147866100Y-109321600D02*
X148501100Y-109956600D01*
X148501100Y-109956600D02*
X148501100Y-111226600D01*
X148501100Y-111226600D02*
X148374100Y-111353600D01*
X148374100Y-111353600D02*
X148501100Y-111353600D01*
X148501100Y-111353600D02*
X150406100Y-113258600D01*
X150406100Y-113258600D02*
X156357409Y-113258600D01*
X156357409Y-113258600D02*
X157771719Y-111844294D01*
X143548100Y-111353600D02*
X143548100Y-109067600D01*
X143548100Y-109067600D02*
X143167100Y-108686600D01*
X143167100Y-108686600D02*
X143167100Y-107924600D01*
X143548100Y-111353600D02*
X146469100Y-111353600D01*
X146469100Y-111353600D02*
X148680100Y-113564600D01*
X148680100Y-113564600D02*
X157212100Y-113564600D01*
X157212100Y-113564600D02*
X158915100Y-111861600D01*
X158915100Y-111861600D02*
X159169100Y-111861600D01*
X159169100Y-111861600D02*
X159423100Y-112115600D01*
X159423100Y-112115600D02*
X160520331Y-112115600D01*
X160520331Y-112115600D02*
X160820478Y-111844294D01*
X153515075Y-107587653D02*
X152924128Y-108178600D01*
X152924128Y-108178600D02*
X151676100Y-108178600D01*
X151676100Y-108178600D02*
X151625300Y-108178600D01*
X151625300Y-108178600D02*
X149771100Y-106324400D01*
X153173825Y-107246403D02*
X152749628Y-107670600D01*
X152749628Y-107670600D02*
X152438100Y-107670600D01*
X152438100Y-107670600D02*
X152311100Y-107670600D01*
X152311100Y-107670600D02*
X150533100Y-105892600D01*
X150533100Y-105892600D02*
X150533100Y-105714800D01*
X150533100Y-105714800D02*
X149771100Y-104952800D01*
X172631100Y-93573600D02*
X171361100Y-94843600D01*
X171361100Y-94843600D02*
X158788100Y-94843600D01*
X158788100Y-98399600D02*
X158534100Y-98145600D01*
X157771719Y-98162909D02*
X158071869Y-97891600D01*
X158071869Y-97891600D02*
X158280100Y-97891600D01*
X158534100Y-98145600D02*
X158407100Y-98018600D01*
X158407100Y-98018600D02*
X158280100Y-97891600D01*
X171488100Y-95351600D02*
X156502100Y-95351600D01*
X155486100Y-98145600D02*
X156121100Y-98145600D01*
X156121100Y-98145600D02*
X156248100Y-98018600D01*
X156248100Y-98018600D02*
X156908988Y-98018600D01*
X156908988Y-98018600D02*
X157412506Y-98522119D01*
X157010100Y-101193600D02*
X157010100Y-100239053D01*
X157010100Y-100239053D02*
X156352838Y-99581791D01*
X126530100Y-101828600D02*
X126530100Y-101701600D01*
X126530100Y-101701600D02*
X127546100Y-100685600D01*
X156502100Y-100812600D02*
X156502100Y-100449475D01*
X155993628Y-99941000D02*
X156502100Y-100449475D01*
X127419100Y-99923600D02*
X126530100Y-99923600D01*
X130975100Y-99034600D02*
X152967888Y-99034600D01*
X152967888Y-99034600D02*
X154933956Y-101000669D01*
X131991100Y-99542600D02*
X152757466Y-99542600D01*
X152757466Y-99542600D02*
X154574747Y-101359881D01*
X162090100Y-103225600D02*
X161582100Y-103733600D01*
X161582100Y-103733600D02*
X157264100Y-103733600D01*
X157264100Y-103733600D02*
X156629100Y-103098600D01*
X156629100Y-103098600D02*
X155630969Y-103098600D01*
X155630969Y-103098600D02*
X154233497Y-101701131D01*
X161328100Y-104749600D02*
X157772100Y-104749600D01*
X157772100Y-104749600D02*
X156629100Y-103606600D01*
X153874288Y-102060341D02*
X154912547Y-103098600D01*
X154912547Y-103098600D02*
X154978100Y-103098600D01*
X154978100Y-103098600D02*
X155486100Y-103606600D01*
X155486100Y-103606600D02*
X156629100Y-103606600D01*
X153581100Y-106146600D02*
X153555209Y-106146600D01*
X153555209Y-106146600D02*
X152814616Y-106887194D01*
X119291100Y-116433600D02*
X122024700Y-113700000D01*
X122024700Y-113700000D02*
X135359700Y-113700000D01*
X135359700Y-113700000D02*
X136309100Y-112750600D01*
X136055100Y-103733600D02*
X136182100Y-103606600D01*
X137817200Y-103537100D02*
X136251600Y-103537100D01*
X136251600Y-103537100D02*
X136055100Y-103733600D01*
X154233497Y-108306072D02*
X154374919Y-108146781D01*
X154374919Y-108146781D02*
X154978100Y-107543600D01*
X123228100Y-102844600D02*
X123101100Y-102971600D01*
X123228100Y-102844600D02*
X120307100Y-102844600D01*
X120307100Y-102844600D02*
X119418100Y-103733600D01*
X119418100Y-103733600D02*
X119418100Y-104495600D01*
X119418100Y-106273600D02*
X119418100Y-104495600D01*
X119583100Y-106438600D02*
X119418100Y-106273600D01*
X137817200Y-108337100D02*
X137648700Y-108305600D01*
X137648700Y-108305600D02*
X138595100Y-108305600D01*
X138595100Y-108305600D02*
X139484100Y-107416600D01*
X155994100Y-107670600D02*
X155551469Y-107670600D01*
X155551469Y-107670600D02*
X154574747Y-108647322D01*
X121046100Y-106438600D02*
X119583100Y-106438600D01*
X154933956Y-109006534D02*
X155075378Y-108843322D01*
X136817100Y-101574600D02*
X136690100Y-101701600D01*
X136690100Y-101701600D02*
X136213500Y-101701600D01*
X136213500Y-101701600D02*
X136124600Y-101844500D01*
X156502100Y-108051600D02*
X156196100Y-108357600D01*
X156196100Y-108357600D02*
X155582891Y-108357600D01*
X155582891Y-108357600D02*
X154933956Y-109006534D01*
X121831100Y-116433600D02*
X124164700Y-114100000D01*
X124164700Y-114100000D02*
X135467700Y-114100000D01*
X135467700Y-114100000D02*
X136055100Y-113512600D01*
X136055100Y-113512600D02*
X136817100Y-113512600D01*
X136182100Y-104622600D02*
X136309100Y-104495600D01*
X137817200Y-104337100D02*
X136467600Y-104337100D01*
X136467600Y-104337100D02*
X136182100Y-104622600D01*
X155972309Y-108686600D02*
X155293166Y-109365744D01*
X155972309Y-108686600D02*
X156121100Y-108686600D01*
X156629100Y-108686600D02*
X156502100Y-108686600D01*
X156502100Y-108686600D02*
X156121100Y-108686600D01*
X166916100Y-96494600D02*
X162725100Y-96494600D01*
X162344100Y-106908600D02*
X160820100Y-106908600D01*
X160566100Y-109321600D02*
X157391100Y-109321600D01*
X157391100Y-109321600D02*
X157010100Y-109321600D01*
X157010100Y-109321600D02*
X156055731Y-109321600D01*
X156055731Y-109321600D02*
X155652378Y-109724953D01*
X157991250Y-110683750D02*
X159208750Y-110683750D01*
X160058100Y-113639600D02*
X158915100Y-113639600D01*
X160439100Y-113258600D02*
X160058100Y-113639600D01*
X162852100Y-113258600D02*
X160439100Y-113258600D01*
X163106100Y-113004600D02*
X162852100Y-113258600D01*
X164249100Y-113004600D02*
X163106100Y-113004600D01*
X165265100Y-114020600D02*
X164249100Y-113004600D01*
X166281100Y-114020600D02*
X165265100Y-114020600D01*
X167551100Y-115290600D02*
X166281100Y-114020600D01*
X167551100Y-115290600D02*
X167551100Y-116433600D01*
X159208750Y-110683750D02*
X159375000Y-110850000D01*
X157991250Y-110683750D02*
X157010100Y-109702600D01*
X155993628Y-110066203D02*
X156357228Y-109702600D01*
X156357228Y-109702600D02*
X157010100Y-109702600D01*
X137071100Y-116433600D02*
X138722100Y-114782600D01*
X138722100Y-114782600D02*
X143040100Y-114782600D01*
X143040100Y-114782600D02*
X150533100Y-114782600D01*
X152311100Y-110464600D02*
X154089100Y-110464600D01*
X154089100Y-110464600D02*
X154470100Y-110845600D01*
X154470100Y-110845600D02*
X154851100Y-110845600D01*
X154851100Y-110845600D02*
X155613100Y-110845600D01*
X156352838Y-110425412D02*
X155932650Y-110845600D01*
X155932650Y-110845600D02*
X155613100Y-110845600D01*
X139611100Y-116433600D02*
X140627100Y-115417600D01*
X140627100Y-115417600D02*
X151041100Y-115417600D01*
X152057100Y-111353600D02*
X152184100Y-111226600D01*
X152184100Y-111226600D02*
X154978100Y-111226600D01*
X154978100Y-111226600D02*
X155232100Y-111480600D01*
X155232100Y-111480600D02*
X155486100Y-111480600D01*
X156712047Y-110784625D02*
X156016072Y-111480600D01*
X156016072Y-111480600D02*
X155486100Y-111480600D01*
X124371100Y-116433600D02*
X126276100Y-114528600D01*
X126276100Y-114528600D02*
X135771400Y-114528600D01*
X135771400Y-114528600D02*
X136152400Y-114147600D01*
X136152400Y-114147600D02*
X137198100Y-114147600D01*
X137198100Y-114147600D02*
X137579100Y-113766600D01*
X137579100Y-113766600D02*
X137833100Y-113766600D01*
X137071100Y-110718600D02*
X136213500Y-110718600D01*
X136213500Y-110718600D02*
X136124600Y-110829700D01*
X136944100Y-102336600D02*
X136436100Y-102844600D01*
X136436100Y-102844600D02*
X132372100Y-102844600D01*
X132372100Y-102844600D02*
X131679600Y-103537100D01*
X131679600Y-103537100D02*
X128832000Y-103537100D01*
X160439100Y-110718600D02*
X161038269Y-111317769D01*
X161038269Y-111317769D02*
X161179691Y-111485084D01*
X181521100Y-112877600D02*
X177838100Y-112877600D01*
X177838100Y-112877600D02*
X177457100Y-113258600D01*
X165011100Y-113258600D02*
X164122100Y-112369600D01*
X164122100Y-112369600D02*
X162064206Y-112369600D01*
X162064206Y-112369600D02*
X161179691Y-111485084D01*
X165011100Y-113258600D02*
X165392100Y-113639600D01*
X165392100Y-113639600D02*
X177076100Y-113639600D01*
X177076100Y-113639600D02*
X177457100Y-113258600D01*
X160369625Y-109956600D02*
X160496625Y-110083600D01*
X158026100Y-109956600D02*
X160369625Y-109956600D01*
X161538900Y-111125875D02*
X160496625Y-110083600D01*
X151803100Y-104749600D02*
X153073100Y-104749600D01*
X153073100Y-104749600D02*
X154874100Y-106550600D01*
X154874100Y-106550600D02*
X156525100Y-106550600D01*
X156525100Y-106550600D02*
X158153100Y-108178600D01*
X158153100Y-108178600D02*
X160185100Y-108178600D01*
X160185100Y-108178600D02*
X161074100Y-109067600D01*
X161074100Y-109067600D02*
X161074100Y-109978575D01*
X161074100Y-109978575D02*
X161880150Y-110784625D01*
X146100000Y-94970600D02*
X146088100Y-94970600D01*
X146088100Y-94970600D02*
X144691100Y-93573600D01*
X146100000Y-94970600D02*
X152946100Y-94970600D01*
X152946100Y-94970600D02*
X153454100Y-95478600D01*
X153962100Y-104749600D02*
X154470100Y-105257600D01*
X154470100Y-105257600D02*
X154470100Y-105511600D01*
X154470100Y-105511600D02*
X155205100Y-106246600D01*
X155205100Y-106246600D02*
X156729100Y-106246600D01*
X156729100Y-106246600D02*
X158153100Y-107670600D01*
X158153100Y-107670600D02*
X160058100Y-107670600D01*
X160058100Y-107670600D02*
X161455100Y-109067600D01*
X161455100Y-109067600D02*
X161455100Y-109641153D01*
X161455100Y-109641153D02*
X162239359Y-110425412D01*
X147231100Y-98399600D02*
X152946100Y-98399600D01*
X154343100Y-104241600D02*
X154851100Y-104749600D01*
X154851100Y-104749600D02*
X154851100Y-105384600D01*
X154851100Y-105384600D02*
X155359100Y-105892600D01*
X155359100Y-105892600D02*
X157137100Y-105892600D01*
X157137100Y-105892600D02*
X158534100Y-107289600D01*
X158534100Y-107289600D02*
X160185100Y-107289600D01*
X160185100Y-107289600D02*
X161836100Y-108940600D01*
X161836100Y-108940600D02*
X161836100Y-109303731D01*
X161836100Y-109303731D02*
X162598569Y-110066203D01*
X154343100Y-104241600D02*
X153581100Y-104241600D01*
X153581100Y-104241600D02*
X153454100Y-104368600D01*
X163360100Y-110845600D02*
X163360100Y-110210600D01*
X163360100Y-110210600D02*
X162798397Y-109648897D01*
X162798397Y-109648897D02*
X162939819Y-109724953D01*
X131991100Y-116433600D02*
X133388100Y-115036600D01*
X133388100Y-115036600D02*
X137833100Y-115036600D01*
X137833100Y-115036600D02*
X138595100Y-114274600D01*
X138595100Y-114274600D02*
X162471100Y-114274600D01*
X162471100Y-114274600D02*
X162725100Y-114020600D01*
X163299031Y-109365744D02*
X162852100Y-108918812D01*
X162852100Y-108918812D02*
X162852100Y-107797600D01*
X168694100Y-109194600D02*
X168313100Y-109575600D01*
X168313100Y-109575600D02*
X167805100Y-109575600D01*
X168694100Y-109194600D02*
X168567100Y-109321600D01*
X164630100Y-109575600D02*
X167805100Y-109575600D01*
X164227306Y-109575600D02*
X164630100Y-109575600D01*
X163973306Y-109321600D02*
X163658241Y-109006534D01*
X163973306Y-109321600D02*
X164227306Y-109575600D01*
X164437728Y-109067600D02*
X164017450Y-108647322D01*
X167297100Y-109067600D02*
X167678100Y-108686600D01*
X167678100Y-108686600D02*
X169075100Y-108686600D01*
X169075100Y-108686600D02*
X170472100Y-109829600D01*
X164437728Y-109067600D02*
X164564728Y-109194600D01*
X164564728Y-109194600D02*
X164884100Y-109194600D01*
X167297100Y-109067600D02*
X167170100Y-109194600D01*
X167170100Y-109194600D02*
X164884100Y-109194600D01*
X158534100Y-106146600D02*
X162199225Y-106146600D01*
X162199225Y-106146600D02*
X164358700Y-108306072D01*
X164717909Y-107946862D02*
X163487100Y-106716053D01*
X163487100Y-106716053D02*
X163487100Y-106654600D01*
X165077122Y-107587653D02*
X164630100Y-107140631D01*
X164630100Y-107140631D02*
X164630100Y-106759631D01*
X164757100Y-106146600D02*
X164757100Y-105384600D01*
X164757100Y-105384600D02*
X164630100Y-105257600D01*
X164630100Y-105257600D02*
X164630100Y-104876600D01*
X164757100Y-106146600D02*
X164630100Y-106273600D01*
X164630100Y-106759631D02*
X164630100Y-106632631D01*
X164630100Y-106632631D02*
X164630100Y-106273600D01*
X152311100Y-116433600D02*
X154089100Y-114655600D01*
X154089100Y-114655600D02*
X166281100Y-114655600D01*
X166408100Y-107797600D02*
X165969569Y-107797600D01*
X165969569Y-107797600D02*
X165418372Y-107246403D01*
X154851100Y-116433600D02*
X156121100Y-115163600D01*
X156121100Y-115163600D02*
X163868100Y-115163600D01*
X165995369Y-103638331D02*
X166136791Y-103479222D01*
X165392100Y-104368600D02*
X165392100Y-104223909D01*
X165392100Y-104223909D02*
X166136791Y-103479222D01*
X160439100Y-104241600D02*
X164655991Y-104241600D01*
X164655991Y-104241600D02*
X165777581Y-103120009D01*
X170599100Y-98018600D02*
X171742100Y-98018600D01*
X165777581Y-103120009D02*
X166306991Y-102590600D01*
X166306991Y-102590600D02*
X167932100Y-102590600D01*
X167932100Y-102590600D02*
X168694100Y-103352600D01*
X168694100Y-103352600D02*
X171615100Y-103352600D01*
X157391100Y-103098600D02*
X158534100Y-103098600D01*
X158534100Y-103098600D02*
X158788100Y-103352600D01*
X158788100Y-103352600D02*
X161201100Y-103352600D01*
X161201100Y-103352600D02*
X161836100Y-102717600D01*
X161836100Y-102717600D02*
X162344100Y-102717600D01*
X162344100Y-102717600D02*
X163106100Y-103479600D01*
X164699572Y-103479600D02*
X165418372Y-102760800D01*
X164699572Y-103479600D02*
X164630100Y-103479600D01*
X163106100Y-103479600D02*
X164630100Y-103479600D01*
X159931100Y-102844600D02*
X161201100Y-102844600D01*
X161201100Y-102844600D02*
X161709100Y-102336600D01*
X164503100Y-102971600D02*
X164913728Y-102560972D01*
X164913728Y-102560972D02*
X165077122Y-102419550D01*
X164503100Y-102971600D02*
X164376100Y-102971600D01*
X164376100Y-102971600D02*
X163487100Y-102971600D01*
X163487100Y-102971600D02*
X162852100Y-102336600D01*
X162852100Y-102336600D02*
X161709100Y-102336600D01*
X177838100Y-100050600D02*
X176695100Y-100050600D01*
X176695100Y-100050600D02*
X176441100Y-100304600D01*
X176441100Y-100304600D02*
X166473650Y-100304600D01*
X166473650Y-100304600D02*
X164717909Y-102060341D01*
X173647100Y-99669600D02*
X166390228Y-99669600D01*
X166390228Y-99669600D02*
X164358700Y-101701131D01*
X177711100Y-93573600D02*
X174790100Y-96494600D01*
X174790100Y-96494600D02*
X169329100Y-96494600D01*
X169329100Y-96494600D02*
X169202100Y-96494600D01*
X164017450Y-101359881D02*
X168882731Y-96494600D01*
X168882731Y-96494600D02*
X169329100Y-96494600D01*
X175171100Y-93573600D02*
X172885100Y-95859600D01*
X163658241Y-101000669D02*
X168799309Y-95859600D01*
X168799309Y-95859600D02*
X172885100Y-95859600D01*
X163299031Y-100641459D02*
X162111891Y-101828600D01*
X162111891Y-101828600D02*
X159931100Y-101828600D01*
X159931100Y-101828600D02*
X159296100Y-102463600D01*
X159296100Y-102463600D02*
X158534100Y-102463600D01*
X162282469Y-100939600D02*
X162939819Y-100282250D01*
X162282469Y-100939600D02*
X162028469Y-101193600D01*
X162028469Y-101193600D02*
X161709100Y-101193600D01*
X161709100Y-101193600D02*
X160566100Y-101193600D01*
X158280100Y-100939600D02*
X158534100Y-101193600D01*
X158534100Y-101193600D02*
X160566100Y-101193600D01*
X146469100Y-95986600D02*
X147739100Y-95986600D01*
X147739100Y-95986600D02*
X148247100Y-95478600D01*
X148247100Y-95478600D02*
X152438100Y-95478600D01*
X152438100Y-95478600D02*
X152896100Y-95936600D01*
X152896100Y-95936600D02*
X157568100Y-95936600D01*
X157568100Y-95936600D02*
X157645100Y-95859600D01*
X157645100Y-95859600D02*
X161455100Y-95859600D01*
X161455100Y-95859600D02*
X163106100Y-97510600D01*
X163106100Y-97510600D02*
X163106100Y-99433472D01*
X163106100Y-99433472D02*
X162598569Y-99941000D01*
X162725100Y-99096050D02*
X162239359Y-99581791D01*
X162725100Y-97510600D02*
X162725100Y-99096050D01*
X161455100Y-96240600D02*
X162725100Y-97510600D01*
X149263100Y-96240600D02*
X161455100Y-96240600D01*
X149009100Y-95986600D02*
X149263100Y-96240600D01*
X143802100Y-96367600D02*
X145199100Y-96367600D01*
X145199100Y-96367600D02*
X145381500Y-96550000D01*
X145381500Y-96550000D02*
X161256500Y-96550000D01*
X161256500Y-96550000D02*
X162344100Y-97637600D01*
X162344100Y-97637600D02*
X162344100Y-98758628D01*
X162344100Y-98758628D02*
X161880150Y-99222578D01*
X161201100Y-96875600D02*
X141897100Y-96875600D01*
X161538900Y-98881328D02*
X161963100Y-98457128D01*
X161963100Y-97637600D02*
X161963100Y-98457128D01*
X161201100Y-96875600D02*
X161963100Y-97637600D01*
X139611100Y-98272600D02*
X141770100Y-98272600D01*
X141770100Y-98272600D02*
X142838100Y-97204600D01*
X142838100Y-97204600D02*
X161149100Y-97204600D01*
X161149100Y-97204600D02*
X161582100Y-97637600D01*
X161582100Y-97637600D02*
X161582100Y-98119709D01*
X161582100Y-98119709D02*
X161179691Y-98522119D01*
X142532100Y-98526600D02*
X143550100Y-97508600D01*
X143550100Y-97508600D02*
X160183100Y-97508600D01*
X160183100Y-97508600D02*
X160439100Y-97764600D01*
X160820478Y-98162909D02*
X160820100Y-98163291D01*
X160820100Y-98163291D02*
X160820100Y-98145600D01*
X160820100Y-98145600D02*
X160439100Y-97764600D01*
X116751100Y-116433600D02*
X119799100Y-113385600D01*
X119799100Y-113385600D02*
X122339100Y-113385600D01*
X122339100Y-113385600D02*
X135039100Y-113385600D01*
X135324600Y-110829700D02*
X135324600Y-113100100D01*
X135324600Y-113100100D02*
X135039100Y-113385600D01*
X182791100Y-102463600D02*
X176695100Y-102463600D01*
X176695100Y-102463600D02*
X175298100Y-103860600D01*
X175298100Y-103860600D02*
X174536100Y-103860600D01*
X174536100Y-103860600D02*
X172504100Y-101828600D01*
X172504100Y-101828600D02*
X170929300Y-101828600D01*
X170929300Y-101828600D02*
X170370500Y-101752400D01*
X135324600Y-101844500D02*
X135324600Y-101289100D01*
X135324600Y-101289100D02*
X135801100Y-100812600D01*
X135801100Y-100812600D02*
X136817100Y-100812600D01*
X136817100Y-100812600D02*
X136944100Y-100939600D01*
X175575000Y-98025000D02*
X173725000Y-98025000D01*
X114465100Y-95224600D02*
X114846100Y-94843600D01*
X114846100Y-94843600D02*
X115100100Y-94462600D01*
X115100100Y-94462600D02*
X115862100Y-94462600D01*
X118529100Y-98653600D02*
X118529100Y-98145600D01*
X118529100Y-98145600D02*
X116878100Y-96494600D01*
X115862100Y-94462600D02*
X116751100Y-93573600D01*
X116878100Y-96494600D02*
X116878100Y-93700600D01*
X116878100Y-93700600D02*
X116751100Y-93573600D01*
X125200000Y-103600000D02*
X125700000Y-103600000D01*
X126022100Y-103922100D02*
X125700000Y-103600000D01*
X124244100Y-102336600D02*
X124244100Y-102644100D01*
X124244100Y-102644100D02*
X125200000Y-103600000D01*
X124244100Y-102336600D02*
X124244100Y-100685600D01*
X124244100Y-100685600D02*
X125006100Y-99923600D01*
X126022100Y-105067100D02*
X126022100Y-103922100D01*
X125768100Y-105321100D02*
X126022100Y-105067100D01*
X123291600Y-105321100D02*
X125768100Y-105321100D01*
X122809100Y-104838600D02*
X123291600Y-105321100D01*
X121046100Y-104838600D02*
X122809100Y-104838600D01*
X126376100Y-103198600D02*
X125006100Y-101828600D01*
X126376100Y-105184600D02*
X126376100Y-103198600D01*
X125922100Y-105638600D02*
X126376100Y-105184600D01*
X121046100Y-105638600D02*
X125922100Y-105638600D01*
X182791100Y-110083600D02*
X178219100Y-110083600D01*
X178219100Y-110083600D02*
X173647100Y-110083600D01*
M02*
