G04 #@! TF.GenerationSoftware,KiCad,Pcbnew,(5.1.2)-2*
G04 #@! TF.CreationDate,2019-10-24T20:02:35-04:00*
G04 #@! TF.ProjectId,T32_ref,5433325f-7265-4662-9e6b-696361645f70,rev?*
G04 #@! TF.SameCoordinates,Original*
G04 #@! TF.FileFunction,Soldermask,Bot*
G04 #@! TF.FilePolarity,Negative*
%FSLAX46Y46*%
G04 Gerber Fmt 4.6, Leading zero omitted, Abs format (unit mm)*
G04 Created by KiCad (PCBNEW (5.1.2)-2) date 2019-10-24 20:02:35*
%MOMM*%
%LPD*%
G04 APERTURE LIST*
%ADD10C,1.720800*%
%ADD11C,1.543000*%
%ADD12C,2.279600*%
%ADD13C,1.857960*%
%ADD14C,1.898600*%
%ADD15R,2.400000X4.200000*%
%ADD16R,2.400000X1.900000*%
G04 APERTURE END LIST*
D10*
X148374100Y-111353600D03*
X143548100Y-111353600D03*
D11*
X149771100Y-106324400D03*
X149771100Y-104952800D03*
D12*
X170370500Y-108254800D03*
X170370500Y-101752400D03*
X174891700Y-108254800D03*
X174891700Y-101752400D03*
X176730660Y-105003600D03*
D13*
X118227100Y-103438960D03*
X118227100Y-107838240D03*
D14*
X116751100Y-93573600D03*
X119291100Y-93573600D03*
X121831100Y-93573600D03*
X124371100Y-93573600D03*
X134531100Y-93573600D03*
X137071100Y-93573600D03*
X139611100Y-93573600D03*
X142151100Y-93573600D03*
X144691100Y-93573600D03*
X147231100Y-93573600D03*
X149771100Y-93573600D03*
X131991100Y-93573600D03*
X152311100Y-93573600D03*
X129451100Y-93573600D03*
X154851100Y-93573600D03*
X126911100Y-93573600D03*
X157391100Y-93573600D03*
X159931100Y-93573600D03*
X159931100Y-116433600D03*
X157391100Y-116433600D03*
X154851100Y-116433600D03*
X152311100Y-116433600D03*
X149771100Y-116433600D03*
X147231100Y-116433600D03*
X144691100Y-116433600D03*
X142151100Y-116433600D03*
X139611100Y-116433600D03*
X137071100Y-116433600D03*
X134531100Y-116433600D03*
X131991100Y-116433600D03*
X129451100Y-116433600D03*
X126911100Y-116433600D03*
X162471100Y-93573600D03*
X165011100Y-93573600D03*
X167551100Y-93573600D03*
X170091100Y-93573600D03*
X172631100Y-93573600D03*
X182791100Y-99923600D03*
X175171100Y-93573600D03*
X182791100Y-102463600D03*
X177711100Y-93573600D03*
X182791100Y-105003600D03*
X177711100Y-116433600D03*
X182791100Y-107543600D03*
X175171100Y-116433600D03*
X182791100Y-110083600D03*
X172631100Y-116433600D03*
X170091100Y-116433600D03*
X167551100Y-116433600D03*
X165011100Y-116433600D03*
X162471100Y-116433600D03*
X180251100Y-116433600D03*
X114211100Y-116433600D03*
X180251100Y-93573600D03*
X182791100Y-93573600D03*
X124371100Y-116433600D03*
X121831100Y-116433600D03*
X119291100Y-116433600D03*
X116751100Y-116433600D03*
X182791100Y-116433600D03*
D15*
X122450000Y-105600000D03*
D16*
X128750000Y-105600000D03*
X128750000Y-107900000D03*
X128750000Y-103300000D03*
M02*
