M48
; DRILL file {KiCad (5.1.2)-2} date 2019-10-24 8:02:37 PM
; FORMAT={-:-/ absolute / inch / decimal}
; #@! TF.CreationDate,2019-10-24T20:02:37-04:00
; #@! TF.GenerationSoftware,Kicad,Pcbnew,(5.1.2)-2
; #@! TF.FileFunction,Plated,1,4,PTH
FMAT,2
INCH
T1C0.0118
T2C0.0250
T3C0.0320
T4C0.0374
T5C0.0390
T6C0.0400
%
G90
G05
T1
X4.5065Y-3.879
X4.6665Y-3.984
X4.6715Y-4.329
X4.8515Y-4.049
X4.8615Y-3.939
X4.8615Y-4.289
X4.9165Y-4.239
X4.9815Y-4.274
X4.9965Y-4.159
X5.0165Y-3.934
X5.0215Y-3.964
X5.0365Y-3.999
X5.0765Y-4.384
X5.1181Y-3.9537
X5.1515Y-4.159
X5.1565Y-3.899
X5.1965Y-3.919
X5.2215Y-4.274
X5.2715Y-4.124
X5.2915Y-4.069
X5.2965Y-4.314
X5.3565Y-4.084
X5.3615Y-4.119
X5.3665Y-4.439
X5.3865Y-3.999
X5.3865Y-4.469
X5.3915Y-3.974
X5.3915Y-4.029
X5.3965Y-4.359
X5.4265Y-4.034
X5.4265Y-4.479
X5.4915Y-4.229
X5.4965Y-3.869
X5.5115Y-4.189
X5.5215Y-4.096
X5.5815Y-4.269
X5.5865Y-3.814
X5.6115Y-3.879
X5.6615Y-3.794
X5.7315Y-4.304
X5.7665Y-3.779
X5.7865Y-3.949
X5.7865Y-4.041
X5.7965Y-3.874
X5.8665Y-3.779
X5.9265Y-4.519
X5.9465Y-4.544
X5.9765Y-4.124
X5.9865Y-4.384
X5.9965Y-4.349
X6.0165Y-4.279
X6.0215Y-3.874
X6.0415Y-3.759
X6.0415Y-4.109
X6.0465Y-4.179
X6.0472Y-4.4006
X6.0615Y-4.124
X6.1015Y-4.084
X6.1015Y-4.234
X6.1215Y-3.864
X6.1215Y-4.149
X6.1265Y-4.214
X6.1365Y-4.424
X6.1415Y-4.239
X6.1515Y-4.029
X6.1615Y-3.754
X6.1615Y-3.969
X6.1615Y-4.254
X6.1665Y-4.279
X6.1715Y-4.109
X6.1815Y-3.984
X6.1965Y-4.059
X6.2015Y-3.934
X6.2215Y-4.329
X6.2315Y-3.974
X6.2415Y-4.034
X6.2415Y-4.179
X6.2465Y-4.379
X6.2515Y-3.734
X6.2515Y-3.874
X6.2565Y-4.474
X6.2615Y-4.279
X6.2746Y-4.3642
X6.2765Y-3.909
X6.2965Y-4.049
X6.3115Y-4.434
X6.3165Y-4.104
X6.3165Y-4.359
X6.3215Y-4.304
X6.3315Y-4.209
X6.3515Y-4.124
X6.3815Y-4.064
X6.3915Y-4.209
X6.4065Y-3.799
X6.4065Y-4.489
X6.4115Y-4.244
X6.4315Y-4.364
X6.4365Y-4.199
X6.4515Y-4.534
X6.4665Y-4.159
X6.4715Y-4.359
X6.4815Y-4.129
X6.5115Y-4.109
X6.5465Y-4.514
X6.5515Y-4.244
X6.5615Y-4.174
X6.5715Y-3.799
X6.5815Y-4.209
X6.6165Y-4.259
X6.6415Y-4.299
X6.6515Y-4.394
X6.6715Y-4.109
X6.7115Y-4.324
X6.7165Y-3.859
X6.7515Y-3.754
X6.7565Y-4.069
X6.8115Y-4.274
X6.8365Y-3.924
X6.8365Y-4.439
X6.9615Y-3.814
X7.0015Y-3.939
X7.0515Y-4.279
X7.0965Y-4.184
X7.1465Y-4.444
T2
X5.8965Y-4.132
X5.8965Y-4.186
T3
X5.6515Y-4.384
X5.8415Y-4.384
T4
X4.6546Y-4.0724
X4.6546Y-4.2456
T5
X6.9965Y-3.684
X6.8965Y-3.684
X5.6965Y-3.684
X6.3965Y-4.584
X5.1965Y-3.684
X5.6965Y-4.584
X6.6965Y-4.584
X5.2965Y-3.684
X4.5965Y-4.584
X5.7965Y-4.584
X5.8965Y-3.684
X5.8965Y-4.584
X4.5965Y-3.684
X5.0965Y-4.584
X6.6965Y-3.684
X5.9965Y-3.684
X6.3965Y-3.684
X7.1965Y-4.134
X6.2965Y-4.584
X7.1965Y-4.334
X7.1965Y-3.684
X6.9965Y-4.584
X4.9965Y-3.684
X6.7965Y-4.584
X5.5965Y-3.684
X6.8965Y-4.584
X4.8965Y-3.684
X5.9965Y-4.584
X6.0965Y-3.684
X7.1965Y-4.584
X5.5965Y-4.584
X5.4965Y-3.684
X5.2965Y-4.584
X5.3965Y-3.684
X7.0965Y-3.684
X4.9965Y-4.584
X6.5965Y-4.584
X6.5965Y-3.684
X7.1965Y-4.034
X6.2965Y-3.684
X7.1965Y-3.934
X4.8965Y-4.584
X6.7965Y-3.684
X6.1965Y-3.684
X6.4965Y-4.584
X4.7965Y-3.684
X4.4965Y-4.584
X4.6965Y-4.584
X6.0965Y-4.584
X4.6965Y-3.684
X4.7965Y-4.584
X5.3965Y-4.584
X5.7965Y-3.684
X5.4965Y-4.584
X5.0965Y-3.684
X5.1965Y-4.584
X7.0965Y-4.584
X6.4965Y-3.684
X7.1965Y-4.234
X6.1965Y-4.584
T6
X6.7075Y-4.006
X6.7075Y-4.262
X6.8855Y-4.006
X6.8855Y-4.262
X6.9579Y-4.134
T0
M30
