G04 #@! TF.GenerationSoftware,KiCad,Pcbnew,(5.1.2)-2*
G04 #@! TF.CreationDate,2019-10-24T20:02:35-04:00*
G04 #@! TF.ProjectId,T32_ref,5433325f-7265-4662-9e6b-696361645f70,rev?*
G04 #@! TF.SameCoordinates,Original*
G04 #@! TF.FileFunction,Legend,Top*
G04 #@! TF.FilePolarity,Positive*
%FSLAX46Y46*%
G04 Gerber Fmt 4.6, Leading zero omitted, Abs format (unit mm)*
G04 Created by KiCad (PCBNEW (5.1.2)-2) date 2019-10-24 20:02:35*
%MOMM*%
%LPD*%
G04 APERTURE LIST*
%ADD10C,0.121920*%
%ADD11C,0.081280*%
%ADD12C,0.203200*%
%ADD13C,0.152400*%
%ADD14C,0.198120*%
%ADD15C,0.114300*%
%ADD16C,0.076200*%
%ADD17C,0.228600*%
%ADD18C,0.066040*%
%ADD19C,0.120000*%
%ADD20C,0.101600*%
%ADD21C,0.100000*%
%ADD22C,0.127000*%
%ADD23C,0.150000*%
%ADD24C,0.050800*%
G04 APERTURE END LIST*
D10*
X117279661Y-94887771D02*
X116314461Y-95209505D01*
X117279661Y-95531238D01*
X117279661Y-95852971D02*
X116498309Y-95852971D01*
X116406385Y-95898933D01*
X116360423Y-95944895D01*
X116314461Y-96036819D01*
X116314461Y-96220667D01*
X116360423Y-96312590D01*
X116406385Y-96358552D01*
X116498309Y-96404514D01*
X117279661Y-96404514D01*
X116360423Y-96818171D02*
X116314461Y-96956057D01*
X116314461Y-97185867D01*
X116360423Y-97277790D01*
X116406385Y-97323752D01*
X116498309Y-97369714D01*
X116590233Y-97369714D01*
X116682157Y-97323752D01*
X116728119Y-97277790D01*
X116774080Y-97185867D01*
X116820042Y-97002019D01*
X116866004Y-96910095D01*
X116911966Y-96864133D01*
X117003890Y-96818171D01*
X117095814Y-96818171D01*
X117187738Y-96864133D01*
X117233700Y-96910095D01*
X117279661Y-97002019D01*
X117279661Y-97231828D01*
X117233700Y-97369714D01*
X116820042Y-98105105D02*
X116774080Y-98242990D01*
X116728119Y-98288952D01*
X116636195Y-98334914D01*
X116498309Y-98334914D01*
X116406385Y-98288952D01*
X116360423Y-98242990D01*
X116314461Y-98151067D01*
X116314461Y-97783371D01*
X117279661Y-97783371D01*
X117279661Y-98105105D01*
X117233700Y-98197028D01*
X117187738Y-98242990D01*
X117095814Y-98288952D01*
X117003890Y-98288952D01*
X116911966Y-98242990D01*
X116866004Y-98197028D01*
X116820042Y-98105105D01*
X116820042Y-97783371D01*
X119819661Y-94887771D02*
X118854461Y-95209505D01*
X119819661Y-95531238D01*
X118854461Y-95852971D02*
X119819661Y-95852971D01*
X118854461Y-96312590D02*
X119819661Y-96312590D01*
X118854461Y-96864133D01*
X119819661Y-96864133D01*
X121670233Y-94979695D02*
X121670233Y-95439314D01*
X121394461Y-94887771D02*
X122359661Y-95209505D01*
X121394461Y-95531238D01*
X122313700Y-96358552D02*
X122359661Y-96266628D01*
X122359661Y-96128743D01*
X122313700Y-95990857D01*
X122221776Y-95898933D01*
X122129852Y-95852971D01*
X121946004Y-95807009D01*
X121808119Y-95807009D01*
X121624271Y-95852971D01*
X121532347Y-95898933D01*
X121440423Y-95990857D01*
X121394461Y-96128743D01*
X121394461Y-96220667D01*
X121440423Y-96358552D01*
X121486385Y-96404514D01*
X121808119Y-96404514D01*
X121808119Y-96220667D01*
X121394461Y-96818171D02*
X122359661Y-96818171D01*
X121394461Y-97369714D01*
X122359661Y-97369714D01*
X121394461Y-97829333D02*
X122359661Y-97829333D01*
X122359661Y-98059143D01*
X122313700Y-98197028D01*
X122221776Y-98288952D01*
X122129852Y-98334914D01*
X121946004Y-98380876D01*
X121808119Y-98380876D01*
X121624271Y-98334914D01*
X121532347Y-98288952D01*
X121440423Y-98197028D01*
X121394461Y-98059143D01*
X121394461Y-97829333D01*
X124899661Y-94933733D02*
X124899661Y-95531238D01*
X124531966Y-95209505D01*
X124531966Y-95347390D01*
X124486004Y-95439314D01*
X124440042Y-95485276D01*
X124348119Y-95531238D01*
X124118309Y-95531238D01*
X124026385Y-95485276D01*
X123980423Y-95439314D01*
X123934461Y-95347390D01*
X123934461Y-95071619D01*
X123980423Y-94979695D01*
X124026385Y-94933733D01*
X124026385Y-95944895D02*
X123980423Y-95990857D01*
X123934461Y-95944895D01*
X123980423Y-95898933D01*
X124026385Y-95944895D01*
X123934461Y-95944895D01*
X124899661Y-96312590D02*
X124899661Y-96910095D01*
X124531966Y-96588362D01*
X124531966Y-96726248D01*
X124486004Y-96818171D01*
X124440042Y-96864133D01*
X124348119Y-96910095D01*
X124118309Y-96910095D01*
X124026385Y-96864133D01*
X123980423Y-96818171D01*
X123934461Y-96726248D01*
X123934461Y-96450476D01*
X123980423Y-96358552D01*
X124026385Y-96312590D01*
X124899661Y-97185867D02*
X123934461Y-97507600D01*
X124899661Y-97829333D01*
X126750233Y-94979695D02*
X126750233Y-95439314D01*
X126474461Y-94887771D02*
X127439661Y-95209505D01*
X126474461Y-95531238D01*
X126474461Y-96404514D02*
X126934080Y-96082781D01*
X126474461Y-95852971D02*
X127439661Y-95852971D01*
X127439661Y-96220667D01*
X127393700Y-96312590D01*
X127347738Y-96358552D01*
X127255814Y-96404514D01*
X127117928Y-96404514D01*
X127026004Y-96358552D01*
X126980042Y-96312590D01*
X126934080Y-96220667D01*
X126934080Y-95852971D01*
X126980042Y-96818171D02*
X126980042Y-97139905D01*
X126474461Y-97277790D02*
X126474461Y-96818171D01*
X127439661Y-96818171D01*
X127439661Y-97277790D01*
X126980042Y-98013181D02*
X126980042Y-97691448D01*
X126474461Y-97691448D02*
X127439661Y-97691448D01*
X127439661Y-98151067D01*
X129290233Y-94979695D02*
X129290233Y-95439314D01*
X129014461Y-94887771D02*
X129979661Y-95209505D01*
X129014461Y-95531238D01*
X129014461Y-96358552D02*
X129014461Y-95807009D01*
X129014461Y-96082781D02*
X129979661Y-96082781D01*
X129841776Y-95990857D01*
X129749852Y-95898933D01*
X129703890Y-95807009D01*
X129979661Y-96956057D02*
X129979661Y-97047981D01*
X129933700Y-97139905D01*
X129887738Y-97185867D01*
X129795814Y-97231828D01*
X129611966Y-97277790D01*
X129382157Y-97277790D01*
X129198309Y-97231828D01*
X129106385Y-97185867D01*
X129060423Y-97139905D01*
X129014461Y-97047981D01*
X129014461Y-96956057D01*
X129060423Y-96864133D01*
X129106385Y-96818171D01*
X129198309Y-96772209D01*
X129382157Y-96726248D01*
X129611966Y-96726248D01*
X129795814Y-96772209D01*
X129887738Y-96818171D01*
X129933700Y-96864133D01*
X129979661Y-96956057D01*
X131830233Y-94979695D02*
X131830233Y-95439314D01*
X131554461Y-94887771D02*
X132519661Y-95209505D01*
X131554461Y-95531238D01*
X131554461Y-96358552D02*
X131554461Y-95807009D01*
X131554461Y-96082781D02*
X132519661Y-96082781D01*
X132381776Y-95990857D01*
X132289852Y-95898933D01*
X132243890Y-95807009D01*
X131554461Y-97277790D02*
X131554461Y-96726248D01*
X131554461Y-97002019D02*
X132519661Y-97002019D01*
X132381776Y-96910095D01*
X132289852Y-96818171D01*
X132243890Y-96726248D01*
X134967738Y-94979695D02*
X135013700Y-95025657D01*
X135059661Y-95117581D01*
X135059661Y-95347390D01*
X135013700Y-95439314D01*
X134967738Y-95485276D01*
X134875814Y-95531238D01*
X134783890Y-95531238D01*
X134646004Y-95485276D01*
X134094461Y-94933733D01*
X134094461Y-95531238D01*
X135059661Y-95852971D02*
X135059661Y-96450476D01*
X134691966Y-96128743D01*
X134691966Y-96266628D01*
X134646004Y-96358552D01*
X134600042Y-96404514D01*
X134508119Y-96450476D01*
X134278309Y-96450476D01*
X134186385Y-96404514D01*
X134140423Y-96358552D01*
X134094461Y-96266628D01*
X134094461Y-95990857D01*
X134140423Y-95898933D01*
X134186385Y-95852971D01*
X137507738Y-94979695D02*
X137553700Y-95025657D01*
X137599661Y-95117581D01*
X137599661Y-95347390D01*
X137553700Y-95439314D01*
X137507738Y-95485276D01*
X137415814Y-95531238D01*
X137323890Y-95531238D01*
X137186004Y-95485276D01*
X136634461Y-94933733D01*
X136634461Y-95531238D01*
X137507738Y-95898933D02*
X137553700Y-95944895D01*
X137599661Y-96036819D01*
X137599661Y-96266628D01*
X137553700Y-96358552D01*
X137507738Y-96404514D01*
X137415814Y-96450476D01*
X137323890Y-96450476D01*
X137186004Y-96404514D01*
X136634461Y-95852971D01*
X136634461Y-96450476D01*
X140047738Y-94979695D02*
X140093700Y-95025657D01*
X140139661Y-95117581D01*
X140139661Y-95347390D01*
X140093700Y-95439314D01*
X140047738Y-95485276D01*
X139955814Y-95531238D01*
X139863890Y-95531238D01*
X139726004Y-95485276D01*
X139174461Y-94933733D01*
X139174461Y-95531238D01*
X139174461Y-96450476D02*
X139174461Y-95898933D01*
X139174461Y-96174705D02*
X140139661Y-96174705D01*
X140001776Y-96082781D01*
X139909852Y-95990857D01*
X139863890Y-95898933D01*
X142587738Y-94979695D02*
X142633700Y-95025657D01*
X142679661Y-95117581D01*
X142679661Y-95347390D01*
X142633700Y-95439314D01*
X142587738Y-95485276D01*
X142495814Y-95531238D01*
X142403890Y-95531238D01*
X142266004Y-95485276D01*
X141714461Y-94933733D01*
X141714461Y-95531238D01*
X142679661Y-96128743D02*
X142679661Y-96220667D01*
X142633700Y-96312590D01*
X142587738Y-96358552D01*
X142495814Y-96404514D01*
X142311966Y-96450476D01*
X142082157Y-96450476D01*
X141898309Y-96404514D01*
X141806385Y-96358552D01*
X141760423Y-96312590D01*
X141714461Y-96220667D01*
X141714461Y-96128743D01*
X141760423Y-96036819D01*
X141806385Y-95990857D01*
X141898309Y-95944895D01*
X142082157Y-95898933D01*
X142311966Y-95898933D01*
X142495814Y-95944895D01*
X142587738Y-95990857D01*
X142633700Y-96036819D01*
X142679661Y-96128743D01*
X144254461Y-95531238D02*
X144254461Y-94979695D01*
X144254461Y-95255467D02*
X145219661Y-95255467D01*
X145081776Y-95163543D01*
X144989852Y-95071619D01*
X144943890Y-94979695D01*
X144254461Y-95990857D02*
X144254461Y-96174705D01*
X144300423Y-96266628D01*
X144346385Y-96312590D01*
X144484271Y-96404514D01*
X144668119Y-96450476D01*
X145035814Y-96450476D01*
X145127738Y-96404514D01*
X145173700Y-96358552D01*
X145219661Y-96266628D01*
X145219661Y-96082781D01*
X145173700Y-95990857D01*
X145127738Y-95944895D01*
X145035814Y-95898933D01*
X144806004Y-95898933D01*
X144714080Y-95944895D01*
X144668119Y-95990857D01*
X144622157Y-96082781D01*
X144622157Y-96266628D01*
X144668119Y-96358552D01*
X144714080Y-96404514D01*
X144806004Y-96450476D01*
X146794461Y-95531238D02*
X146794461Y-94979695D01*
X146794461Y-95255467D02*
X147759661Y-95255467D01*
X147621776Y-95163543D01*
X147529852Y-95071619D01*
X147483890Y-94979695D01*
X147346004Y-96082781D02*
X147391966Y-95990857D01*
X147437928Y-95944895D01*
X147529852Y-95898933D01*
X147575814Y-95898933D01*
X147667738Y-95944895D01*
X147713700Y-95990857D01*
X147759661Y-96082781D01*
X147759661Y-96266628D01*
X147713700Y-96358552D01*
X147667738Y-96404514D01*
X147575814Y-96450476D01*
X147529852Y-96450476D01*
X147437928Y-96404514D01*
X147391966Y-96358552D01*
X147346004Y-96266628D01*
X147346004Y-96082781D01*
X147300042Y-95990857D01*
X147254080Y-95944895D01*
X147162157Y-95898933D01*
X146978309Y-95898933D01*
X146886385Y-95944895D01*
X146840423Y-95990857D01*
X146794461Y-96082781D01*
X146794461Y-96266628D01*
X146840423Y-96358552D01*
X146886385Y-96404514D01*
X146978309Y-96450476D01*
X147162157Y-96450476D01*
X147254080Y-96404514D01*
X147300042Y-96358552D01*
X147346004Y-96266628D01*
X149334461Y-95531238D02*
X149334461Y-94979695D01*
X149334461Y-95255467D02*
X150299661Y-95255467D01*
X150161776Y-95163543D01*
X150069852Y-95071619D01*
X150023890Y-94979695D01*
X150299661Y-95852971D02*
X150299661Y-96496438D01*
X149334461Y-96082781D01*
X151874461Y-95531238D02*
X151874461Y-94979695D01*
X151874461Y-95255467D02*
X152839661Y-95255467D01*
X152701776Y-95163543D01*
X152609852Y-95071619D01*
X152563890Y-94979695D01*
X152839661Y-96358552D02*
X152839661Y-96174705D01*
X152793700Y-96082781D01*
X152747738Y-96036819D01*
X152609852Y-95944895D01*
X152426004Y-95898933D01*
X152058309Y-95898933D01*
X151966385Y-95944895D01*
X151920423Y-95990857D01*
X151874461Y-96082781D01*
X151874461Y-96266628D01*
X151920423Y-96358552D01*
X151966385Y-96404514D01*
X152058309Y-96450476D01*
X152288119Y-96450476D01*
X152380042Y-96404514D01*
X152426004Y-96358552D01*
X152471966Y-96266628D01*
X152471966Y-96082781D01*
X152426004Y-95990857D01*
X152380042Y-95944895D01*
X152288119Y-95898933D01*
X154414461Y-95531238D02*
X154414461Y-94979695D01*
X154414461Y-95255467D02*
X155379661Y-95255467D01*
X155241776Y-95163543D01*
X155149852Y-95071619D01*
X155103890Y-94979695D01*
X155379661Y-96404514D02*
X155379661Y-95944895D01*
X154920042Y-95898933D01*
X154966004Y-95944895D01*
X155011966Y-96036819D01*
X155011966Y-96266628D01*
X154966004Y-96358552D01*
X154920042Y-96404514D01*
X154828119Y-96450476D01*
X154598309Y-96450476D01*
X154506385Y-96404514D01*
X154460423Y-96358552D01*
X154414461Y-96266628D01*
X154414461Y-96036819D01*
X154460423Y-95944895D01*
X154506385Y-95898933D01*
X156954461Y-95531238D02*
X156954461Y-94979695D01*
X156954461Y-95255467D02*
X157919661Y-95255467D01*
X157781776Y-95163543D01*
X157689852Y-95071619D01*
X157643890Y-94979695D01*
X157597928Y-96358552D02*
X156954461Y-96358552D01*
X157965623Y-96128743D02*
X157276195Y-95898933D01*
X157276195Y-96496438D01*
X159494461Y-95531238D02*
X159494461Y-94979695D01*
X159494461Y-95255467D02*
X160459661Y-95255467D01*
X160321776Y-95163543D01*
X160229852Y-95071619D01*
X160183890Y-94979695D01*
X160459661Y-95852971D02*
X160459661Y-96450476D01*
X160091966Y-96128743D01*
X160091966Y-96266628D01*
X160046004Y-96358552D01*
X160000042Y-96404514D01*
X159908119Y-96450476D01*
X159678309Y-96450476D01*
X159586385Y-96404514D01*
X159540423Y-96358552D01*
X159494461Y-96266628D01*
X159494461Y-95990857D01*
X159540423Y-95898933D01*
X159586385Y-95852971D01*
X162310233Y-94979695D02*
X162310233Y-95439314D01*
X162034461Y-94887771D02*
X162999661Y-95209505D01*
X162034461Y-95531238D01*
X162034461Y-96358552D02*
X162034461Y-95807009D01*
X162034461Y-96082781D02*
X162999661Y-96082781D01*
X162861776Y-95990857D01*
X162769852Y-95898933D01*
X162723890Y-95807009D01*
X162999661Y-96680286D02*
X162999661Y-97277790D01*
X162631966Y-96956057D01*
X162631966Y-97093943D01*
X162586004Y-97185867D01*
X162540042Y-97231828D01*
X162448119Y-97277790D01*
X162218309Y-97277790D01*
X162126385Y-97231828D01*
X162080423Y-97185867D01*
X162034461Y-97093943D01*
X162034461Y-96818171D01*
X162080423Y-96726248D01*
X162126385Y-96680286D01*
X165539661Y-94933733D02*
X165539661Y-95531238D01*
X165171966Y-95209505D01*
X165171966Y-95347390D01*
X165126004Y-95439314D01*
X165080042Y-95485276D01*
X164988119Y-95531238D01*
X164758309Y-95531238D01*
X164666385Y-95485276D01*
X164620423Y-95439314D01*
X164574461Y-95347390D01*
X164574461Y-95071619D01*
X164620423Y-94979695D01*
X164666385Y-94933733D01*
X164666385Y-95944895D02*
X164620423Y-95990857D01*
X164574461Y-95944895D01*
X164620423Y-95898933D01*
X164666385Y-95944895D01*
X164574461Y-95944895D01*
X165539661Y-96312590D02*
X165539661Y-96910095D01*
X165171966Y-96588362D01*
X165171966Y-96726248D01*
X165126004Y-96818171D01*
X165080042Y-96864133D01*
X164988119Y-96910095D01*
X164758309Y-96910095D01*
X164666385Y-96864133D01*
X164620423Y-96818171D01*
X164574461Y-96726248D01*
X164574461Y-96450476D01*
X164620423Y-96358552D01*
X164666385Y-96312590D01*
X165539661Y-97185867D02*
X164574461Y-97507600D01*
X165539661Y-97829333D01*
X168079661Y-94933733D02*
X168079661Y-95531238D01*
X167711966Y-95209505D01*
X167711966Y-95347390D01*
X167666004Y-95439314D01*
X167620042Y-95485276D01*
X167528119Y-95531238D01*
X167298309Y-95531238D01*
X167206385Y-95485276D01*
X167160423Y-95439314D01*
X167114461Y-95347390D01*
X167114461Y-95071619D01*
X167160423Y-94979695D01*
X167206385Y-94933733D01*
X168079661Y-95852971D02*
X168079661Y-96450476D01*
X167711966Y-96128743D01*
X167711966Y-96266628D01*
X167666004Y-96358552D01*
X167620042Y-96404514D01*
X167528119Y-96450476D01*
X167298309Y-96450476D01*
X167206385Y-96404514D01*
X167160423Y-96358552D01*
X167114461Y-96266628D01*
X167114461Y-95990857D01*
X167160423Y-95898933D01*
X167206385Y-95852971D01*
X170619661Y-94933733D02*
X170619661Y-95531238D01*
X170251966Y-95209505D01*
X170251966Y-95347390D01*
X170206004Y-95439314D01*
X170160042Y-95485276D01*
X170068119Y-95531238D01*
X169838309Y-95531238D01*
X169746385Y-95485276D01*
X169700423Y-95439314D01*
X169654461Y-95347390D01*
X169654461Y-95071619D01*
X169700423Y-94979695D01*
X169746385Y-94933733D01*
X170527738Y-95898933D02*
X170573700Y-95944895D01*
X170619661Y-96036819D01*
X170619661Y-96266628D01*
X170573700Y-96358552D01*
X170527738Y-96404514D01*
X170435814Y-96450476D01*
X170343890Y-96450476D01*
X170206004Y-96404514D01*
X169654461Y-95852971D01*
X169654461Y-96450476D01*
X173032661Y-94933733D02*
X173032661Y-95531238D01*
X172664966Y-95209505D01*
X172664966Y-95347390D01*
X172619004Y-95439314D01*
X172573042Y-95485276D01*
X172481119Y-95531238D01*
X172251309Y-95531238D01*
X172159385Y-95485276D01*
X172113423Y-95439314D01*
X172067461Y-95347390D01*
X172067461Y-95071619D01*
X172113423Y-94979695D01*
X172159385Y-94933733D01*
X172067461Y-96450476D02*
X172067461Y-95898933D01*
X172067461Y-96174705D02*
X173032661Y-96174705D01*
X172894776Y-96082781D01*
X172802852Y-95990857D01*
X172756890Y-95898933D01*
X175699661Y-94933733D02*
X175699661Y-95531238D01*
X175331966Y-95209505D01*
X175331966Y-95347390D01*
X175286004Y-95439314D01*
X175240042Y-95485276D01*
X175148119Y-95531238D01*
X174918309Y-95531238D01*
X174826385Y-95485276D01*
X174780423Y-95439314D01*
X174734461Y-95347390D01*
X174734461Y-95071619D01*
X174780423Y-94979695D01*
X174826385Y-94933733D01*
X175699661Y-96128743D02*
X175699661Y-96220667D01*
X175653700Y-96312590D01*
X175607738Y-96358552D01*
X175515814Y-96404514D01*
X175331966Y-96450476D01*
X175102157Y-96450476D01*
X174918309Y-96404514D01*
X174826385Y-96358552D01*
X174780423Y-96312590D01*
X174734461Y-96220667D01*
X174734461Y-96128743D01*
X174780423Y-96036819D01*
X174826385Y-95990857D01*
X174918309Y-95944895D01*
X175102157Y-95898933D01*
X175331966Y-95898933D01*
X175515814Y-95944895D01*
X175607738Y-95990857D01*
X175653700Y-96036819D01*
X175699661Y-96128743D01*
X178147738Y-94979695D02*
X178193700Y-95025657D01*
X178239661Y-95117581D01*
X178239661Y-95347390D01*
X178193700Y-95439314D01*
X178147738Y-95485276D01*
X178055814Y-95531238D01*
X177963890Y-95531238D01*
X177826004Y-95485276D01*
X177274461Y-94933733D01*
X177274461Y-95531238D01*
X177274461Y-95990857D02*
X177274461Y-96174705D01*
X177320423Y-96266628D01*
X177366385Y-96312590D01*
X177504271Y-96404514D01*
X177688119Y-96450476D01*
X178055814Y-96450476D01*
X178147738Y-96404514D01*
X178193700Y-96358552D01*
X178239661Y-96266628D01*
X178239661Y-96082781D01*
X178193700Y-95990857D01*
X178147738Y-95944895D01*
X178055814Y-95898933D01*
X177826004Y-95898933D01*
X177734080Y-95944895D01*
X177688119Y-95990857D01*
X177642157Y-96082781D01*
X177642157Y-96266628D01*
X177688119Y-96358552D01*
X177734080Y-96404514D01*
X177826004Y-96450476D01*
X180779661Y-94933733D02*
X180779661Y-95531238D01*
X180411966Y-95209505D01*
X180411966Y-95347390D01*
X180366004Y-95439314D01*
X180320042Y-95485276D01*
X180228119Y-95531238D01*
X179998309Y-95531238D01*
X179906385Y-95485276D01*
X179860423Y-95439314D01*
X179814461Y-95347390D01*
X179814461Y-95071619D01*
X179860423Y-94979695D01*
X179906385Y-94933733D01*
X179906385Y-95944895D02*
X179860423Y-95990857D01*
X179814461Y-95944895D01*
X179860423Y-95898933D01*
X179906385Y-95944895D01*
X179814461Y-95944895D01*
X180779661Y-96312590D02*
X180779661Y-96910095D01*
X180411966Y-96588362D01*
X180411966Y-96726248D01*
X180366004Y-96818171D01*
X180320042Y-96864133D01*
X180228119Y-96910095D01*
X179998309Y-96910095D01*
X179906385Y-96864133D01*
X179860423Y-96818171D01*
X179814461Y-96726248D01*
X179814461Y-96450476D01*
X179860423Y-96358552D01*
X179906385Y-96312590D01*
X180779661Y-97185867D02*
X179814461Y-97507600D01*
X180779661Y-97829333D01*
X183273700Y-95531238D02*
X183319661Y-95439314D01*
X183319661Y-95301428D01*
X183273700Y-95163543D01*
X183181776Y-95071619D01*
X183089852Y-95025657D01*
X182906004Y-94979695D01*
X182768119Y-94979695D01*
X182584271Y-95025657D01*
X182492347Y-95071619D01*
X182400423Y-95163543D01*
X182354461Y-95301428D01*
X182354461Y-95393352D01*
X182400423Y-95531238D01*
X182446385Y-95577200D01*
X182768119Y-95577200D01*
X182768119Y-95393352D01*
X182354461Y-95990857D02*
X183319661Y-95990857D01*
X182354461Y-96542400D01*
X183319661Y-96542400D01*
X182354461Y-97002019D02*
X183319661Y-97002019D01*
X183319661Y-97231828D01*
X183273700Y-97369714D01*
X183181776Y-97461638D01*
X183089852Y-97507600D01*
X182906004Y-97553562D01*
X182768119Y-97553562D01*
X182584271Y-97507600D01*
X182492347Y-97461638D01*
X182400423Y-97369714D01*
X182354461Y-97231828D01*
X182354461Y-97002019D01*
X183273700Y-113005180D02*
X183319661Y-112913256D01*
X183319661Y-112775371D01*
X183273700Y-112637485D01*
X183181776Y-112545561D01*
X183089852Y-112499599D01*
X182906004Y-112453637D01*
X182768119Y-112453637D01*
X182584271Y-112499599D01*
X182492347Y-112545561D01*
X182400423Y-112637485D01*
X182354461Y-112775371D01*
X182354461Y-112867294D01*
X182400423Y-113005180D01*
X182446385Y-113051142D01*
X182768119Y-113051142D01*
X182768119Y-112867294D01*
X182354461Y-113464799D02*
X183319661Y-113464799D01*
X182354461Y-114016342D01*
X183319661Y-114016342D01*
X182354461Y-114475961D02*
X183319661Y-114475961D01*
X183319661Y-114705771D01*
X183273700Y-114843656D01*
X183181776Y-114935580D01*
X183089852Y-114981542D01*
X182906004Y-115027504D01*
X182768119Y-115027504D01*
X182584271Y-114981542D01*
X182492347Y-114935580D01*
X182400423Y-114843656D01*
X182354461Y-114705771D01*
X182354461Y-114475961D01*
X179814461Y-112683447D02*
X180779661Y-112683447D01*
X180779661Y-112913256D01*
X180733700Y-113051142D01*
X180641776Y-113143066D01*
X180549852Y-113189028D01*
X180366004Y-113234990D01*
X180228119Y-113234990D01*
X180044271Y-113189028D01*
X179952347Y-113143066D01*
X179860423Y-113051142D01*
X179814461Y-112913256D01*
X179814461Y-112683447D01*
X180090233Y-113602685D02*
X180090233Y-114062304D01*
X179814461Y-113510761D02*
X180779661Y-113832494D01*
X179814461Y-114154228D01*
X179906385Y-115027504D02*
X179860423Y-114981542D01*
X179814461Y-114843656D01*
X179814461Y-114751732D01*
X179860423Y-114613847D01*
X179952347Y-114521923D01*
X180044271Y-114475961D01*
X180228119Y-114429999D01*
X180366004Y-114429999D01*
X180549852Y-114475961D01*
X180641776Y-114521923D01*
X180733700Y-114613847D01*
X180779661Y-114751732D01*
X180779661Y-114843656D01*
X180733700Y-114981542D01*
X180687738Y-115027504D01*
X178147738Y-113556723D02*
X178193700Y-113602685D01*
X178239661Y-113694609D01*
X178239661Y-113924418D01*
X178193700Y-114016342D01*
X178147738Y-114062304D01*
X178055814Y-114108266D01*
X177963890Y-114108266D01*
X177826004Y-114062304D01*
X177274461Y-113510761D01*
X177274461Y-114108266D01*
X177826004Y-114659809D02*
X177871966Y-114567885D01*
X177917928Y-114521923D01*
X178009852Y-114475961D01*
X178055814Y-114475961D01*
X178147738Y-114521923D01*
X178193700Y-114567885D01*
X178239661Y-114659809D01*
X178239661Y-114843656D01*
X178193700Y-114935580D01*
X178147738Y-114981542D01*
X178055814Y-115027504D01*
X178009852Y-115027504D01*
X177917928Y-114981542D01*
X177871966Y-114935580D01*
X177826004Y-114843656D01*
X177826004Y-114659809D01*
X177780042Y-114567885D01*
X177734080Y-114521923D01*
X177642157Y-114475961D01*
X177458309Y-114475961D01*
X177366385Y-114521923D01*
X177320423Y-114567885D01*
X177274461Y-114659809D01*
X177274461Y-114843656D01*
X177320423Y-114935580D01*
X177366385Y-114981542D01*
X177458309Y-115027504D01*
X177642157Y-115027504D01*
X177734080Y-114981542D01*
X177780042Y-114935580D01*
X177826004Y-114843656D01*
X175607738Y-113556723D02*
X175653700Y-113602685D01*
X175699661Y-113694609D01*
X175699661Y-113924418D01*
X175653700Y-114016342D01*
X175607738Y-114062304D01*
X175515814Y-114108266D01*
X175423890Y-114108266D01*
X175286004Y-114062304D01*
X174734461Y-113510761D01*
X174734461Y-114108266D01*
X175699661Y-114429999D02*
X175699661Y-115073466D01*
X174734461Y-114659809D01*
X173067738Y-113556723D02*
X173113700Y-113602685D01*
X173159661Y-113694609D01*
X173159661Y-113924418D01*
X173113700Y-114016342D01*
X173067738Y-114062304D01*
X172975814Y-114108266D01*
X172883890Y-114108266D01*
X172746004Y-114062304D01*
X172194461Y-113510761D01*
X172194461Y-114108266D01*
X173159661Y-114935580D02*
X173159661Y-114751732D01*
X173113700Y-114659809D01*
X173067738Y-114613847D01*
X172929852Y-114521923D01*
X172746004Y-114475961D01*
X172378309Y-114475961D01*
X172286385Y-114521923D01*
X172240423Y-114567885D01*
X172194461Y-114659809D01*
X172194461Y-114843656D01*
X172240423Y-114935580D01*
X172286385Y-114981542D01*
X172378309Y-115027504D01*
X172608119Y-115027504D01*
X172700042Y-114981542D01*
X172746004Y-114935580D01*
X172791966Y-114843656D01*
X172791966Y-114659809D01*
X172746004Y-114567885D01*
X172700042Y-114521923D01*
X172608119Y-114475961D01*
X170527738Y-113556723D02*
X170573700Y-113602685D01*
X170619661Y-113694609D01*
X170619661Y-113924418D01*
X170573700Y-114016342D01*
X170527738Y-114062304D01*
X170435814Y-114108266D01*
X170343890Y-114108266D01*
X170206004Y-114062304D01*
X169654461Y-113510761D01*
X169654461Y-114108266D01*
X170619661Y-114981542D02*
X170619661Y-114521923D01*
X170160042Y-114475961D01*
X170206004Y-114521923D01*
X170251966Y-114613847D01*
X170251966Y-114843656D01*
X170206004Y-114935580D01*
X170160042Y-114981542D01*
X170068119Y-115027504D01*
X169838309Y-115027504D01*
X169746385Y-114981542D01*
X169700423Y-114935580D01*
X169654461Y-114843656D01*
X169654461Y-114613847D01*
X169700423Y-114521923D01*
X169746385Y-114475961D01*
X167987738Y-113556723D02*
X168033700Y-113602685D01*
X168079661Y-113694609D01*
X168079661Y-113924418D01*
X168033700Y-114016342D01*
X167987738Y-114062304D01*
X167895814Y-114108266D01*
X167803890Y-114108266D01*
X167666004Y-114062304D01*
X167114461Y-113510761D01*
X167114461Y-114108266D01*
X167757928Y-114935580D02*
X167114461Y-114935580D01*
X168125623Y-114705771D02*
X167436195Y-114475961D01*
X167436195Y-115073466D01*
X165493700Y-113005180D02*
X165539661Y-112913256D01*
X165539661Y-112775371D01*
X165493700Y-112637485D01*
X165401776Y-112545561D01*
X165309852Y-112499599D01*
X165126004Y-112453637D01*
X164988119Y-112453637D01*
X164804271Y-112499599D01*
X164712347Y-112545561D01*
X164620423Y-112637485D01*
X164574461Y-112775371D01*
X164574461Y-112867294D01*
X164620423Y-113005180D01*
X164666385Y-113051142D01*
X164988119Y-113051142D01*
X164988119Y-112867294D01*
X164574461Y-113464799D02*
X165539661Y-113464799D01*
X164574461Y-114016342D01*
X165539661Y-114016342D01*
X164574461Y-114475961D02*
X165539661Y-114475961D01*
X165539661Y-114705771D01*
X165493700Y-114843656D01*
X165401776Y-114935580D01*
X165309852Y-114981542D01*
X165126004Y-115027504D01*
X164988119Y-115027504D01*
X164804271Y-114981542D01*
X164712347Y-114935580D01*
X164620423Y-114843656D01*
X164574461Y-114705771D01*
X164574461Y-114475961D01*
X162310233Y-112729409D02*
X162310233Y-113189028D01*
X162034461Y-112637485D02*
X162999661Y-112959218D01*
X162034461Y-113280952D01*
X162034461Y-114108266D02*
X162034461Y-113556723D01*
X162034461Y-113832494D02*
X162999661Y-113832494D01*
X162861776Y-113740571D01*
X162769852Y-113648647D01*
X162723890Y-113556723D01*
X162907738Y-114475961D02*
X162953700Y-114521923D01*
X162999661Y-114613847D01*
X162999661Y-114843656D01*
X162953700Y-114935580D01*
X162907738Y-114981542D01*
X162815814Y-115027504D01*
X162723890Y-115027504D01*
X162586004Y-114981542D01*
X162034461Y-114429999D01*
X162034461Y-115027504D01*
X159494461Y-114108266D02*
X159494461Y-113556723D01*
X159494461Y-113832494D02*
X160459661Y-113832494D01*
X160321776Y-113740571D01*
X160229852Y-113648647D01*
X160183890Y-113556723D01*
X160367738Y-114475961D02*
X160413700Y-114521923D01*
X160459661Y-114613847D01*
X160459661Y-114843656D01*
X160413700Y-114935580D01*
X160367738Y-114981542D01*
X160275814Y-115027504D01*
X160183890Y-115027504D01*
X160046004Y-114981542D01*
X159494461Y-114429999D01*
X159494461Y-115027504D01*
X156954461Y-114108266D02*
X156954461Y-113556723D01*
X156954461Y-113832494D02*
X157919661Y-113832494D01*
X157781776Y-113740571D01*
X157689852Y-113648647D01*
X157643890Y-113556723D01*
X156954461Y-115027504D02*
X156954461Y-114475961D01*
X156954461Y-114751732D02*
X157919661Y-114751732D01*
X157781776Y-114659809D01*
X157689852Y-114567885D01*
X157643890Y-114475961D01*
X154414461Y-114108266D02*
X154414461Y-113556723D01*
X154414461Y-113832494D02*
X155379661Y-113832494D01*
X155241776Y-113740571D01*
X155149852Y-113648647D01*
X155103890Y-113556723D01*
X155379661Y-114705771D02*
X155379661Y-114797694D01*
X155333700Y-114889618D01*
X155287738Y-114935580D01*
X155195814Y-114981542D01*
X155011966Y-115027504D01*
X154782157Y-115027504D01*
X154598309Y-114981542D01*
X154506385Y-114935580D01*
X154460423Y-114889618D01*
X154414461Y-114797694D01*
X154414461Y-114705771D01*
X154460423Y-114613847D01*
X154506385Y-114567885D01*
X154598309Y-114521923D01*
X154782157Y-114475961D01*
X155011966Y-114475961D01*
X155195814Y-114521923D01*
X155287738Y-114567885D01*
X155333700Y-114613847D01*
X155379661Y-114705771D01*
X151874461Y-114567885D02*
X151874461Y-114751732D01*
X151920423Y-114843656D01*
X151966385Y-114889618D01*
X152104271Y-114981542D01*
X152288119Y-115027504D01*
X152655814Y-115027504D01*
X152747738Y-114981542D01*
X152793700Y-114935580D01*
X152839661Y-114843656D01*
X152839661Y-114659809D01*
X152793700Y-114567885D01*
X152747738Y-114521923D01*
X152655814Y-114475961D01*
X152426004Y-114475961D01*
X152334080Y-114521923D01*
X152288119Y-114567885D01*
X152242157Y-114659809D01*
X152242157Y-114843656D01*
X152288119Y-114935580D01*
X152334080Y-114981542D01*
X152426004Y-115027504D01*
X149886004Y-114659809D02*
X149931966Y-114567885D01*
X149977928Y-114521923D01*
X150069852Y-114475961D01*
X150115814Y-114475961D01*
X150207738Y-114521923D01*
X150253700Y-114567885D01*
X150299661Y-114659809D01*
X150299661Y-114843656D01*
X150253700Y-114935580D01*
X150207738Y-114981542D01*
X150115814Y-115027504D01*
X150069852Y-115027504D01*
X149977928Y-114981542D01*
X149931966Y-114935580D01*
X149886004Y-114843656D01*
X149886004Y-114659809D01*
X149840042Y-114567885D01*
X149794080Y-114521923D01*
X149702157Y-114475961D01*
X149518309Y-114475961D01*
X149426385Y-114521923D01*
X149380423Y-114567885D01*
X149334461Y-114659809D01*
X149334461Y-114843656D01*
X149380423Y-114935580D01*
X149426385Y-114981542D01*
X149518309Y-115027504D01*
X149702157Y-115027504D01*
X149794080Y-114981542D01*
X149840042Y-114935580D01*
X149886004Y-114843656D01*
X147759661Y-114429999D02*
X147759661Y-115073466D01*
X146794461Y-114659809D01*
X145219661Y-114935580D02*
X145219661Y-114751732D01*
X145173700Y-114659809D01*
X145127738Y-114613847D01*
X144989852Y-114521923D01*
X144806004Y-114475961D01*
X144438309Y-114475961D01*
X144346385Y-114521923D01*
X144300423Y-114567885D01*
X144254461Y-114659809D01*
X144254461Y-114843656D01*
X144300423Y-114935580D01*
X144346385Y-114981542D01*
X144438309Y-115027504D01*
X144668119Y-115027504D01*
X144760042Y-114981542D01*
X144806004Y-114935580D01*
X144851966Y-114843656D01*
X144851966Y-114659809D01*
X144806004Y-114567885D01*
X144760042Y-114521923D01*
X144668119Y-114475961D01*
X142679661Y-114981542D02*
X142679661Y-114521923D01*
X142220042Y-114475961D01*
X142266004Y-114521923D01*
X142311966Y-114613847D01*
X142311966Y-114843656D01*
X142266004Y-114935580D01*
X142220042Y-114981542D01*
X142128119Y-115027504D01*
X141898309Y-115027504D01*
X141806385Y-114981542D01*
X141760423Y-114935580D01*
X141714461Y-114843656D01*
X141714461Y-114613847D01*
X141760423Y-114521923D01*
X141806385Y-114475961D01*
X139817928Y-114935580D02*
X139174461Y-114935580D01*
X140185623Y-114705771D02*
X139496195Y-114475961D01*
X139496195Y-115073466D01*
X137599661Y-114429999D02*
X137599661Y-115027504D01*
X137231966Y-114705771D01*
X137231966Y-114843656D01*
X137186004Y-114935580D01*
X137140042Y-114981542D01*
X137048119Y-115027504D01*
X136818309Y-115027504D01*
X136726385Y-114981542D01*
X136680423Y-114935580D01*
X136634461Y-114843656D01*
X136634461Y-114567885D01*
X136680423Y-114475961D01*
X136726385Y-114429999D01*
X134967738Y-114475961D02*
X135013700Y-114521923D01*
X135059661Y-114613847D01*
X135059661Y-114843656D01*
X135013700Y-114935580D01*
X134967738Y-114981542D01*
X134875814Y-115027504D01*
X134783890Y-115027504D01*
X134646004Y-114981542D01*
X134094461Y-114429999D01*
X134094461Y-115027504D01*
X131554461Y-115027504D02*
X131554461Y-114475961D01*
X131554461Y-114751732D02*
X132519661Y-114751732D01*
X132381776Y-114659809D01*
X132289852Y-114567885D01*
X132243890Y-114475961D01*
X129979661Y-114705771D02*
X129979661Y-114797694D01*
X129933700Y-114889618D01*
X129887738Y-114935580D01*
X129795814Y-114981542D01*
X129611966Y-115027504D01*
X129382157Y-115027504D01*
X129198309Y-114981542D01*
X129106385Y-114935580D01*
X129060423Y-114889618D01*
X129014461Y-114797694D01*
X129014461Y-114705771D01*
X129060423Y-114613847D01*
X129106385Y-114567885D01*
X129198309Y-114521923D01*
X129382157Y-114475961D01*
X129611966Y-114475961D01*
X129795814Y-114521923D01*
X129887738Y-114567885D01*
X129933700Y-114613847D01*
X129979661Y-114705771D01*
X127393700Y-113005180D02*
X127439661Y-112913256D01*
X127439661Y-112775371D01*
X127393700Y-112637485D01*
X127301776Y-112545561D01*
X127209852Y-112499599D01*
X127026004Y-112453637D01*
X126888119Y-112453637D01*
X126704271Y-112499599D01*
X126612347Y-112545561D01*
X126520423Y-112637485D01*
X126474461Y-112775371D01*
X126474461Y-112867294D01*
X126520423Y-113005180D01*
X126566385Y-113051142D01*
X126888119Y-113051142D01*
X126888119Y-112867294D01*
X126474461Y-113464799D02*
X127439661Y-113464799D01*
X126474461Y-114016342D01*
X127439661Y-114016342D01*
X126474461Y-114475961D02*
X127439661Y-114475961D01*
X127439661Y-114705771D01*
X127393700Y-114843656D01*
X127301776Y-114935580D01*
X127209852Y-114981542D01*
X127026004Y-115027504D01*
X126888119Y-115027504D01*
X126704271Y-114981542D01*
X126612347Y-114935580D01*
X126520423Y-114843656D01*
X126474461Y-114705771D01*
X126474461Y-114475961D01*
X123934461Y-113372875D02*
X124394080Y-113051142D01*
X123934461Y-112821332D02*
X124899661Y-112821332D01*
X124899661Y-113189028D01*
X124853700Y-113280952D01*
X124807738Y-113326913D01*
X124715814Y-113372875D01*
X124577928Y-113372875D01*
X124486004Y-113326913D01*
X124440042Y-113280952D01*
X124394080Y-113189028D01*
X124394080Y-112821332D01*
X123980423Y-113740571D02*
X123934461Y-113878456D01*
X123934461Y-114108266D01*
X123980423Y-114200190D01*
X124026385Y-114246152D01*
X124118309Y-114292113D01*
X124210233Y-114292113D01*
X124302157Y-114246152D01*
X124348119Y-114200190D01*
X124394080Y-114108266D01*
X124440042Y-113924418D01*
X124486004Y-113832494D01*
X124531966Y-113786532D01*
X124623890Y-113740571D01*
X124715814Y-113740571D01*
X124807738Y-113786532D01*
X124853700Y-113832494D01*
X124899661Y-113924418D01*
X124899661Y-114154228D01*
X124853700Y-114292113D01*
X124899661Y-114567885D02*
X124899661Y-115119428D01*
X123934461Y-114843656D02*
X124899661Y-114843656D01*
X121440423Y-112407675D02*
X121394461Y-112545561D01*
X121394461Y-112775371D01*
X121440423Y-112867294D01*
X121486385Y-112913256D01*
X121578309Y-112959218D01*
X121670233Y-112959218D01*
X121762157Y-112913256D01*
X121808119Y-112867294D01*
X121854080Y-112775371D01*
X121900042Y-112591523D01*
X121946004Y-112499599D01*
X121991966Y-112453637D01*
X122083890Y-112407675D01*
X122175814Y-112407675D01*
X122267738Y-112453637D01*
X122313700Y-112499599D01*
X122359661Y-112591523D01*
X122359661Y-112821332D01*
X122313700Y-112959218D01*
X122359661Y-113280952D02*
X121394461Y-113510761D01*
X122083890Y-113694609D01*
X121394461Y-113878456D01*
X122359661Y-114108266D01*
X121394461Y-114475961D02*
X122359661Y-114475961D01*
X122359661Y-114705771D01*
X122313700Y-114843656D01*
X122221776Y-114935580D01*
X122129852Y-114981542D01*
X121946004Y-115027504D01*
X121808119Y-115027504D01*
X121624271Y-114981542D01*
X121532347Y-114935580D01*
X121440423Y-114843656D01*
X121394461Y-114705771D01*
X121394461Y-114475961D01*
X118900423Y-112407675D02*
X118854461Y-112545561D01*
X118854461Y-112775371D01*
X118900423Y-112867294D01*
X118946385Y-112913256D01*
X119038309Y-112959218D01*
X119130233Y-112959218D01*
X119222157Y-112913256D01*
X119268119Y-112867294D01*
X119314080Y-112775371D01*
X119360042Y-112591523D01*
X119406004Y-112499599D01*
X119451966Y-112453637D01*
X119543890Y-112407675D01*
X119635814Y-112407675D01*
X119727738Y-112453637D01*
X119773700Y-112499599D01*
X119819661Y-112591523D01*
X119819661Y-112821332D01*
X119773700Y-112959218D01*
X119819661Y-113280952D02*
X118854461Y-113510761D01*
X119543890Y-113694609D01*
X118854461Y-113878456D01*
X119819661Y-114108266D01*
X118946385Y-115027504D02*
X118900423Y-114981542D01*
X118854461Y-114843656D01*
X118854461Y-114751732D01*
X118900423Y-114613847D01*
X118992347Y-114521923D01*
X119084271Y-114475961D01*
X119268119Y-114429999D01*
X119406004Y-114429999D01*
X119589852Y-114475961D01*
X119681776Y-114521923D01*
X119773700Y-114613847D01*
X119819661Y-114751732D01*
X119819661Y-114843656D01*
X119773700Y-114981542D01*
X119727738Y-115027504D01*
X116820042Y-113097104D02*
X116820042Y-113418837D01*
X116314461Y-113556723D02*
X116314461Y-113097104D01*
X117279661Y-113097104D01*
X117279661Y-113556723D01*
X116314461Y-113970380D02*
X117279661Y-113970380D01*
X116314461Y-114521923D01*
X117279661Y-114521923D01*
X117279661Y-115027504D02*
X117095814Y-114935580D01*
X114693700Y-113005180D02*
X114739661Y-112913256D01*
X114739661Y-112775371D01*
X114693700Y-112637485D01*
X114601776Y-112545561D01*
X114509852Y-112499599D01*
X114326004Y-112453637D01*
X114188119Y-112453637D01*
X114004271Y-112499599D01*
X113912347Y-112545561D01*
X113820423Y-112637485D01*
X113774461Y-112775371D01*
X113774461Y-112867294D01*
X113820423Y-113005180D01*
X113866385Y-113051142D01*
X114188119Y-113051142D01*
X114188119Y-112867294D01*
X113774461Y-113464799D02*
X114739661Y-113464799D01*
X113774461Y-114016342D01*
X114739661Y-114016342D01*
X113774461Y-114475961D02*
X114739661Y-114475961D01*
X114739661Y-114705771D01*
X114693700Y-114843656D01*
X114601776Y-114935580D01*
X114509852Y-114981542D01*
X114326004Y-115027504D01*
X114188119Y-115027504D01*
X114004271Y-114981542D01*
X113912347Y-114935580D01*
X113820423Y-114843656D01*
X113774461Y-114705771D01*
X113774461Y-114475961D01*
X177983823Y-100360238D02*
X177662090Y-99900619D01*
X177432280Y-100360238D02*
X177432280Y-99395038D01*
X177799975Y-99395038D01*
X177891899Y-99441000D01*
X177937861Y-99486961D01*
X177983823Y-99578885D01*
X177983823Y-99716771D01*
X177937861Y-99808695D01*
X177891899Y-99854657D01*
X177799975Y-99900619D01*
X177432280Y-99900619D01*
X178397480Y-99854657D02*
X178719213Y-99854657D01*
X178857099Y-100360238D02*
X178397480Y-100360238D01*
X178397480Y-99395038D01*
X178857099Y-99395038D01*
X179224794Y-100314276D02*
X179362680Y-100360238D01*
X179592490Y-100360238D01*
X179684413Y-100314276D01*
X179730375Y-100268314D01*
X179776337Y-100176390D01*
X179776337Y-100084466D01*
X179730375Y-99992542D01*
X179684413Y-99946580D01*
X179592490Y-99900619D01*
X179408642Y-99854657D01*
X179316718Y-99808695D01*
X179270756Y-99762733D01*
X179224794Y-99670809D01*
X179224794Y-99578885D01*
X179270756Y-99486961D01*
X179316718Y-99441000D01*
X179408642Y-99395038D01*
X179638452Y-99395038D01*
X179776337Y-99441000D01*
X180189994Y-99854657D02*
X180511728Y-99854657D01*
X180649613Y-100360238D02*
X180189994Y-100360238D01*
X180189994Y-99395038D01*
X180649613Y-99395038D01*
X180925385Y-99395038D02*
X181476928Y-99395038D01*
X181201156Y-100360238D02*
X181201156Y-99395038D01*
X177891899Y-102900238D02*
X177891899Y-101935038D01*
X178259594Y-101935038D01*
X178351518Y-101981000D01*
X178397480Y-102026961D01*
X178443442Y-102118885D01*
X178443442Y-102256771D01*
X178397480Y-102348695D01*
X178351518Y-102394657D01*
X178259594Y-102440619D01*
X177891899Y-102440619D01*
X179408642Y-102900238D02*
X179086909Y-102440619D01*
X178857099Y-102900238D02*
X178857099Y-101935038D01*
X179224794Y-101935038D01*
X179316718Y-101981000D01*
X179362680Y-102026961D01*
X179408642Y-102118885D01*
X179408642Y-102256771D01*
X179362680Y-102348695D01*
X179316718Y-102394657D01*
X179224794Y-102440619D01*
X178857099Y-102440619D01*
X180006147Y-101935038D02*
X180189994Y-101935038D01*
X180281918Y-101981000D01*
X180373842Y-102072923D01*
X180419804Y-102256771D01*
X180419804Y-102578504D01*
X180373842Y-102762352D01*
X180281918Y-102854276D01*
X180189994Y-102900238D01*
X180006147Y-102900238D01*
X179914223Y-102854276D01*
X179822299Y-102762352D01*
X179776337Y-102578504D01*
X179776337Y-102256771D01*
X179822299Y-102072923D01*
X179914223Y-101981000D01*
X180006147Y-101935038D01*
X181339042Y-101981000D02*
X181247118Y-101935038D01*
X181109232Y-101935038D01*
X180971347Y-101981000D01*
X180879423Y-102072923D01*
X180833461Y-102164847D01*
X180787499Y-102348695D01*
X180787499Y-102486580D01*
X180833461Y-102670428D01*
X180879423Y-102762352D01*
X180971347Y-102854276D01*
X181109232Y-102900238D01*
X181201156Y-102900238D01*
X181339042Y-102854276D01*
X181385004Y-102808314D01*
X181385004Y-102486580D01*
X181201156Y-102486580D01*
X179362680Y-104521000D02*
X179270756Y-104475038D01*
X179132871Y-104475038D01*
X178994985Y-104521000D01*
X178903061Y-104612923D01*
X178857099Y-104704847D01*
X178811137Y-104888695D01*
X178811137Y-105026580D01*
X178857099Y-105210428D01*
X178903061Y-105302352D01*
X178994985Y-105394276D01*
X179132871Y-105440238D01*
X179224794Y-105440238D01*
X179362680Y-105394276D01*
X179408642Y-105348314D01*
X179408642Y-105026580D01*
X179224794Y-105026580D01*
X179822299Y-105440238D02*
X179822299Y-104475038D01*
X180373842Y-105440238D01*
X180373842Y-104475038D01*
X180833461Y-105440238D02*
X180833461Y-104475038D01*
X181063271Y-104475038D01*
X181201156Y-104521000D01*
X181293080Y-104612923D01*
X181339042Y-104704847D01*
X181385004Y-104888695D01*
X181385004Y-105026580D01*
X181339042Y-105210428D01*
X181293080Y-105302352D01*
X181201156Y-105394276D01*
X181063271Y-105440238D01*
X180833461Y-105440238D01*
X178581328Y-107015038D02*
X179178832Y-107015038D01*
X178857099Y-107382733D01*
X178994985Y-107382733D01*
X179086909Y-107428695D01*
X179132871Y-107474657D01*
X179178832Y-107566580D01*
X179178832Y-107796390D01*
X179132871Y-107888314D01*
X179086909Y-107934276D01*
X178994985Y-107980238D01*
X178719213Y-107980238D01*
X178627290Y-107934276D01*
X178581328Y-107888314D01*
X179592490Y-107888314D02*
X179638452Y-107934276D01*
X179592490Y-107980238D01*
X179546528Y-107934276D01*
X179592490Y-107888314D01*
X179592490Y-107980238D01*
X179960185Y-107015038D02*
X180557690Y-107015038D01*
X180235956Y-107382733D01*
X180373842Y-107382733D01*
X180465766Y-107428695D01*
X180511728Y-107474657D01*
X180557690Y-107566580D01*
X180557690Y-107796390D01*
X180511728Y-107888314D01*
X180465766Y-107934276D01*
X180373842Y-107980238D01*
X180098071Y-107980238D01*
X180006147Y-107934276D01*
X179960185Y-107888314D01*
X180833461Y-107015038D02*
X181155194Y-107980238D01*
X181476928Y-107015038D01*
X178305556Y-109555038D02*
X178627290Y-110520238D01*
X178949023Y-109555038D01*
X179592490Y-110014657D02*
X179730375Y-110060619D01*
X179776337Y-110106580D01*
X179822299Y-110198504D01*
X179822299Y-110336390D01*
X179776337Y-110428314D01*
X179730375Y-110474276D01*
X179638452Y-110520238D01*
X179270756Y-110520238D01*
X179270756Y-109555038D01*
X179592490Y-109555038D01*
X179684413Y-109601000D01*
X179730375Y-109646961D01*
X179776337Y-109738885D01*
X179776337Y-109830809D01*
X179730375Y-109922733D01*
X179684413Y-109968695D01*
X179592490Y-110014657D01*
X179270756Y-110014657D01*
X180189994Y-110244466D02*
X180649613Y-110244466D01*
X180098071Y-110520238D02*
X180419804Y-109555038D01*
X180741537Y-110520238D01*
X180925385Y-109555038D02*
X181476928Y-109555038D01*
X181201156Y-110520238D02*
X181201156Y-109555038D01*
D11*
X133979557Y-97263373D02*
X134347252Y-97263373D01*
X133906018Y-97483990D02*
X134163404Y-96711830D01*
X134420791Y-97483990D01*
X134714947Y-97483990D02*
X134862025Y-97483990D01*
X134935564Y-97447220D01*
X134972334Y-97410451D01*
X135045873Y-97300142D01*
X135082642Y-97153064D01*
X135082642Y-96858908D01*
X135045873Y-96785369D01*
X135009103Y-96748600D01*
X134935564Y-96711830D01*
X134788486Y-96711830D01*
X134714947Y-96748600D01*
X134678178Y-96785369D01*
X134641408Y-96858908D01*
X134641408Y-97042756D01*
X134678178Y-97116295D01*
X134714947Y-97153064D01*
X134788486Y-97189834D01*
X134935564Y-97189834D01*
X135009103Y-97153064D01*
X135045873Y-97116295D01*
X135082642Y-97042756D01*
X136519557Y-97263373D02*
X136887252Y-97263373D01*
X136446018Y-97483990D02*
X136703404Y-96711830D01*
X136960791Y-97483990D01*
X137328486Y-97042756D02*
X137254947Y-97005986D01*
X137218178Y-96969217D01*
X137181408Y-96895678D01*
X137181408Y-96858908D01*
X137218178Y-96785369D01*
X137254947Y-96748600D01*
X137328486Y-96711830D01*
X137475564Y-96711830D01*
X137549103Y-96748600D01*
X137585873Y-96785369D01*
X137622642Y-96858908D01*
X137622642Y-96895678D01*
X137585873Y-96969217D01*
X137549103Y-97005986D01*
X137475564Y-97042756D01*
X137328486Y-97042756D01*
X137254947Y-97079525D01*
X137218178Y-97116295D01*
X137181408Y-97189834D01*
X137181408Y-97336912D01*
X137218178Y-97410451D01*
X137254947Y-97447220D01*
X137328486Y-97483990D01*
X137475564Y-97483990D01*
X137549103Y-97447220D01*
X137585873Y-97410451D01*
X137622642Y-97336912D01*
X137622642Y-97189834D01*
X137585873Y-97116295D01*
X137549103Y-97079525D01*
X137475564Y-97042756D01*
X139059557Y-97263373D02*
X139427252Y-97263373D01*
X138986018Y-97483990D02*
X139243404Y-96711830D01*
X139500791Y-97483990D01*
X139684639Y-96711830D02*
X140199412Y-96711830D01*
X139868486Y-97483990D01*
X141599557Y-97263373D02*
X141967252Y-97263373D01*
X141526018Y-97483990D02*
X141783404Y-96711830D01*
X142040791Y-97483990D01*
X142629103Y-96711830D02*
X142482025Y-96711830D01*
X142408486Y-96748600D01*
X142371717Y-96785369D01*
X142298178Y-96895678D01*
X142261408Y-97042756D01*
X142261408Y-97336912D01*
X142298178Y-97410451D01*
X142334947Y-97447220D01*
X142408486Y-97483990D01*
X142555564Y-97483990D01*
X142629103Y-97447220D01*
X142665873Y-97410451D01*
X142702642Y-97336912D01*
X142702642Y-97153064D01*
X142665873Y-97079525D01*
X142629103Y-97042756D01*
X142555564Y-97005986D01*
X142408486Y-97005986D01*
X142334947Y-97042756D01*
X142298178Y-97079525D01*
X142261408Y-97153064D01*
X144139557Y-97263373D02*
X144507252Y-97263373D01*
X144066018Y-97483990D02*
X144323404Y-96711830D01*
X144580791Y-97483990D01*
X145205873Y-96711830D02*
X144838178Y-96711830D01*
X144801408Y-97079525D01*
X144838178Y-97042756D01*
X144911717Y-97005986D01*
X145095564Y-97005986D01*
X145169103Y-97042756D01*
X145205873Y-97079525D01*
X145242642Y-97153064D01*
X145242642Y-97336912D01*
X145205873Y-97410451D01*
X145169103Y-97447220D01*
X145095564Y-97483990D01*
X144911717Y-97483990D01*
X144838178Y-97447220D01*
X144801408Y-97410451D01*
X146679557Y-97263373D02*
X147047252Y-97263373D01*
X146606018Y-97483990D02*
X146863404Y-96711830D01*
X147120791Y-97483990D01*
X147709103Y-96969217D02*
X147709103Y-97483990D01*
X147525256Y-96675060D02*
X147341408Y-97226603D01*
X147819412Y-97226603D01*
X149219557Y-97263373D02*
X149587252Y-97263373D01*
X149146018Y-97483990D02*
X149403404Y-96711830D01*
X149660791Y-97483990D01*
X149844639Y-96711830D02*
X150322642Y-96711830D01*
X150065256Y-97005986D01*
X150175564Y-97005986D01*
X150249103Y-97042756D01*
X150285873Y-97079525D01*
X150322642Y-97153064D01*
X150322642Y-97336912D01*
X150285873Y-97410451D01*
X150249103Y-97447220D01*
X150175564Y-97483990D01*
X149954947Y-97483990D01*
X149881408Y-97447220D01*
X149844639Y-97410451D01*
X151759557Y-97263373D02*
X152127252Y-97263373D01*
X151686018Y-97483990D02*
X151943404Y-96711830D01*
X152200791Y-97483990D01*
X152421408Y-96785369D02*
X152458178Y-96748600D01*
X152531717Y-96711830D01*
X152715564Y-96711830D01*
X152789103Y-96748600D01*
X152825873Y-96785369D01*
X152862642Y-96858908D01*
X152862642Y-96932447D01*
X152825873Y-97042756D01*
X152384639Y-97483990D01*
X152862642Y-97483990D01*
X154299557Y-97263373D02*
X154667252Y-97263373D01*
X154226018Y-97483990D02*
X154483404Y-96711830D01*
X154740791Y-97483990D01*
X155402642Y-97483990D02*
X154961408Y-97483990D01*
X155182025Y-97483990D02*
X155182025Y-96711830D01*
X155108486Y-96822139D01*
X155034947Y-96895678D01*
X154961408Y-96932447D01*
X156839557Y-97263373D02*
X157207252Y-97263373D01*
X156766018Y-97483990D02*
X157023404Y-96711830D01*
X157280791Y-97483990D01*
X157685256Y-96711830D02*
X157758795Y-96711830D01*
X157832334Y-96748600D01*
X157869103Y-96785369D01*
X157905873Y-96858908D01*
X157942642Y-97005986D01*
X157942642Y-97189834D01*
X157905873Y-97336912D01*
X157869103Y-97410451D01*
X157832334Y-97447220D01*
X157758795Y-97483990D01*
X157685256Y-97483990D01*
X157611717Y-97447220D01*
X157574947Y-97410451D01*
X157538178Y-97336912D01*
X157501408Y-97189834D01*
X157501408Y-97005986D01*
X157538178Y-96858908D01*
X157574947Y-96785369D01*
X157611717Y-96748600D01*
X157685256Y-96711830D01*
D12*
X149009100Y-109194600D02*
X142913100Y-109194600D01*
X149009100Y-113512600D02*
X142913100Y-113512600D01*
X149009100Y-113512600D02*
G75*
G03X149009100Y-109194600I0J2159000D01*
G01*
X142913100Y-109194600D02*
G75*
G03X142913100Y-113512600I0J-2159000D01*
G01*
D13*
X142024100Y-106400600D02*
X142024100Y-104876600D01*
X148247100Y-104622600D02*
X142278100Y-104622600D01*
X148247100Y-106654600D02*
X142278100Y-106654600D01*
X148247100Y-104622600D02*
X148247100Y-106654600D01*
X142278100Y-104622600D02*
G75*
G03X142024100Y-104876600I0J-254000D01*
G01*
X142024100Y-106400600D02*
G75*
G03X142278100Y-106654600I254000J0D01*
G01*
D14*
X158590252Y-100055479D02*
X153642131Y-105003600D01*
X153642131Y-105003600D02*
X159296100Y-110657569D01*
X159296100Y-110657569D02*
X164950069Y-105003600D01*
X164950069Y-105003600D02*
X160001948Y-100055479D01*
X160001948Y-100055479D02*
X158590252Y-100055479D01*
D15*
X159655310Y-101328879D02*
G75*
G03X159655310Y-101328879I-359210J0D01*
G01*
D13*
X130324860Y-103337360D02*
X136324340Y-103337360D01*
X136324340Y-103337360D02*
X136324340Y-109336840D01*
X136324340Y-109336840D02*
X130926840Y-109336840D01*
X130324860Y-108734860D02*
X130324860Y-103337360D01*
X130324860Y-108734860D02*
X130926840Y-109336840D01*
D16*
X131569883Y-108336080D02*
G75*
G03X131569883Y-108336080I-244263J0D01*
G01*
D17*
X174536100Y-106273600D02*
X174536100Y-103733600D01*
X173901100Y-103098600D02*
X171361100Y-103098600D01*
X170726100Y-103733600D02*
X170726100Y-106273600D01*
X171361100Y-106908600D02*
X173901100Y-106908600D01*
D15*
X172990310Y-105003600D02*
G75*
G03X172990310Y-105003600I-359210J0D01*
G01*
D17*
X174536100Y-103733600D02*
G75*
G03X173901100Y-103098600I-635000J0D01*
G01*
X171361100Y-103098600D02*
G75*
G03X170726100Y-103733600I0J-635000D01*
G01*
X170726100Y-106273600D02*
G75*
G03X171361100Y-106908600I635000J0D01*
G01*
X173901100Y-106908600D02*
G75*
G03X174536100Y-106273600I0J635000D01*
G01*
D18*
X119223800Y-99564400D02*
X119376200Y-99564400D01*
X119376200Y-99564400D02*
X119376200Y-97735600D01*
X119223800Y-97735600D02*
X119376200Y-97735600D01*
X119223800Y-99564400D02*
X119223800Y-97735600D01*
D12*
X120697000Y-99666000D02*
X117903000Y-99666000D01*
X120951000Y-99412000D02*
X120951000Y-97888000D01*
X117649000Y-99412000D02*
X117649000Y-97888000D01*
X117903000Y-97634000D02*
X120697000Y-97634000D01*
X120951000Y-97888000D02*
G75*
G03X120697000Y-97634000I-254000J0D01*
G01*
X117903000Y-97634000D02*
G75*
G03X117649000Y-97888000I0J-254000D01*
G01*
X117649000Y-99412000D02*
G75*
G03X117903000Y-99666000I254000J0D01*
G01*
X120697000Y-99666000D02*
G75*
G03X120951000Y-99412000I0J254000D01*
G01*
D14*
X117952780Y-101828600D02*
X119151660Y-101828600D01*
X121424960Y-102339140D02*
X121424960Y-103540560D01*
X121424960Y-107736640D02*
X121424960Y-108737400D01*
X119250720Y-109448600D02*
X117952780Y-109448600D01*
D19*
X128475000Y-100900000D02*
X128475000Y-100200000D01*
X129675000Y-100200000D02*
X129675000Y-100900000D01*
X153225000Y-111900000D02*
X153925000Y-111900000D01*
X153925000Y-113100000D02*
X153225000Y-113100000D01*
X148475000Y-102125000D02*
X148475000Y-102825000D01*
X147275000Y-102825000D02*
X147275000Y-102125000D01*
X149050000Y-102825000D02*
X149050000Y-102125000D01*
X150250000Y-102125000D02*
X150250000Y-102825000D01*
X167825000Y-110125000D02*
X168525000Y-110125000D01*
X168525000Y-111325000D02*
X167825000Y-111325000D01*
X147450000Y-108525000D02*
X146750000Y-108525000D01*
X146750000Y-107325000D02*
X147450000Y-107325000D01*
X143575000Y-107325000D02*
X144275000Y-107325000D01*
X144275000Y-108525000D02*
X143575000Y-108525000D01*
X133425000Y-112025000D02*
X134125000Y-112025000D01*
X134125000Y-113225000D02*
X133425000Y-113225000D01*
X125275000Y-111050000D02*
X126275000Y-111050000D01*
X126275000Y-109350000D02*
X125275000Y-109350000D01*
X125725000Y-105950000D02*
X125725000Y-104950000D01*
X124025000Y-104950000D02*
X124025000Y-105950000D01*
X167975000Y-105050000D02*
X168675000Y-105050000D01*
X168675000Y-106250000D02*
X167975000Y-106250000D01*
X144900000Y-102325000D02*
X144900000Y-101325000D01*
X143200000Y-101325000D02*
X143200000Y-102325000D01*
X174425000Y-98725000D02*
X174425000Y-97325000D01*
X174425000Y-97325000D02*
X171625000Y-97325000D01*
X174425000Y-98725000D02*
X171625000Y-98725000D01*
X115355000Y-95525000D02*
X115355000Y-96725000D01*
X113595000Y-96725000D02*
X113595000Y-95525000D01*
X141320000Y-102950000D02*
X141320000Y-101950000D01*
X142680000Y-101950000D02*
X142680000Y-102950000D01*
X146780000Y-101975000D02*
X146780000Y-102975000D01*
X145420000Y-102975000D02*
X145420000Y-101975000D01*
X140926100Y-101963600D02*
X140926100Y-102963600D01*
X139566100Y-102963600D02*
X139566100Y-101963600D01*
X126275000Y-100605000D02*
X125275000Y-100605000D01*
X125275000Y-99245000D02*
X126275000Y-99245000D01*
X126275000Y-102505000D02*
X125275000Y-102505000D01*
X125275000Y-101145000D02*
X126275000Y-101145000D01*
X175825000Y-97345000D02*
X176825000Y-97345000D01*
X176825000Y-98705000D02*
X175825000Y-98705000D01*
X171840000Y-109420000D02*
X171840000Y-110350000D01*
X171840000Y-112580000D02*
X171840000Y-111650000D01*
X171840000Y-112580000D02*
X174000000Y-112580000D01*
X171840000Y-109420000D02*
X173300000Y-109420000D01*
D20*
X140509500Y-113155500D02*
X140424833Y-113113166D01*
X140297833Y-113113166D01*
X140170833Y-113155500D01*
X140086166Y-113240166D01*
X140043833Y-113324833D01*
X140001500Y-113494166D01*
X140001500Y-113621166D01*
X140043833Y-113790500D01*
X140086166Y-113875166D01*
X140170833Y-113959833D01*
X140297833Y-114002166D01*
X140382500Y-114002166D01*
X140509500Y-113959833D01*
X140551833Y-113917500D01*
X140551833Y-113621166D01*
X140382500Y-113621166D01*
X141398500Y-114002166D02*
X140890500Y-114002166D01*
X141144500Y-114002166D02*
X141144500Y-113113166D01*
X141059833Y-113240166D01*
X140975166Y-113324833D01*
X140890500Y-113367166D01*
D21*
X151035714Y-105150000D02*
X150940476Y-105102380D01*
X150797619Y-105102380D01*
X150654761Y-105150000D01*
X150559523Y-105245238D01*
X150511904Y-105340476D01*
X150464285Y-105530952D01*
X150464285Y-105673809D01*
X150511904Y-105864285D01*
X150559523Y-105959523D01*
X150654761Y-106054761D01*
X150797619Y-106102380D01*
X150892857Y-106102380D01*
X151035714Y-106054761D01*
X151083333Y-106007142D01*
X151083333Y-105673809D01*
X150892857Y-105673809D01*
X151464285Y-105197619D02*
X151511904Y-105150000D01*
X151607142Y-105102380D01*
X151845238Y-105102380D01*
X151940476Y-105150000D01*
X151988095Y-105197619D01*
X152035714Y-105292857D01*
X152035714Y-105388095D01*
X151988095Y-105530952D01*
X151416666Y-106102380D01*
X152035714Y-106102380D01*
D22*
X161341888Y-103021785D02*
X161916624Y-102447049D01*
X161670308Y-103350206D02*
X161752414Y-102775470D01*
X162245045Y-102775470D02*
X161588203Y-102775470D01*
X162217676Y-103897574D02*
X161889256Y-103569153D01*
X162053466Y-103733363D02*
X162628202Y-103158627D01*
X162491360Y-103185996D01*
X162381887Y-103185996D01*
X162299781Y-103158627D01*
X138074523Y-111837380D02*
X136804523Y-111837380D01*
X138074523Y-111111666D02*
X137348809Y-111655952D01*
X136804523Y-111111666D02*
X137530238Y-111837380D01*
X136925476Y-110627857D02*
X136865000Y-110567380D01*
X136804523Y-110446428D01*
X136804523Y-110144047D01*
X136865000Y-110023095D01*
X136925476Y-109962619D01*
X137046428Y-109902142D01*
X137167380Y-109902142D01*
X137348809Y-109962619D01*
X138074523Y-110688333D01*
X138074523Y-109902142D01*
D16*
X172928990Y-108819276D02*
X172967695Y-108703161D01*
X172967695Y-108509638D01*
X172928990Y-108432228D01*
X172890285Y-108393523D01*
X172812876Y-108354819D01*
X172735466Y-108354819D01*
X172658057Y-108393523D01*
X172619352Y-108432228D01*
X172580647Y-108509638D01*
X172541942Y-108664457D01*
X172503238Y-108741866D01*
X172464533Y-108780571D01*
X172387123Y-108819276D01*
X172309714Y-108819276D01*
X172232304Y-108780571D01*
X172193600Y-108741866D01*
X172154895Y-108664457D01*
X172154895Y-108470933D01*
X172193600Y-108354819D01*
X172967695Y-107580723D02*
X172967695Y-108045180D01*
X172967695Y-107812952D02*
X172154895Y-107812952D01*
X172271009Y-107890361D01*
X172348419Y-107967771D01*
X172387123Y-108045180D01*
D23*
D13*
X115654985Y-99700390D02*
X115771100Y-99739095D01*
X115964623Y-99739095D01*
X116042033Y-99700390D01*
X116080738Y-99661685D01*
X116119442Y-99584276D01*
X116119442Y-99506866D01*
X116080738Y-99429457D01*
X116042033Y-99390752D01*
X115964623Y-99352047D01*
X115809804Y-99313342D01*
X115732395Y-99274638D01*
X115693690Y-99235933D01*
X115654985Y-99158523D01*
X115654985Y-99081114D01*
X115693690Y-99003704D01*
X115732395Y-98965000D01*
X115809804Y-98926295D01*
X116003328Y-98926295D01*
X116119442Y-98965000D01*
X116700014Y-98926295D02*
X116700014Y-99506866D01*
X116661309Y-99622980D01*
X116583900Y-99700390D01*
X116467785Y-99739095D01*
X116390376Y-99739095D01*
X117512814Y-99739095D02*
X117048357Y-99739095D01*
X117280585Y-99739095D02*
X117280585Y-98926295D01*
X117203176Y-99042409D01*
X117125766Y-99119819D01*
X117048357Y-99158523D01*
D24*
D20*
X121713166Y-103619666D02*
X122602166Y-103027000D01*
X121713166Y-103027000D02*
X122602166Y-103619666D01*
X122602166Y-102222666D02*
X122602166Y-102730666D01*
X122602166Y-102476666D02*
X121713166Y-102476666D01*
X121840166Y-102561333D01*
X121924833Y-102646000D01*
X121967166Y-102730666D01*
D16*
X116952261Y-107830861D02*
X116317261Y-107830861D01*
X116770833Y-107619195D01*
X116317261Y-107407528D01*
X116952261Y-107407528D01*
X116952261Y-107105147D02*
X116317261Y-107105147D01*
X116952261Y-106802766D02*
X116317261Y-106802766D01*
X116952261Y-106439909D01*
X116317261Y-106439909D01*
X116952261Y-106137528D02*
X116317261Y-106137528D01*
X116710357Y-105835147D02*
X116710357Y-105351338D01*
X116317261Y-105048957D02*
X116831309Y-105048957D01*
X116891785Y-105018719D01*
X116922023Y-104988480D01*
X116952261Y-104928004D01*
X116952261Y-104807052D01*
X116922023Y-104746576D01*
X116891785Y-104716338D01*
X116831309Y-104686100D01*
X116317261Y-104686100D01*
X116922023Y-104413957D02*
X116952261Y-104323242D01*
X116952261Y-104172052D01*
X116922023Y-104111576D01*
X116891785Y-104081338D01*
X116831309Y-104051100D01*
X116770833Y-104051100D01*
X116710357Y-104081338D01*
X116680119Y-104111576D01*
X116649880Y-104172052D01*
X116619642Y-104293004D01*
X116589404Y-104353480D01*
X116559166Y-104383719D01*
X116498690Y-104413957D01*
X116438214Y-104413957D01*
X116377738Y-104383719D01*
X116347500Y-104353480D01*
X116317261Y-104293004D01*
X116317261Y-104141814D01*
X116347500Y-104051100D01*
X116619642Y-103567290D02*
X116649880Y-103476576D01*
X116680119Y-103446338D01*
X116740595Y-103416100D01*
X116831309Y-103416100D01*
X116891785Y-103446338D01*
X116922023Y-103476576D01*
X116952261Y-103537052D01*
X116952261Y-103778957D01*
X116317261Y-103778957D01*
X116317261Y-103567290D01*
X116347500Y-103506814D01*
X116377738Y-103476576D01*
X116438214Y-103446338D01*
X116498690Y-103446338D01*
X116559166Y-103476576D01*
X116589404Y-103506814D01*
X116619642Y-103567290D01*
X116619642Y-103778957D01*
D23*
X128157142Y-100866666D02*
X128204761Y-100914285D01*
X128252380Y-101057142D01*
X128252380Y-101152380D01*
X128204761Y-101295238D01*
X128109523Y-101390476D01*
X128014285Y-101438095D01*
X127823809Y-101485714D01*
X127680952Y-101485714D01*
X127490476Y-101438095D01*
X127395238Y-101390476D01*
X127300000Y-101295238D01*
X127252380Y-101152380D01*
X127252380Y-101057142D01*
X127300000Y-100914285D01*
X127347619Y-100866666D01*
X128252380Y-99914285D02*
X128252380Y-100485714D01*
X128252380Y-100200000D02*
X127252380Y-100200000D01*
X127395238Y-100295238D01*
X127490476Y-100390476D01*
X127538095Y-100485714D01*
X153408333Y-111357142D02*
X153360714Y-111404761D01*
X153217857Y-111452380D01*
X153122619Y-111452380D01*
X152979761Y-111404761D01*
X152884523Y-111309523D01*
X152836904Y-111214285D01*
X152789285Y-111023809D01*
X152789285Y-110880952D01*
X152836904Y-110690476D01*
X152884523Y-110595238D01*
X152979761Y-110500000D01*
X153122619Y-110452380D01*
X153217857Y-110452380D01*
X153360714Y-110500000D01*
X153408333Y-110547619D01*
X154265476Y-110785714D02*
X154265476Y-111452380D01*
X154027380Y-110404761D02*
X153789285Y-111119047D01*
X154408333Y-111119047D01*
X148257142Y-100266666D02*
X148304761Y-100314285D01*
X148352380Y-100457142D01*
X148352380Y-100552380D01*
X148304761Y-100695238D01*
X148209523Y-100790476D01*
X148114285Y-100838095D01*
X147923809Y-100885714D01*
X147780952Y-100885714D01*
X147590476Y-100838095D01*
X147495238Y-100790476D01*
X147400000Y-100695238D01*
X147352380Y-100552380D01*
X147352380Y-100457142D01*
X147400000Y-100314285D01*
X147447619Y-100266666D01*
X147352380Y-99933333D02*
X147352380Y-99266666D01*
X148352380Y-99695238D01*
X150057142Y-100266666D02*
X150104761Y-100314285D01*
X150152380Y-100457142D01*
X150152380Y-100552380D01*
X150104761Y-100695238D01*
X150009523Y-100790476D01*
X149914285Y-100838095D01*
X149723809Y-100885714D01*
X149580952Y-100885714D01*
X149390476Y-100838095D01*
X149295238Y-100790476D01*
X149200000Y-100695238D01*
X149152380Y-100552380D01*
X149152380Y-100457142D01*
X149200000Y-100314285D01*
X149247619Y-100266666D01*
X149580952Y-99695238D02*
X149533333Y-99790476D01*
X149485714Y-99838095D01*
X149390476Y-99885714D01*
X149342857Y-99885714D01*
X149247619Y-99838095D01*
X149200000Y-99790476D01*
X149152380Y-99695238D01*
X149152380Y-99504761D01*
X149200000Y-99409523D01*
X149247619Y-99361904D01*
X149342857Y-99314285D01*
X149390476Y-99314285D01*
X149485714Y-99361904D01*
X149533333Y-99409523D01*
X149580952Y-99504761D01*
X149580952Y-99695238D01*
X149628571Y-99790476D01*
X149676190Y-99838095D01*
X149771428Y-99885714D01*
X149961904Y-99885714D01*
X150057142Y-99838095D01*
X150104761Y-99790476D01*
X150152380Y-99695238D01*
X150152380Y-99504761D01*
X150104761Y-99409523D01*
X150057142Y-99361904D01*
X149961904Y-99314285D01*
X149771428Y-99314285D01*
X149676190Y-99361904D01*
X149628571Y-99409523D01*
X149580952Y-99504761D01*
X168008333Y-109582142D02*
X167960714Y-109629761D01*
X167817857Y-109677380D01*
X167722619Y-109677380D01*
X167579761Y-109629761D01*
X167484523Y-109534523D01*
X167436904Y-109439285D01*
X167389285Y-109248809D01*
X167389285Y-109105952D01*
X167436904Y-108915476D01*
X167484523Y-108820238D01*
X167579761Y-108725000D01*
X167722619Y-108677380D01*
X167817857Y-108677380D01*
X167960714Y-108725000D01*
X168008333Y-108772619D01*
X168484523Y-109677380D02*
X168675000Y-109677380D01*
X168770238Y-109629761D01*
X168817857Y-109582142D01*
X168913095Y-109439285D01*
X168960714Y-109248809D01*
X168960714Y-108867857D01*
X168913095Y-108772619D01*
X168865476Y-108725000D01*
X168770238Y-108677380D01*
X168579761Y-108677380D01*
X168484523Y-108725000D01*
X168436904Y-108772619D01*
X168389285Y-108867857D01*
X168389285Y-109105952D01*
X168436904Y-109201190D01*
X168484523Y-109248809D01*
X168579761Y-109296428D01*
X168770238Y-109296428D01*
X168865476Y-109248809D01*
X168913095Y-109201190D01*
X168960714Y-109105952D01*
X149457142Y-108257142D02*
X149409523Y-108304761D01*
X149266666Y-108352380D01*
X149171428Y-108352380D01*
X149028571Y-108304761D01*
X148933333Y-108209523D01*
X148885714Y-108114285D01*
X148838095Y-107923809D01*
X148838095Y-107780952D01*
X148885714Y-107590476D01*
X148933333Y-107495238D01*
X149028571Y-107400000D01*
X149171428Y-107352380D01*
X149266666Y-107352380D01*
X149409523Y-107400000D01*
X149457142Y-107447619D01*
X150409523Y-108352380D02*
X149838095Y-108352380D01*
X150123809Y-108352380D02*
X150123809Y-107352380D01*
X150028571Y-107495238D01*
X149933333Y-107590476D01*
X149838095Y-107638095D01*
X151028571Y-107352380D02*
X151123809Y-107352380D01*
X151219047Y-107400000D01*
X151266666Y-107447619D01*
X151314285Y-107542857D01*
X151361904Y-107733333D01*
X151361904Y-107971428D01*
X151314285Y-108161904D01*
X151266666Y-108257142D01*
X151219047Y-108304761D01*
X151123809Y-108352380D01*
X151028571Y-108352380D01*
X150933333Y-108304761D01*
X150885714Y-108257142D01*
X150838095Y-108161904D01*
X150790476Y-107971428D01*
X150790476Y-107733333D01*
X150838095Y-107542857D01*
X150885714Y-107447619D01*
X150933333Y-107400000D01*
X151028571Y-107352380D01*
X140357142Y-108257142D02*
X140309523Y-108304761D01*
X140166666Y-108352380D01*
X140071428Y-108352380D01*
X139928571Y-108304761D01*
X139833333Y-108209523D01*
X139785714Y-108114285D01*
X139738095Y-107923809D01*
X139738095Y-107780952D01*
X139785714Y-107590476D01*
X139833333Y-107495238D01*
X139928571Y-107400000D01*
X140071428Y-107352380D01*
X140166666Y-107352380D01*
X140309523Y-107400000D01*
X140357142Y-107447619D01*
X141309523Y-108352380D02*
X140738095Y-108352380D01*
X141023809Y-108352380D02*
X141023809Y-107352380D01*
X140928571Y-107495238D01*
X140833333Y-107590476D01*
X140738095Y-107638095D01*
X142261904Y-108352380D02*
X141690476Y-108352380D01*
X141976190Y-108352380D02*
X141976190Y-107352380D01*
X141880952Y-107495238D01*
X141785714Y-107590476D01*
X141690476Y-107638095D01*
X130357142Y-112957142D02*
X130309523Y-113004761D01*
X130166666Y-113052380D01*
X130071428Y-113052380D01*
X129928571Y-113004761D01*
X129833333Y-112909523D01*
X129785714Y-112814285D01*
X129738095Y-112623809D01*
X129738095Y-112480952D01*
X129785714Y-112290476D01*
X129833333Y-112195238D01*
X129928571Y-112100000D01*
X130071428Y-112052380D01*
X130166666Y-112052380D01*
X130309523Y-112100000D01*
X130357142Y-112147619D01*
X131309523Y-113052380D02*
X130738095Y-113052380D01*
X131023809Y-113052380D02*
X131023809Y-112052380D01*
X130928571Y-112195238D01*
X130833333Y-112290476D01*
X130738095Y-112338095D01*
X131690476Y-112147619D02*
X131738095Y-112100000D01*
X131833333Y-112052380D01*
X132071428Y-112052380D01*
X132166666Y-112100000D01*
X132214285Y-112147619D01*
X132261904Y-112242857D01*
X132261904Y-112338095D01*
X132214285Y-112480952D01*
X131642857Y-113052380D01*
X132261904Y-113052380D01*
X125633333Y-112157142D02*
X125585714Y-112204761D01*
X125442857Y-112252380D01*
X125347619Y-112252380D01*
X125204761Y-112204761D01*
X125109523Y-112109523D01*
X125061904Y-112014285D01*
X125014285Y-111823809D01*
X125014285Y-111680952D01*
X125061904Y-111490476D01*
X125109523Y-111395238D01*
X125204761Y-111300000D01*
X125347619Y-111252380D01*
X125442857Y-111252380D01*
X125585714Y-111300000D01*
X125633333Y-111347619D01*
X126014285Y-111347619D02*
X126061904Y-111300000D01*
X126157142Y-111252380D01*
X126395238Y-111252380D01*
X126490476Y-111300000D01*
X126538095Y-111347619D01*
X126585714Y-111442857D01*
X126585714Y-111538095D01*
X126538095Y-111680952D01*
X125966666Y-112252380D01*
X126585714Y-112252380D01*
X126857142Y-105666666D02*
X126904761Y-105714285D01*
X126952380Y-105857142D01*
X126952380Y-105952380D01*
X126904761Y-106095238D01*
X126809523Y-106190476D01*
X126714285Y-106238095D01*
X126523809Y-106285714D01*
X126380952Y-106285714D01*
X126190476Y-106238095D01*
X126095238Y-106190476D01*
X126000000Y-106095238D01*
X125952380Y-105952380D01*
X125952380Y-105857142D01*
X126000000Y-105714285D01*
X126047619Y-105666666D01*
X125952380Y-105333333D02*
X125952380Y-104714285D01*
X126333333Y-105047619D01*
X126333333Y-104904761D01*
X126380952Y-104809523D01*
X126428571Y-104761904D01*
X126523809Y-104714285D01*
X126761904Y-104714285D01*
X126857142Y-104761904D01*
X126904761Y-104809523D01*
X126952380Y-104904761D01*
X126952380Y-105190476D01*
X126904761Y-105285714D01*
X126857142Y-105333333D01*
X168158333Y-104507142D02*
X168110714Y-104554761D01*
X167967857Y-104602380D01*
X167872619Y-104602380D01*
X167729761Y-104554761D01*
X167634523Y-104459523D01*
X167586904Y-104364285D01*
X167539285Y-104173809D01*
X167539285Y-104030952D01*
X167586904Y-103840476D01*
X167634523Y-103745238D01*
X167729761Y-103650000D01*
X167872619Y-103602380D01*
X167967857Y-103602380D01*
X168110714Y-103650000D01*
X168158333Y-103697619D01*
X169063095Y-103602380D02*
X168586904Y-103602380D01*
X168539285Y-104078571D01*
X168586904Y-104030952D01*
X168682142Y-103983333D01*
X168920238Y-103983333D01*
X169015476Y-104030952D01*
X169063095Y-104078571D01*
X169110714Y-104173809D01*
X169110714Y-104411904D01*
X169063095Y-104507142D01*
X169015476Y-104554761D01*
X168920238Y-104602380D01*
X168682142Y-104602380D01*
X168586904Y-104554761D01*
X168539285Y-104507142D01*
X144457142Y-99266666D02*
X144504761Y-99314285D01*
X144552380Y-99457142D01*
X144552380Y-99552380D01*
X144504761Y-99695238D01*
X144409523Y-99790476D01*
X144314285Y-99838095D01*
X144123809Y-99885714D01*
X143980952Y-99885714D01*
X143790476Y-99838095D01*
X143695238Y-99790476D01*
X143600000Y-99695238D01*
X143552380Y-99552380D01*
X143552380Y-99457142D01*
X143600000Y-99314285D01*
X143647619Y-99266666D01*
X143552380Y-98409523D02*
X143552380Y-98600000D01*
X143600000Y-98695238D01*
X143647619Y-98742857D01*
X143790476Y-98838095D01*
X143980952Y-98885714D01*
X144361904Y-98885714D01*
X144457142Y-98838095D01*
X144504761Y-98790476D01*
X144552380Y-98695238D01*
X144552380Y-98504761D01*
X144504761Y-98409523D01*
X144457142Y-98361904D01*
X144361904Y-98314285D01*
X144123809Y-98314285D01*
X144028571Y-98361904D01*
X143980952Y-98409523D01*
X143933333Y-98504761D01*
X143933333Y-98695238D01*
X143980952Y-98790476D01*
X144028571Y-98838095D01*
X144123809Y-98885714D01*
X171861904Y-100152380D02*
X171861904Y-99152380D01*
X172242857Y-99152380D01*
X172338095Y-99200000D01*
X172385714Y-99247619D01*
X172433333Y-99342857D01*
X172433333Y-99485714D01*
X172385714Y-99580952D01*
X172338095Y-99628571D01*
X172242857Y-99676190D01*
X171861904Y-99676190D01*
X173385714Y-100152380D02*
X172814285Y-100152380D01*
X173100000Y-100152380D02*
X173100000Y-99152380D01*
X173004761Y-99295238D01*
X172909523Y-99390476D01*
X172814285Y-99438095D01*
X114333333Y-98752380D02*
X114000000Y-98276190D01*
X113761904Y-98752380D02*
X113761904Y-97752380D01*
X114142857Y-97752380D01*
X114238095Y-97800000D01*
X114285714Y-97847619D01*
X114333333Y-97942857D01*
X114333333Y-98085714D01*
X114285714Y-98180952D01*
X114238095Y-98228571D01*
X114142857Y-98276190D01*
X113761904Y-98276190D01*
X115285714Y-98752380D02*
X114714285Y-98752380D01*
X115000000Y-98752380D02*
X115000000Y-97752380D01*
X114904761Y-97895238D01*
X114809523Y-97990476D01*
X114714285Y-98038095D01*
X142452380Y-100366666D02*
X141976190Y-100700000D01*
X142452380Y-100938095D02*
X141452380Y-100938095D01*
X141452380Y-100557142D01*
X141500000Y-100461904D01*
X141547619Y-100414285D01*
X141642857Y-100366666D01*
X141785714Y-100366666D01*
X141880952Y-100414285D01*
X141928571Y-100461904D01*
X141976190Y-100557142D01*
X141976190Y-100938095D01*
X141547619Y-99985714D02*
X141500000Y-99938095D01*
X141452380Y-99842857D01*
X141452380Y-99604761D01*
X141500000Y-99509523D01*
X141547619Y-99461904D01*
X141642857Y-99414285D01*
X141738095Y-99414285D01*
X141880952Y-99461904D01*
X142452380Y-100033333D01*
X142452380Y-99414285D01*
X146552380Y-100466666D02*
X146076190Y-100800000D01*
X146552380Y-101038095D02*
X145552380Y-101038095D01*
X145552380Y-100657142D01*
X145600000Y-100561904D01*
X145647619Y-100514285D01*
X145742857Y-100466666D01*
X145885714Y-100466666D01*
X145980952Y-100514285D01*
X146028571Y-100561904D01*
X146076190Y-100657142D01*
X146076190Y-101038095D01*
X145552380Y-100133333D02*
X145552380Y-99514285D01*
X145933333Y-99847619D01*
X145933333Y-99704761D01*
X145980952Y-99609523D01*
X146028571Y-99561904D01*
X146123809Y-99514285D01*
X146361904Y-99514285D01*
X146457142Y-99561904D01*
X146504761Y-99609523D01*
X146552380Y-99704761D01*
X146552380Y-99990476D01*
X146504761Y-100085714D01*
X146457142Y-100133333D01*
X139248480Y-102630266D02*
X138772290Y-102963600D01*
X139248480Y-103201695D02*
X138248480Y-103201695D01*
X138248480Y-102820742D01*
X138296100Y-102725504D01*
X138343719Y-102677885D01*
X138438957Y-102630266D01*
X138581814Y-102630266D01*
X138677052Y-102677885D01*
X138724671Y-102725504D01*
X138772290Y-102820742D01*
X138772290Y-103201695D01*
X138581814Y-101773123D02*
X139248480Y-101773123D01*
X138200861Y-102011219D02*
X138915147Y-102249314D01*
X138915147Y-101630266D01*
X123483333Y-100377380D02*
X123150000Y-99901190D01*
X122911904Y-100377380D02*
X122911904Y-99377380D01*
X123292857Y-99377380D01*
X123388095Y-99425000D01*
X123435714Y-99472619D01*
X123483333Y-99567857D01*
X123483333Y-99710714D01*
X123435714Y-99805952D01*
X123388095Y-99853571D01*
X123292857Y-99901190D01*
X122911904Y-99901190D01*
X124388095Y-99377380D02*
X123911904Y-99377380D01*
X123864285Y-99853571D01*
X123911904Y-99805952D01*
X124007142Y-99758333D01*
X124245238Y-99758333D01*
X124340476Y-99805952D01*
X124388095Y-99853571D01*
X124435714Y-99948809D01*
X124435714Y-100186904D01*
X124388095Y-100282142D01*
X124340476Y-100329761D01*
X124245238Y-100377380D01*
X124007142Y-100377380D01*
X123911904Y-100329761D01*
X123864285Y-100282142D01*
X123558333Y-102302380D02*
X123225000Y-101826190D01*
X122986904Y-102302380D02*
X122986904Y-101302380D01*
X123367857Y-101302380D01*
X123463095Y-101350000D01*
X123510714Y-101397619D01*
X123558333Y-101492857D01*
X123558333Y-101635714D01*
X123510714Y-101730952D01*
X123463095Y-101778571D01*
X123367857Y-101826190D01*
X122986904Y-101826190D01*
X124415476Y-101302380D02*
X124225000Y-101302380D01*
X124129761Y-101350000D01*
X124082142Y-101397619D01*
X123986904Y-101540476D01*
X123939285Y-101730952D01*
X123939285Y-102111904D01*
X123986904Y-102207142D01*
X124034523Y-102254761D01*
X124129761Y-102302380D01*
X124320238Y-102302380D01*
X124415476Y-102254761D01*
X124463095Y-102207142D01*
X124510714Y-102111904D01*
X124510714Y-101873809D01*
X124463095Y-101778571D01*
X124415476Y-101730952D01*
X124320238Y-101683333D01*
X124129761Y-101683333D01*
X124034523Y-101730952D01*
X123986904Y-101778571D01*
X123939285Y-101873809D01*
X176158333Y-99927380D02*
X175825000Y-99451190D01*
X175586904Y-99927380D02*
X175586904Y-98927380D01*
X175967857Y-98927380D01*
X176063095Y-98975000D01*
X176110714Y-99022619D01*
X176158333Y-99117857D01*
X176158333Y-99260714D01*
X176110714Y-99355952D01*
X176063095Y-99403571D01*
X175967857Y-99451190D01*
X175586904Y-99451190D01*
X176729761Y-99355952D02*
X176634523Y-99308333D01*
X176586904Y-99260714D01*
X176539285Y-99165476D01*
X176539285Y-99117857D01*
X176586904Y-99022619D01*
X176634523Y-98975000D01*
X176729761Y-98927380D01*
X176920238Y-98927380D01*
X177015476Y-98975000D01*
X177063095Y-99022619D01*
X177110714Y-99117857D01*
X177110714Y-99165476D01*
X177063095Y-99260714D01*
X177015476Y-99308333D01*
X176920238Y-99355952D01*
X176729761Y-99355952D01*
X176634523Y-99403571D01*
X176586904Y-99451190D01*
X176539285Y-99546428D01*
X176539285Y-99736904D01*
X176586904Y-99832142D01*
X176634523Y-99879761D01*
X176729761Y-99927380D01*
X176920238Y-99927380D01*
X177015476Y-99879761D01*
X177063095Y-99832142D01*
X177110714Y-99736904D01*
X177110714Y-99546428D01*
X177063095Y-99451190D01*
X177015476Y-99403571D01*
X176920238Y-99355952D01*
X172433333Y-113952380D02*
X172100000Y-113476190D01*
X171861904Y-113952380D02*
X171861904Y-112952380D01*
X172242857Y-112952380D01*
X172338095Y-113000000D01*
X172385714Y-113047619D01*
X172433333Y-113142857D01*
X172433333Y-113285714D01*
X172385714Y-113380952D01*
X172338095Y-113428571D01*
X172242857Y-113476190D01*
X171861904Y-113476190D01*
X172766666Y-112952380D02*
X173433333Y-112952380D01*
X173004761Y-113952380D01*
M02*
