G04 #@! TF.GenerationSoftware,KiCad,Pcbnew,(5.1.2)-2*
G04 #@! TF.CreationDate,2019-10-24T20:02:35-04:00*
G04 #@! TF.ProjectId,T32_ref,5433325f-7265-4662-9e6b-696361645f70,rev?*
G04 #@! TF.SameCoordinates,Original*
G04 #@! TF.FileFunction,Soldermask,Top*
G04 #@! TF.FilePolarity,Negative*
%FSLAX46Y46*%
G04 Gerber Fmt 4.6, Leading zero omitted, Abs format (unit mm)*
G04 Created by KiCad (PCBNEW (5.1.2)-2) date 2019-10-24 20:02:35*
%MOMM*%
%LPD*%
G04 APERTURE LIST*
%ADD10C,1.720800*%
%ADD11C,1.543000*%
%ADD12C,0.648920*%
%ADD13C,0.648920*%
%ADD14R,0.798780X1.697940*%
%ADD15R,1.697940X0.798780*%
%ADD16C,2.279600*%
%ADD17R,1.568400X2.000200*%
%ADD18R,2.940000X0.908000*%
%ADD19R,3.897580X2.398980*%
%ADD20R,3.597860X2.398980*%
%ADD21C,1.857960*%
%ADD22C,1.898600*%
%ADD23R,1.150000X1.200000*%
%ADD24R,1.200000X1.150000*%
%ADD25R,1.400000X1.650000*%
%ADD26R,1.650000X1.400000*%
%ADD27R,1.600000X1.600000*%
%ADD28R,1.700000X1.100000*%
%ADD29R,1.300000X0.900000*%
%ADD30R,0.900000X1.300000*%
%ADD31R,1.300000X1.200000*%
G04 APERTURE END LIST*
D10*
X148374100Y-111353600D03*
X143548100Y-111353600D03*
D11*
X149771100Y-106324400D03*
X149771100Y-104952800D03*
D12*
X157771253Y-98166033D03*
D13*
X158107115Y-98501895D02*
X157435391Y-97830171D01*
D12*
X157412042Y-98525243D03*
D13*
X157747904Y-98861105D02*
X157076180Y-98189381D01*
D12*
X157052832Y-98884453D03*
D13*
X157388694Y-99220315D02*
X156716970Y-98548591D01*
D12*
X156711582Y-99225703D03*
D13*
X157047444Y-99561565D02*
X156375720Y-98889841D01*
D12*
X156352372Y-99584913D03*
D13*
X156688234Y-99920775D02*
X156016510Y-99249051D01*
D12*
X155993162Y-99944124D03*
D13*
X156329024Y-100279986D02*
X155657300Y-99608262D01*
D12*
X155651912Y-100285373D03*
D13*
X155987774Y-100621235D02*
X155316050Y-99949511D01*
D12*
X155292702Y-100644584D03*
D13*
X155628564Y-100980446D02*
X154956840Y-100308722D01*
D12*
X154935288Y-101001998D03*
D13*
X155271150Y-101337860D02*
X154599426Y-100666136D01*
D12*
X154576077Y-101361208D03*
D13*
X154911939Y-101697070D02*
X154240215Y-101025346D01*
D12*
X154234828Y-101702458D03*
D13*
X154570690Y-102038320D02*
X153898966Y-101366596D01*
D12*
X153875617Y-102061668D03*
D13*
X154211479Y-102397530D02*
X153539755Y-101725806D01*
D12*
X153516407Y-102420878D03*
D13*
X153852269Y-102756740D02*
X153180545Y-102085016D01*
D12*
X153175157Y-102762128D03*
D13*
X153511019Y-103097990D02*
X152839295Y-102426266D01*
D12*
X152815947Y-103121338D03*
D13*
X153151809Y-103457200D02*
X152480085Y-102785476D01*
D12*
X152456737Y-103480549D03*
D13*
X152792599Y-103816411D02*
X152120875Y-103144687D01*
D12*
X152456737Y-106526651D03*
D13*
X152120875Y-106862513D02*
X152792599Y-106190789D01*
D12*
X152815947Y-106885862D03*
D13*
X152480085Y-107221724D02*
X153151809Y-106550000D01*
D12*
X153175157Y-107245072D03*
D13*
X152839295Y-107580934D02*
X153511019Y-106909210D01*
D12*
X153516407Y-107586322D03*
D13*
X153180545Y-107922184D02*
X153852269Y-107250460D01*
D12*
X153875617Y-107945532D03*
D13*
X153539755Y-108281394D02*
X154211479Y-107609670D01*
D12*
X154234828Y-108304742D03*
D13*
X153898966Y-108640604D02*
X154570690Y-107968880D01*
D12*
X154576077Y-108645992D03*
D13*
X154240215Y-108981854D02*
X154911939Y-108310130D01*
D12*
X154935288Y-109005202D03*
D13*
X154599426Y-109341064D02*
X155271150Y-108669340D01*
D12*
X155292702Y-109362616D03*
D13*
X154956840Y-109698478D02*
X155628564Y-109026754D01*
D12*
X155651912Y-109721827D03*
D13*
X155316050Y-110057689D02*
X155987774Y-109385965D01*
D12*
X155993162Y-110063076D03*
D13*
X155657300Y-110398938D02*
X156329024Y-109727214D01*
D12*
X156352372Y-110422287D03*
D13*
X156016510Y-110758149D02*
X156688234Y-110086425D01*
D12*
X156711582Y-110781497D03*
D13*
X156375720Y-111117359D02*
X157047444Y-110445635D01*
D12*
X157052832Y-111122747D03*
D13*
X156716970Y-111458609D02*
X157388694Y-110786885D01*
D12*
X157412042Y-111481957D03*
D13*
X157076180Y-111817819D02*
X157747904Y-111146095D01*
D12*
X157771253Y-111841167D03*
D13*
X157435391Y-112177029D02*
X158107115Y-111505305D01*
D12*
X160819151Y-111842963D03*
D13*
X161155013Y-112178825D02*
X160483289Y-111507101D01*
D12*
X161178362Y-111483753D03*
D13*
X161514224Y-111819615D02*
X160842500Y-111147891D01*
D12*
X161537572Y-111124543D03*
D13*
X161873434Y-111460405D02*
X161201710Y-110788681D01*
D12*
X161878822Y-110783293D03*
D13*
X162214684Y-111119155D02*
X161542960Y-110447431D01*
D12*
X162238032Y-110424083D03*
D13*
X162573894Y-110759945D02*
X161902170Y-110088221D01*
D12*
X162597242Y-110064872D03*
D13*
X162933104Y-110400734D02*
X162261380Y-109729010D01*
D12*
X162938492Y-109723623D03*
D13*
X163274354Y-110059485D02*
X162602630Y-109387761D01*
D12*
X163297702Y-109364412D03*
D13*
X163633564Y-109700274D02*
X162961840Y-109028550D01*
D12*
X163655116Y-109006998D03*
D13*
X163990978Y-109342860D02*
X163319254Y-108671136D01*
D12*
X164014327Y-108647788D03*
D13*
X164350189Y-108983650D02*
X163678465Y-108311926D01*
D12*
X164355576Y-108306538D03*
D13*
X164691438Y-108642400D02*
X164019714Y-107970676D01*
D12*
X164714787Y-107947328D03*
D13*
X165050649Y-108283190D02*
X164378925Y-107611466D01*
D12*
X165073997Y-107588118D03*
D13*
X165409859Y-107923980D02*
X164738135Y-107252256D01*
D12*
X165415247Y-107246868D03*
D13*
X165751109Y-107582730D02*
X165079385Y-106911006D01*
D12*
X165774457Y-106887658D03*
D13*
X166110319Y-107223520D02*
X165438595Y-106551796D01*
D12*
X166133667Y-106528447D03*
D13*
X166469529Y-106864309D02*
X165797805Y-106192585D01*
D12*
X166133667Y-103478753D03*
D13*
X165797805Y-103814615D02*
X166469529Y-103142891D01*
D12*
X165774457Y-103119542D03*
D13*
X165438595Y-103455404D02*
X166110319Y-102783680D01*
D12*
X165415247Y-102760332D03*
D13*
X165079385Y-103096194D02*
X165751109Y-102424470D01*
D12*
X165073997Y-102419082D03*
D13*
X164738135Y-102754944D02*
X165409859Y-102083220D01*
D12*
X164714787Y-102059872D03*
D13*
X164378925Y-102395734D02*
X165050649Y-101724010D01*
D12*
X164355576Y-101700662D03*
D13*
X164019714Y-102036524D02*
X164691438Y-101364800D01*
D12*
X164014327Y-101359412D03*
D13*
X163678465Y-101695274D02*
X164350189Y-101023550D01*
D12*
X163655116Y-101000202D03*
D13*
X163319254Y-101336064D02*
X163990978Y-100664340D01*
D12*
X163297702Y-100642788D03*
D13*
X162961840Y-100978650D02*
X163633564Y-100306926D01*
D12*
X162938492Y-100283577D03*
D13*
X162602630Y-100619439D02*
X163274354Y-99947715D01*
D12*
X162597242Y-99942328D03*
D13*
X162261380Y-100278190D02*
X162933104Y-99606466D01*
D12*
X162238032Y-99583117D03*
D13*
X161902170Y-99918979D02*
X162573894Y-99247255D01*
D12*
X161878822Y-99223907D03*
D13*
X161542960Y-99559769D02*
X162214684Y-98888045D01*
D12*
X161537572Y-98882657D03*
D13*
X161201710Y-99218519D02*
X161873434Y-98546795D01*
D12*
X161178362Y-98523447D03*
D13*
X160842500Y-98859309D02*
X161514224Y-98187585D01*
D12*
X160819151Y-98164237D03*
D13*
X160483289Y-98500099D02*
X161155013Y-97828375D01*
D14*
X130525520Y-110827820D03*
X131325620Y-110827820D03*
X132125720Y-110827820D03*
X132925820Y-110827820D03*
X133723380Y-110827820D03*
X134523480Y-110827820D03*
X135323580Y-110827820D03*
X136123680Y-110827820D03*
D15*
X137815320Y-109136180D03*
X137815320Y-108336080D03*
X137815320Y-107535980D03*
X137815320Y-106735880D03*
X137815320Y-105938320D03*
X137815320Y-105138220D03*
X137815320Y-104338120D03*
X137815320Y-103538020D03*
D14*
X136123680Y-101846380D03*
X135323580Y-101846380D03*
X134523480Y-101846380D03*
X133723380Y-101846380D03*
X132925820Y-101846380D03*
X132125720Y-101846380D03*
X131325620Y-101846380D03*
X130525520Y-101846380D03*
D15*
X128833880Y-103538020D03*
X128833880Y-104338120D03*
X128833880Y-105138220D03*
X128833880Y-105938320D03*
X128833880Y-106735880D03*
X128833880Y-107535980D03*
X128833880Y-108336080D03*
X128833880Y-109136180D03*
D16*
X170370500Y-108254800D03*
X170370500Y-101752400D03*
X174891700Y-108254800D03*
X174891700Y-101752400D03*
X176730660Y-105003600D03*
D17*
X118538000Y-98650000D03*
X120059460Y-98650000D03*
D18*
X121043960Y-104040940D03*
X121043960Y-104841040D03*
X121043960Y-105638600D03*
X121043960Y-106436160D03*
X121043960Y-107236260D03*
D19*
X115852200Y-110136940D03*
X115852200Y-101140260D03*
D20*
X121150640Y-110136940D03*
X121150640Y-101140260D03*
D21*
X118227100Y-103438960D03*
X118227100Y-107838240D03*
D22*
X116751100Y-93573600D03*
X119291100Y-93573600D03*
X121831100Y-93573600D03*
X124371100Y-93573600D03*
X134531100Y-93573600D03*
X137071100Y-93573600D03*
X139611100Y-93573600D03*
X142151100Y-93573600D03*
X144691100Y-93573600D03*
X147231100Y-93573600D03*
X149771100Y-93573600D03*
X131991100Y-93573600D03*
X152311100Y-93573600D03*
X129451100Y-93573600D03*
X154851100Y-93573600D03*
X126911100Y-93573600D03*
X157391100Y-93573600D03*
X159931100Y-93573600D03*
X159931100Y-116433600D03*
X157391100Y-116433600D03*
X154851100Y-116433600D03*
X152311100Y-116433600D03*
X149771100Y-116433600D03*
X147231100Y-116433600D03*
X144691100Y-116433600D03*
X142151100Y-116433600D03*
X139611100Y-116433600D03*
X137071100Y-116433600D03*
X134531100Y-116433600D03*
X131991100Y-116433600D03*
X129451100Y-116433600D03*
X126911100Y-116433600D03*
X162471100Y-93573600D03*
X165011100Y-93573600D03*
X167551100Y-93573600D03*
X170091100Y-93573600D03*
X172631100Y-93573600D03*
X182791100Y-99923600D03*
X175171100Y-93573600D03*
X182791100Y-102463600D03*
X177711100Y-93573600D03*
X182791100Y-105003600D03*
X177711100Y-116433600D03*
X182791100Y-107543600D03*
X175171100Y-116433600D03*
X182791100Y-110083600D03*
X172631100Y-116433600D03*
X170091100Y-116433600D03*
X167551100Y-116433600D03*
X165011100Y-116433600D03*
X162471100Y-116433600D03*
X180251100Y-116433600D03*
X114211100Y-116433600D03*
X180251100Y-93573600D03*
X182791100Y-93573600D03*
X124371100Y-116433600D03*
X121831100Y-116433600D03*
X119291100Y-116433600D03*
X116751100Y-116433600D03*
X182791100Y-116433600D03*
D23*
X129075000Y-101300000D03*
X129075000Y-99800000D03*
D24*
X152825000Y-112500000D03*
X154325000Y-112500000D03*
D23*
X147875000Y-101725000D03*
X147875000Y-103225000D03*
X149650000Y-103225000D03*
X149650000Y-101725000D03*
D24*
X167425000Y-110725000D03*
X168925000Y-110725000D03*
X147850000Y-107925000D03*
X146350000Y-107925000D03*
X143175000Y-107925000D03*
X144675000Y-107925000D03*
X133025000Y-112625000D03*
X134525000Y-112625000D03*
D25*
X126775000Y-110200000D03*
X124775000Y-110200000D03*
D26*
X124875000Y-104450000D03*
X124875000Y-106450000D03*
D24*
X167575000Y-105650000D03*
X169075000Y-105650000D03*
D26*
X144050000Y-100825000D03*
X144050000Y-102825000D03*
D27*
X171525000Y-98025000D03*
X173725000Y-98025000D03*
D28*
X114475000Y-97075000D03*
X114475000Y-95175000D03*
D29*
X142000000Y-101700000D03*
X142000000Y-103200000D03*
X146100000Y-103225000D03*
X146100000Y-101725000D03*
X140246100Y-103213600D03*
X140246100Y-101713600D03*
D30*
X125025000Y-99925000D03*
X126525000Y-99925000D03*
X125025000Y-101825000D03*
X126525000Y-101825000D03*
X177075000Y-98025000D03*
X175575000Y-98025000D03*
D31*
X173600000Y-111950000D03*
X173600000Y-110050000D03*
X171600000Y-111000000D03*
M02*
