M48
;DRILL file {KiCad 4.0.1-stable} date 2017-03-15 4:54:52 PM
;FORMAT={2:4/ absolute / inch / suppress leading zeros}
FMAT,2
INCH,TZ
T1C0.012
T2C0.025
T3C0.032
T4C0.037
T5C0.039
T6C0.040
%
G90
G05
M72
T1
X45065Y-38790
X46665Y-39840
X46715Y-43290
X48515Y-40490
X48615Y-39390
X48615Y-42890
X49165Y-42390
X49815Y-42740
X49965Y-41590
X50165Y-39340
X50215Y-39640
X50365Y-39990
X50765Y-43840
X51181Y-39537
X51515Y-41590
X51565Y-38990
X51965Y-39190
X52215Y-42740
X52715Y-41240
X52915Y-40690
X52965Y-43140
X53565Y-40840
X53615Y-41190
X53665Y-44390
X53865Y-39990
X53865Y-44690
X53915Y-39740
X53915Y-40290
X53965Y-43590
X54265Y-40340
X54265Y-44790
X54915Y-42290
X54965Y-38690
X55115Y-41890
X55215Y-40960
X55815Y-42690
X55865Y-38140
X56115Y-38790
X56615Y-37940
X57315Y-43040
X57665Y-37790
X57865Y-39490
X57865Y-40410
X57965Y-38740
X58665Y-37790
X59265Y-45190
X59465Y-45440
X59765Y-41240
X59865Y-43840
X59965Y-43490
X60165Y-42790
X60215Y-38740
X60415Y-37590
X60415Y-41090
X60465Y-41790
X60472Y-44006
X60615Y-41240
X61015Y-40840
X61015Y-42340
X61215Y-38640
X61215Y-41490
X61265Y-42140
X61365Y-44240
X61415Y-42390
X61515Y-40290
X61615Y-37540
X61615Y-39690
X61615Y-42540
X61665Y-42790
X61715Y-41090
X61815Y-39840
X61965Y-40590
X62015Y-39340
X62215Y-43290
X62315Y-39740
X62415Y-40340
X62415Y-41790
X62465Y-43790
X62515Y-37340
X62515Y-38740
X62565Y-44740
X62615Y-42790
X62746Y-43642
X62765Y-39090
X62965Y-40490
X63115Y-44340
X63165Y-41040
X63165Y-43590
X63215Y-43040
X63315Y-42090
X63515Y-41240
X63815Y-40640
X63915Y-42090
X64065Y-37990
X64065Y-44890
X64115Y-42440
X64315Y-43640
X64365Y-41990
X64515Y-45340
X64665Y-41590
X64715Y-43590
X64815Y-41290
X65115Y-41090
X65465Y-45140
X65515Y-42440
X65615Y-41740
X65715Y-37990
X65815Y-42090
X66165Y-42590
X66415Y-42990
X66515Y-43940
X66715Y-41090
X67115Y-43240
X67165Y-38590
X67515Y-37540
X67565Y-40690
X68115Y-42740
X68365Y-39240
X68365Y-44390
X69615Y-38140
X70015Y-39390
X70515Y-42790
X70965Y-41840
X71465Y-44440
T2
X58965Y-41320
X58965Y-41860
T3
X56515Y-43840
X58415Y-43840
T4
X46546Y-40724
X46546Y-42456
T5
X44965Y-45840
X45965Y-36840
X45965Y-45840
X46965Y-36840
X46965Y-45840
X47965Y-36840
X47965Y-45840
X48965Y-36840
X48965Y-45840
X49965Y-36840
X49965Y-45840
X50965Y-36840
X50965Y-45840
X51965Y-36840
X51965Y-45840
X52965Y-36840
X52965Y-45840
X53965Y-36840
X53965Y-45840
X54965Y-36840
X54965Y-45840
X55965Y-36840
X55965Y-45840
X56965Y-36840
X56965Y-45840
X57965Y-36840
X57965Y-45840
X58965Y-36840
X58965Y-45840
X59965Y-36840
X59965Y-45840
X60965Y-36840
X60965Y-45840
X61965Y-36840
X61965Y-45840
X62965Y-36840
X62965Y-45840
X63965Y-36840
X63965Y-45840
X64965Y-36840
X64965Y-45840
X65965Y-36840
X65965Y-45840
X66965Y-36840
X66965Y-45840
X67965Y-36840
X67965Y-45840
X68965Y-36840
X68965Y-45840
X69965Y-36840
X69965Y-45840
X70965Y-36840
X70965Y-45840
X71965Y-36840
X71965Y-39340
X71965Y-40340
X71965Y-41340
X71965Y-42340
X71965Y-43340
X71965Y-45840
T6
X67075Y-40060
X67075Y-42620
X68855Y-40060
X68855Y-42620
X69579Y-41340
T0
M30
